fontCallback.success({"glyphs":{"S":{"x_min":66,"x_max":685,"ha":756,"o":"m 342 -14 q 223 0 275 -14 q 136 39 171 14 q 83 101 101 65 q 66 181 66 137 q 92 249 66 223 q 166 275 118 275 q 179 192 168 231 q 212 121 190 152 q 268 73 234 91 q 349 55 301 55 q 493 100 441 55 q 544 230 544 145 q 533 297 544 267 q 498 351 523 326 q 433 398 473 375 q 333 446 393 421 q 222 502 269 472 q 143 569 175 532 q 97 652 112 606 q 82 754 82 697 q 104 860 82 814 q 168 939 127 907 q 264 989 208 972 q 386 1006 320 1006 q 496 993 448 1006 q 578 958 544 980 q 628 908 611 936 q 646 850 646 880 q 616 782 646 805 q 536 760 587 760 q 529 824 536 792 q 504 880 521 855 q 457 921 486 905 q 386 936 428 936 q 317 925 347 936 q 265 893 286 914 q 233 843 244 873 q 222 778 222 814 q 232 705 222 737 q 268 648 243 674 q 333 600 293 623 q 432 553 373 577 q 539 500 492 528 q 618 438 585 472 q 667 361 650 403 q 685 265 685 318 q 660 147 685 199 q 592 59 636 95 q 484 4 547 23 q 342 -14 420 -14 "},"¦":{"x_min":346,"x_max":428.0625,"ha":777,"o":"m 428 500 l 346 500 l 346 1055 l 428 1055 l 428 500 m 428 -334 l 346 -334 l 346 222 l 428 222 l 428 -334 "},"/":{"x_min":0,"x_max":400,"ha":400,"o":"m 82 -168 l 0 -168 l 319 1055 l 400 1055 l 82 -168 "},"y":{"x_min":5,"x_max":785,"ha":785,"o":"m 785 745 l 785 686 l 780 686 q 746 682 760 686 q 719 665 731 677 q 697 632 707 653 q 675 578 687 611 l 463 -5 q 417 -123 439 -72 q 372 -210 396 -174 q 320 -270 348 -247 q 256 -308 292 -294 q 173 -328 220 -323 q 65 -334 126 -334 l 52 -334 l 52 -264 q 174 -244 123 -264 q 262 -187 225 -223 q 323 -101 299 -150 q 365 5 348 -52 l 108 612 q 89 648 98 634 q 69 671 80 662 q 44 683 58 679 q 9 686 29 686 l 5 686 l 5 745 l 338 745 l 338 686 l 334 686 q 271 670 292 686 q 251 619 251 654 q 253 596 251 607 q 262 568 255 584 l 364 320 q 384 269 373 297 q 403 213 394 240 q 420 161 412 185 q 430 119 427 137 l 434 119 q 455 193 442 149 q 486 287 468 237 l 579 558 q 588 590 585 575 q 591 618 591 606 q 568 670 591 654 q 500 686 546 686 l 496 686 l 496 745 l 785 745 "},"Á":{"x_min":0,"x_max":979,"ha":979,"o":"m 281 332 l 227 186 q 218 153 221 169 q 215 126 215 137 q 237 74 215 90 q 307 58 260 58 l 339 58 l 339 0 l 0 0 l 0 58 l 26 58 q 61 62 46 58 q 86 79 75 67 q 108 112 98 91 q 132 166 119 133 l 440 992 l 548 992 l 862 132 q 878 96 870 110 q 898 73 887 82 q 925 61 910 65 q 960 58 940 58 l 979 58 l 979 0 l 597 0 l 597 58 l 629 58 q 712 124 712 58 q 709 148 712 136 q 700 176 706 160 l 645 332 l 281 332 m 534 644 q 494 760 512 706 q 465 864 476 814 q 453 816 460 839 q 439 768 447 792 q 423 717 432 743 q 401 657 413 690 l 307 402 l 619 402 l 534 644 m 432 1089 q 464 1134 447 1108 q 496 1187 480 1160 q 527 1242 512 1215 q 552 1293 541 1269 l 701 1293 l 701 1278 q 663 1233 688 1260 q 607 1175 637 1205 q 544 1118 577 1146 q 484 1071 512 1089 l 432 1071 l 432 1089 "},"g":{"x_min":32,"x_max":731,"ha":747,"o":"m 731 715 q 726 687 731 700 q 713 664 722 674 q 690 648 704 654 q 657 643 676 643 q 655 658 657 650 q 648 673 653 666 q 634 684 643 680 q 611 688 625 688 q 579 685 593 688 q 551 673 565 681 q 590 604 575 644 q 606 505 606 564 q 590 410 606 453 q 543 334 574 366 q 465 284 512 302 q 355 267 418 267 q 337 267 347 267 q 316 268 326 267 q 297 269 306 268 q 283 271 288 270 q 273 256 278 264 q 264 237 268 248 q 259 214 261 227 q 256 186 256 201 q 262 159 256 169 q 279 143 268 148 q 304 135 289 137 q 335 134 318 134 l 479 134 q 576 118 536 134 q 640 75 615 102 q 677 9 666 47 q 689 -73 689 -29 q 666 -181 689 -133 q 599 -263 644 -230 q 484 -315 554 -297 q 320 -334 415 -334 q 103 -276 175 -334 q 32 -117 32 -219 q 45 -41 32 -74 q 82 13 59 -9 q 136 51 106 36 q 200 72 166 65 q 173 86 186 77 q 149 108 160 96 q 132 138 139 121 q 126 174 126 154 q 148 239 126 212 q 219 292 170 266 q 166 325 189 304 q 126 374 142 346 q 102 434 110 401 q 94 501 94 466 q 110 609 94 561 q 159 689 126 656 q 240 740 191 722 q 355 758 289 758 q 405 754 380 758 q 450 744 429 750 q 487 729 470 737 q 514 712 504 721 q 538 736 524 723 q 568 760 551 749 q 605 779 585 772 q 648 787 625 787 q 685 781 669 787 q 710 765 700 775 q 725 742 720 755 q 731 715 731 729 m 162 -103 q 170 -167 162 -137 q 196 -218 177 -197 q 246 -252 215 -240 q 327 -264 278 -264 q 440 -250 395 -264 q 510 -211 484 -236 q 547 -151 536 -186 q 558 -75 558 -116 q 549 -15 558 -39 q 524 21 541 7 q 484 39 508 34 q 428 45 459 45 l 302 45 q 250 39 276 45 q 206 17 225 33 q 174 -27 186 1 q 162 -103 162 -56 m 224 505 q 254 377 224 417 q 351 336 284 336 q 408 346 385 336 q 447 377 432 356 q 468 430 462 397 q 475 507 475 462 q 446 644 475 600 q 350 688 418 688 q 253 643 282 688 q 224 505 224 598 "},"²":{"x_min":58,"x_max":484,"ha":555,"o":"m 467 855 q 459 794 467 823 q 434 737 452 766 q 388 678 416 709 q 316 610 359 648 l 169 484 l 370 484 q 414 501 402 484 q 431 541 427 518 l 436 570 l 484 570 l 479 397 l 58 397 l 58 459 l 233 617 q 285 674 264 645 q 318 731 306 702 q 336 788 331 760 q 342 844 342 817 q 337 886 342 867 q 323 920 333 906 q 298 942 313 934 q 260 950 282 950 q 217 940 235 950 q 189 914 200 930 q 174 875 178 897 q 169 829 169 853 q 95 841 122 829 q 69 889 69 852 q 81 935 69 914 q 117 972 93 957 q 177 997 141 988 q 260 1006 213 1006 q 412 967 357 1006 q 467 855 467 929 "},"ë":{"x_min":77,"x_max":673,"ha":743,"o":"m 384 678 q 264 617 306 678 q 214 438 222 556 l 538 438 q 529 536 538 491 q 503 612 521 580 q 456 661 485 644 q 384 678 427 678 m 398 -14 q 263 11 323 -14 q 162 85 203 36 q 98 205 120 134 q 77 366 77 276 q 156 659 77 561 q 384 758 236 758 q 505 736 451 758 q 595 673 558 715 q 653 568 633 631 q 673 423 673 505 l 673 358 l 211 358 q 227 230 213 284 q 266 142 241 176 q 330 91 292 107 q 417 74 368 74 q 484 82 453 74 q 540 104 515 90 q 584 134 565 117 q 615 170 603 151 q 633 153 625 165 q 642 122 642 140 q 627 77 642 101 q 581 33 612 53 q 505 0 551 13 q 398 -14 459 -14 m 172 956 q 177 992 172 977 q 192 1016 182 1007 q 214 1029 201 1025 q 242 1034 227 1034 q 270 1029 257 1034 q 293 1016 283 1025 q 308 992 302 1007 q 313 956 313 977 q 308 920 313 934 q 293 895 302 905 q 270 882 283 886 q 242 878 257 878 q 192 895 212 878 q 172 956 172 913 m 436 956 q 441 992 436 977 q 456 1016 446 1007 q 478 1029 465 1025 q 506 1034 491 1034 q 534 1029 521 1034 q 557 1016 547 1025 q 572 992 566 1007 q 577 956 577 977 q 572 920 577 934 q 557 895 566 905 q 534 882 547 886 q 506 878 521 878 q 456 895 476 878 q 436 956 436 913 "},"Î":{"x_min":49,"x_max":459,"ha":510,"o":"m 52 0 l 52 58 l 70 58 q 114 61 93 58 q 150 75 135 65 q 175 105 166 86 q 184 158 184 125 l 184 833 q 175 886 184 866 q 150 916 166 905 q 114 930 135 926 q 70 933 93 933 l 52 933 l 52 992 l 456 992 l 456 933 l 438 933 q 394 930 415 933 q 357 916 373 926 q 333 886 342 905 q 324 833 324 866 l 324 158 q 333 105 324 125 q 357 75 342 86 q 394 61 373 65 q 438 58 415 58 l 456 58 l 456 0 l 52 0 m 49 1089 q 84 1134 65 1108 q 124 1187 104 1160 q 160 1242 143 1215 q 188 1293 177 1269 l 319 1293 q 347 1242 330 1269 q 383 1187 364 1215 q 423 1134 403 1160 q 459 1089 442 1108 l 459 1071 l 404 1071 q 324 1128 364 1093 q 253 1195 284 1162 q 182 1128 221 1162 q 103 1071 142 1093 l 49 1071 l 49 1089 "},"e":{"x_min":77,"x_max":673,"ha":743,"o":"m 384 678 q 264 617 306 678 q 214 438 222 556 l 538 438 q 529 536 538 491 q 503 612 521 580 q 456 661 485 644 q 384 678 427 678 m 398 -14 q 263 11 323 -14 q 162 85 203 36 q 98 205 120 134 q 77 366 77 276 q 156 659 77 561 q 384 758 236 758 q 505 736 451 758 q 595 673 558 715 q 653 568 633 631 q 673 423 673 505 l 673 358 l 211 358 q 227 230 213 284 q 266 142 241 176 q 330 91 292 107 q 417 74 368 74 q 484 82 453 74 q 540 104 515 90 q 584 134 565 117 q 615 170 603 151 q 633 153 625 165 q 642 122 642 140 q 627 77 642 101 q 581 33 612 53 q 505 0 551 13 q 398 -14 459 -14 "},"Ã":{"x_min":0,"x_max":979,"ha":979,"o":"m 281 332 l 227 186 q 218 153 221 169 q 215 126 215 137 q 237 74 215 90 q 307 58 260 58 l 339 58 l 339 0 l 0 0 l 0 58 l 26 58 q 61 62 46 58 q 86 79 75 67 q 108 112 98 91 q 132 166 119 133 l 440 992 l 548 992 l 862 132 q 878 96 870 110 q 898 73 887 82 q 925 61 910 65 q 960 58 940 58 l 979 58 l 979 0 l 597 0 l 597 58 l 629 58 q 712 124 712 58 q 709 148 712 136 q 700 176 706 160 l 645 332 l 281 332 m 534 644 q 494 760 512 706 q 465 864 476 814 q 453 816 460 839 q 439 768 447 792 q 423 717 432 743 q 401 657 413 690 l 307 402 l 619 402 l 534 644 m 606 1161 q 639 1167 627 1161 q 659 1183 652 1173 q 669 1207 666 1194 q 674 1235 672 1220 l 737 1235 q 725 1173 734 1203 q 699 1121 716 1144 q 655 1084 681 1098 q 591 1071 628 1071 q 523 1084 554 1071 q 467 1114 493 1098 q 418 1145 441 1131 q 373 1158 396 1158 q 340 1152 352 1158 q 321 1136 328 1146 q 310 1112 314 1126 q 305 1085 307 1099 l 243 1085 q 254 1146 245 1116 q 281 1198 263 1175 q 326 1235 299 1221 q 390 1249 352 1249 q 457 1235 427 1249 q 513 1205 487 1221 q 562 1174 539 1188 q 606 1161 585 1161 "},"J":{"x_min":-16,"x_max":456.640625,"ha":496,"o":"m -16 -264 l -3 -264 q 76 -252 41 -264 q 135 -210 111 -239 q 171 -131 158 -180 q 184 -9 184 -82 l 184 839 q 174 888 184 870 q 150 917 165 907 q 113 930 134 927 q 70 933 93 933 l 52 933 l 52 992 l 456 992 l 456 933 l 438 933 q 394 930 415 933 q 357 916 373 926 q 333 886 342 905 q 324 833 324 866 l 324 -10 q 299 -166 324 -104 q 232 -265 275 -228 q 132 -318 190 -302 q 7 -334 74 -334 l -16 -334 l -16 -264 "},"»":{"x_min":90,"x_max":622.75,"ha":714,"o":"m 622 352 l 410 111 l 341 111 l 481 375 l 341 639 l 410 639 l 622 397 l 622 352 m 371 352 l 159 111 l 90 111 l 230 375 l 90 639 l 159 639 l 371 397 l 371 352 "},"©":{"x_min":77,"x_max":1097,"ha":1174,"o":"m 611 247 q 670 255 643 247 q 719 277 697 263 q 756 307 741 290 q 782 341 772 324 q 796 324 790 335 q 802 298 802 313 q 788 259 802 279 q 749 223 775 239 q 684 197 723 207 q 593 187 645 187 q 472 209 524 187 q 385 272 420 231 q 333 370 350 313 q 316 496 316 427 q 334 620 316 564 q 391 717 353 677 q 484 781 429 758 q 612 804 539 804 q 696 796 660 804 q 755 774 731 788 q 791 743 779 761 q 803 704 803 725 q 795 677 803 689 q 775 656 788 664 q 745 643 762 648 q 708 639 727 639 q 703 677 708 658 q 686 711 698 696 q 656 735 675 726 q 610 745 637 745 q 527 728 561 745 q 471 680 492 712 q 439 602 449 648 q 429 496 429 556 q 476 312 429 376 q 611 247 523 247 m 77 495 q 95 631 77 566 q 146 753 113 696 q 225 857 179 810 q 328 937 272 903 q 450 988 385 970 q 585 1007 515 1007 q 721 988 656 1007 q 843 937 787 970 q 947 857 900 903 q 1027 753 993 810 q 1078 631 1060 696 q 1097 495 1097 566 q 1078 359 1097 424 q 1027 238 1060 294 q 947 134 993 181 q 843 55 900 88 q 721 3 787 21 q 585 -14 656 -14 q 450 3 515 -14 q 328 55 385 21 q 225 134 272 88 q 146 238 179 181 q 95 359 113 294 q 77 495 77 424 m 152 495 q 168 380 152 436 q 212 277 184 325 q 280 189 240 228 q 367 121 319 149 q 471 77 416 93 q 586 61 526 61 q 702 77 646 61 q 806 121 757 93 q 893 189 854 149 q 961 277 933 228 q 1005 380 989 325 q 1021 495 1021 436 q 1005 611 1021 555 q 961 715 989 666 q 893 803 933 764 q 806 871 854 843 q 702 915 757 899 q 586 931 646 931 q 471 915 526 931 q 367 871 416 899 q 280 803 319 843 q 212 715 240 764 q 168 611 184 666 q 152 495 152 556 "},"ò":{"x_min":77,"x_max":725,"ha":802,"o":"m 725 373 q 641 81 725 177 q 398 -14 558 -14 q 264 9 323 -14 q 162 81 204 33 q 99 202 121 129 q 77 373 77 275 q 159 663 77 568 q 403 758 241 758 q 537 734 478 758 q 639 663 597 711 q 702 543 680 615 q 725 373 725 471 m 211 374 q 222 236 211 295 q 254 136 232 176 q 313 75 277 96 q 402 55 349 55 q 489 75 454 55 q 548 136 525 96 q 580 236 570 176 q 590 374 590 295 q 579 511 590 452 q 547 609 569 570 q 488 668 525 649 q 400 688 452 688 q 312 668 348 688 q 254 609 276 649 q 222 511 232 570 q 211 374 211 452 m 473 842 l 420 842 q 359 889 392 860 q 296 946 327 917 q 240 1004 266 976 q 203 1049 215 1031 l 203 1064 l 351 1064 q 377 1013 362 1040 q 407 958 391 986 q 441 905 424 931 q 473 860 458 879 l 473 842 "},"^":{"x_min":71,"x_max":705,"ha":777,"o":"m 363 992 l 411 992 l 705 370 l 611 370 l 386 864 l 164 370 l 71 370 l 363 992 "},"«":{"x_min":91.25,"x_max":624,"ha":714,"o":"m 91 397 l 303 639 l 373 639 l 233 375 l 373 111 l 303 111 l 91 352 l 91 397 m 342 397 l 554 639 l 624 639 l 484 375 l 624 111 l 554 111 l 342 352 l 342 397 "},"D":{"x_min":52.421875,"x_max":931,"ha":1010,"o":"m 931 497 q 902 291 931 383 q 817 134 873 199 q 676 34 761 69 q 478 0 591 0 l 52 0 l 52 58 l 70 58 q 114 61 93 58 q 150 75 135 65 q 175 105 166 86 q 184 158 184 125 l 184 839 q 174 888 184 869 q 150 917 165 907 q 113 930 134 927 q 70 933 93 933 l 52 933 l 52 992 l 478 992 q 669 959 585 992 q 811 863 753 926 q 900 707 869 799 q 931 497 931 615 m 445 69 q 590 97 528 69 q 694 179 652 125 q 756 313 735 234 q 777 496 777 393 q 694 813 777 703 q 446 922 611 922 l 324 922 l 324 69 l 445 69 "},"ⁿ":{"x_min":13.71875,"x_max":560.828125,"ha":576,"o":"m 275 591 l 275 536 l 13 536 l 13 591 l 21 591 q 47 593 35 591 q 69 601 59 595 q 83 617 78 607 q 89 645 89 628 l 89 885 q 83 911 89 901 q 68 927 78 921 q 46 934 59 932 q 21 936 34 936 l 18 936 l 18 992 l 190 992 l 201 924 l 205 924 q 235 962 219 947 q 267 985 250 977 q 304 997 284 994 q 344 1000 323 1000 q 454 962 415 1000 q 493 843 493 924 l 493 650 q 497 619 493 631 q 511 601 502 608 q 531 593 520 595 q 556 591 543 591 l 560 591 l 560 536 l 377 536 l 377 830 q 359 914 377 885 q 295 944 341 944 q 252 934 270 944 q 224 906 234 923 q 209 866 213 888 q 204 818 204 843 l 204 645 q 209 617 204 627 q 224 600 215 606 q 246 593 234 595 q 273 591 259 591 l 275 591 "},"ÿ":{"x_min":5,"x_max":785,"ha":785,"o":"m 785 745 l 785 686 l 780 686 q 746 682 760 686 q 719 665 731 677 q 697 632 707 653 q 675 578 687 611 l 463 -5 q 417 -123 439 -72 q 372 -210 396 -174 q 320 -270 348 -247 q 256 -308 292 -294 q 173 -328 220 -323 q 65 -334 126 -334 l 52 -334 l 52 -264 q 174 -244 123 -264 q 262 -187 225 -223 q 323 -101 299 -150 q 365 5 348 -52 l 108 612 q 89 648 98 634 q 69 671 80 662 q 44 683 58 679 q 9 686 29 686 l 5 686 l 5 745 l 338 745 l 338 686 l 334 686 q 271 670 292 686 q 251 619 251 654 q 253 596 251 607 q 262 568 255 584 l 364 320 q 384 269 373 297 q 403 213 394 240 q 420 161 412 185 q 430 119 427 137 l 434 119 q 455 193 442 149 q 486 287 468 237 l 579 558 q 588 590 585 575 q 591 618 591 606 q 568 670 591 654 q 500 686 546 686 l 496 686 l 496 745 l 785 745 m 217 956 q 222 992 217 977 q 237 1016 227 1007 q 259 1029 246 1025 q 287 1034 272 1034 q 315 1029 302 1034 q 338 1016 328 1025 q 353 992 347 1007 q 358 956 358 977 q 353 920 358 934 q 338 895 347 905 q 315 882 328 886 q 287 878 302 878 q 237 895 257 878 q 217 956 217 913 m 481 956 q 486 992 481 977 q 501 1016 491 1007 q 523 1029 510 1025 q 551 1034 536 1034 q 579 1029 566 1034 q 602 1016 592 1025 q 617 992 611 1007 q 622 956 622 977 q 617 920 622 934 q 602 895 611 905 q 579 882 592 886 q 551 878 566 878 q 501 895 521 878 q 481 956 481 913 "},"í":{"x_min":31.75,"x_max":432,"ha":444,"o":"m 50 58 q 93 61 73 58 q 130 73 114 64 q 154 102 145 83 q 164 151 164 120 l 164 591 q 154 640 164 622 q 130 669 145 659 q 93 683 114 679 q 50 686 73 686 l 46 686 l 46 745 l 294 745 l 294 158 q 304 105 294 125 q 328 75 313 86 q 364 61 343 65 q 408 58 385 58 l 427 58 l 427 0 l 31 0 l 31 58 l 50 58 m 163 860 q 195 905 178 879 q 227 958 211 931 q 258 1013 243 986 q 283 1064 272 1040 l 432 1064 l 432 1049 q 394 1004 419 1031 q 338 946 368 976 q 275 889 308 917 q 215 842 243 860 l 163 842 l 163 860 "},"w":{"x_min":1,"x_max":1196,"ha":1197,"o":"m 661 741 l 800 329 q 817 275 808 304 q 834 218 826 246 q 849 164 843 190 q 860 122 856 139 l 864 122 q 883 207 870 156 q 918 325 897 257 l 987 548 q 996 586 993 566 q 1000 618 1000 606 q 977 670 1000 654 q 908 686 955 686 l 898 686 l 898 745 l 1196 745 l 1196 686 l 1178 686 q 1143 682 1158 686 q 1116 666 1128 678 q 1094 633 1104 654 q 1073 578 1084 612 l 894 0 l 783 0 l 617 489 l 592 580 l 395 0 l 286 0 l 104 612 q 87 648 95 634 q 66 671 78 662 q 40 683 55 679 q 5 686 25 686 l 1 686 l 1 745 l 344 745 l 344 686 l 325 686 q 263 674 284 686 q 242 628 242 662 q 246 600 242 616 q 253 568 249 584 l 319 335 q 333 280 326 310 q 347 220 340 250 q 359 165 353 191 q 368 122 364 139 l 372 122 q 381 163 375 139 q 394 213 387 186 q 411 268 402 240 q 429 320 420 295 l 573 741 l 661 741 "},"$":{"x_min":92,"x_max":679,"ha":777,"o":"m 414 950 q 524 936 479 948 q 597 902 569 923 q 639 854 626 882 q 652 794 652 826 q 622 726 652 749 q 542 704 592 704 q 536 767 542 735 q 517 825 531 798 q 478 869 503 851 q 414 891 453 887 l 414 561 q 528 506 478 534 q 610 448 577 479 q 661 378 644 417 q 679 291 679 340 q 610 129 679 187 q 414 58 541 71 l 414 -109 l 345 -109 l 345 56 q 276 59 311 56 q 209 69 242 62 q 147 87 177 76 q 92 113 117 98 l 92 327 l 150 327 q 164 250 150 287 q 204 184 178 214 q 266 136 230 155 q 345 114 301 117 l 345 458 q 238 516 281 487 q 167 576 194 544 q 128 644 140 607 q 116 726 116 681 q 132 811 116 773 q 177 878 148 850 q 249 923 207 906 q 345 947 292 941 l 345 1055 l 414 1055 l 414 950 m 538 268 q 532 318 538 296 q 510 359 525 340 q 472 395 496 378 q 414 427 449 411 l 414 118 q 506 169 474 129 q 538 268 538 208 m 256 741 q 262 689 256 711 q 279 649 267 666 q 306 617 290 631 q 345 591 323 604 l 345 888 q 306 869 323 882 q 278 836 289 855 q 262 793 267 817 q 256 741 256 769 "},"\\":{"x_min":0,"x_max":400,"ha":400,"o":"m 0 1055 l 80 1055 l 400 -168 l 317 -168 l 0 1055 "},"Ì":{"x_min":51,"x_max":456.640625,"ha":510,"o":"m 52 0 l 52 58 l 70 58 q 114 61 93 58 q 150 75 135 65 q 175 105 166 86 q 184 158 184 125 l 184 833 q 175 886 184 866 q 150 916 166 905 q 114 930 135 926 q 70 933 93 933 l 52 933 l 52 992 l 456 992 l 456 933 l 438 933 q 394 930 415 933 q 357 916 373 926 q 333 886 342 905 q 324 833 324 866 l 324 158 q 333 105 324 125 q 357 75 342 86 q 394 61 373 65 q 438 58 415 58 l 456 58 l 456 0 l 52 0 m 321 1071 l 268 1071 q 207 1118 240 1089 q 144 1175 175 1146 q 88 1233 114 1205 q 51 1278 63 1260 l 51 1293 l 199 1293 q 225 1242 210 1269 q 255 1187 239 1215 q 289 1134 272 1160 q 321 1089 306 1108 l 321 1071 "},"µ":{"x_min":119.046875,"x_max":796.234375,"ha":855,"o":"m 385 -14 q 285 7 327 -14 q 216 67 244 28 q 221 -39 217 9 q 235 -124 224 -87 q 268 -183 246 -161 q 329 -212 290 -206 q 323 -261 329 -239 q 305 -299 317 -283 q 275 -324 293 -315 q 232 -334 257 -334 q 189 -325 210 -334 q 153 -298 169 -317 q 128 -247 138 -279 q 119 -168 119 -215 q 121 -79 119 -127 q 126 26 123 -31 q 132 155 129 84 q 136 312 135 225 l 136 745 l 266 745 l 266 277 q 273 195 266 232 q 296 130 280 157 q 338 89 312 104 q 405 74 365 74 q 475 91 444 74 q 527 136 506 107 q 561 207 549 166 q 573 299 573 249 l 573 745 l 704 745 l 704 179 q 712 125 704 148 q 732 88 720 103 q 760 65 745 73 q 791 58 776 58 l 796 58 l 796 0 l 720 0 q 631 28 663 0 q 585 111 598 56 l 579 111 q 545 60 563 83 q 503 21 526 37 q 450 -4 479 4 q 385 -14 422 -14 "},"Ç":{"x_min":79,"x_max":806,"ha":853,"o":"m 524 1006 q 648 994 596 1006 q 736 961 701 982 q 788 911 771 940 q 806 850 806 883 q 796 809 806 827 q 771 779 787 791 q 733 759 755 766 q 685 753 711 753 q 676 817 685 785 q 648 874 668 848 q 598 915 629 899 q 522 931 567 931 q 388 902 443 931 q 298 818 333 873 q 248 682 264 763 q 232 496 232 601 q 249 326 232 403 q 300 193 265 249 q 390 108 336 138 q 522 77 445 77 q 612 87 573 77 q 681 113 651 97 q 734 151 711 129 q 774 196 756 172 q 793 175 786 188 q 801 141 801 162 q 783 87 801 115 q 728 37 765 60 q 635 0 691 15 q 501 -14 578 -14 q 318 22 397 -14 q 186 126 239 59 q 106 288 133 193 q 79 497 79 382 q 107 703 79 609 q 192 864 136 796 q 331 968 248 931 q 524 1006 415 1006 m 639 -175 q 591 -291 639 -249 q 456 -334 544 -334 q 431 -332 445 -334 q 403 -329 418 -331 q 375 -324 389 -327 q 349 -318 361 -321 l 349 -247 q 398 -256 373 -253 q 441 -258 423 -258 q 503 -237 481 -258 q 525 -180 525 -216 q 496 -119 525 -139 q 424 -95 467 -99 l 453 12 l 518 12 l 504 -47 q 605 -86 572 -53 q 639 -175 639 -120 "},"-":{"x_min":35,"x_max":396,"ha":431,"o":"m 35 326 l 35 431 l 396 431 l 396 326 l 35 326 "},"Q":{"x_min":78,"x_max":952,"ha":1031,"o":"m 952 496 q 929 309 952 395 q 863 159 907 224 q 755 51 819 94 q 609 -5 691 9 q 632 -122 616 -75 q 676 -197 649 -169 q 737 -237 702 -225 q 814 -249 772 -249 l 837 -249 l 837 -319 l 777 -319 q 667 -304 722 -319 q 568 -254 612 -289 q 493 -159 523 -218 q 456 -11 462 -100 q 289 39 360 0 q 171 146 218 79 q 101 301 124 212 q 78 498 78 390 q 105 707 78 613 q 186 867 132 801 q 323 970 240 934 q 517 1007 406 1007 q 702 970 622 1007 q 839 867 783 934 q 923 706 895 800 q 952 496 952 612 m 231 495 q 247 311 231 392 q 296 173 262 229 q 384 87 330 117 q 515 58 438 58 q 647 87 593 58 q 734 173 700 117 q 783 311 768 229 q 798 495 798 392 q 783 680 798 599 q 734 818 768 762 q 647 903 700 873 q 517 932 594 932 q 385 903 439 932 q 296 818 331 873 q 247 680 262 762 q 231 495 231 599 "},"M":{"x_min":52.421875,"x_max":1250.578125,"ha":1303,"o":"m 874 0 l 874 58 l 878 58 q 919 61 901 58 q 949 73 937 64 q 969 100 962 82 q 978 145 977 117 l 978 888 l 663 0 l 588 0 l 268 885 l 268 158 q 275 105 268 125 q 295 75 282 86 q 327 61 308 65 q 369 58 346 58 l 373 58 l 373 0 l 52 0 l 52 58 l 70 58 q 113 61 93 58 q 150 73 134 64 q 174 102 165 83 q 184 151 184 120 l 184 839 q 174 888 184 869 q 150 917 165 907 q 113 930 134 927 q 70 933 93 933 l 52 933 l 52 992 l 368 992 l 653 197 l 936 992 l 1250 992 l 1250 933 l 1232 933 q 1188 930 1209 933 q 1152 916 1167 926 q 1127 886 1136 905 q 1119 833 1119 866 l 1119 158 q 1127 105 1119 125 q 1152 75 1136 86 q 1188 61 1167 65 q 1232 58 1209 58 l 1250 58 l 1250 0 l 874 0 "},"C":{"x_min":79,"x_max":806,"ha":853,"o":"m 524 1006 q 648 994 596 1006 q 736 961 701 982 q 788 911 771 940 q 806 850 806 883 q 796 809 806 827 q 771 779 787 791 q 733 759 755 766 q 685 753 711 753 q 676 817 685 785 q 648 874 668 848 q 598 915 629 899 q 522 931 567 931 q 388 902 443 931 q 298 818 333 873 q 248 682 264 763 q 232 496 232 601 q 249 326 232 403 q 300 193 265 249 q 390 108 336 138 q 522 77 445 77 q 612 87 573 77 q 681 113 651 97 q 734 151 711 129 q 774 196 756 172 q 793 175 786 188 q 801 141 801 162 q 783 87 801 115 q 728 37 765 60 q 635 0 691 15 q 501 -14 578 -14 q 318 22 397 -14 q 186 126 239 59 q 106 288 133 193 q 79 497 79 382 q 107 703 79 609 q 192 864 136 796 q 331 968 248 931 q 524 1006 415 1006 "},"!":{"x_min":143,"x_max":318,"ha":463,"o":"m 149 992 l 311 992 l 262 279 l 198 279 l 149 992 m 143 84 q 149 129 143 111 q 168 158 156 147 q 196 174 180 169 q 230 179 212 179 q 264 174 248 179 q 291 158 280 169 q 310 129 303 147 q 318 84 318 111 q 310 39 318 57 q 291 10 303 21 q 264 -5 280 0 q 230 -10 248 -10 q 196 -5 212 -10 q 168 10 180 0 q 149 39 156 21 q 143 84 143 57 "},"ç":{"x_min":77,"x_max":629,"ha":684,"o":"m 393 -14 q 265 7 324 -14 q 165 74 207 28 q 100 193 123 121 q 77 367 77 265 q 100 554 77 479 q 165 674 123 629 q 263 739 207 720 q 386 758 320 758 q 472 749 429 758 q 550 723 515 741 q 606 679 584 705 q 628 616 628 652 q 596 548 628 568 q 503 529 565 529 q 498 590 503 561 q 479 641 493 619 q 444 676 466 663 q 386 688 421 688 q 314 673 346 688 q 259 622 282 658 q 224 523 236 585 q 211 368 211 461 q 260 147 211 220 q 421 74 309 74 q 533 102 485 74 q 605 173 581 129 q 622 151 615 164 q 629 118 629 137 q 614 71 629 95 q 569 28 599 47 q 496 -2 540 9 q 393 -14 452 -14 m 531 -175 q 483 -291 531 -249 q 348 -334 436 -334 q 323 -332 337 -334 q 295 -329 310 -331 q 267 -324 281 -327 q 241 -318 253 -321 l 241 -247 q 290 -256 265 -253 q 333 -258 315 -258 q 395 -237 373 -258 q 417 -180 417 -216 q 388 -119 417 -139 q 316 -95 359 -99 l 345 12 l 410 12 l 396 -47 q 497 -86 464 -53 q 531 -175 531 -120 "},"È":{"x_min":52.421875,"x_max":807,"ha":865,"o":"m 324 69 l 592 69 q 649 78 626 69 q 688 103 673 87 q 713 139 704 118 q 725 183 722 160 l 735 243 l 807 243 l 797 0 l 52 0 l 52 58 l 70 58 q 113 61 93 58 q 150 73 134 64 q 174 102 165 83 q 184 151 184 120 l 184 833 q 175 886 184 866 q 150 916 166 905 q 114 930 135 926 q 70 933 93 933 l 52 933 l 52 992 l 753 992 l 760 749 l 688 749 l 681 808 q 670 852 678 831 q 648 888 662 873 q 611 913 633 904 q 558 922 589 922 l 324 922 l 324 553 l 660 553 l 660 483 l 324 483 l 324 69 m 504 1071 l 451 1071 q 390 1118 423 1089 q 327 1175 358 1146 q 271 1233 297 1205 q 234 1278 246 1260 l 234 1293 l 382 1293 q 408 1242 393 1269 q 438 1187 422 1215 q 472 1134 455 1160 q 504 1089 489 1108 l 504 1071 "},"{":{"x_min":69,"x_max":525,"ha":595,"o":"m 433 -178 q 346 -163 384 -178 q 283 -123 309 -149 q 245 -61 258 -98 q 233 21 233 -24 l 233 263 q 220 333 233 305 q 185 377 207 361 q 133 401 163 394 q 69 410 103 408 l 69 469 q 133 477 103 470 q 185 500 163 483 q 220 544 207 517 q 233 614 233 572 l 233 856 q 283 1003 233 951 q 433 1055 334 1055 l 525 1055 l 525 996 l 483 996 q 395 959 421 996 q 369 849 369 922 l 369 612 q 331 498 369 544 q 214 440 292 453 l 214 439 q 332 381 294 425 q 369 267 369 336 l 369 26 q 395 -81 369 -44 q 483 -119 421 -119 l 525 -119 l 525 -178 l 433 -178 "},"X":{"x_min":11,"x_max":905,"ha":917,"o":"m 646 893 q 641 913 646 905 q 625 925 635 921 q 602 931 615 930 q 572 933 588 933 l 568 933 l 568 992 l 872 992 l 872 933 l 859 933 q 822 928 839 933 q 790 912 806 924 q 758 881 775 900 q 722 833 741 862 l 521 543 l 776 132 q 833 74 806 91 q 887 58 860 58 l 905 58 l 905 0 l 529 0 l 529 58 l 537 58 q 620 104 620 58 q 618 119 620 111 q 612 137 616 126 q 598 162 607 147 q 574 200 588 177 l 437 421 l 283 193 q 271 173 277 184 q 259 149 265 162 q 251 125 254 137 q 247 101 247 112 q 269 68 247 78 q 337 58 291 58 l 341 58 l 341 0 l 11 0 l 11 58 l 19 58 q 63 63 44 58 q 98 80 82 68 q 129 109 114 91 q 164 155 145 128 l 396 488 l 166 860 q 110 917 141 900 q 47 933 78 933 l 29 933 l 29 992 l 405 992 l 405 933 l 401 933 q 362 930 377 933 q 337 922 346 927 q 325 909 328 916 q 322 893 322 901 q 323 879 322 886 q 327 863 324 872 q 337 842 330 854 q 355 811 343 829 l 480 609 l 612 808 q 637 853 627 832 q 646 893 646 874 "},"ô":{"x_min":77,"x_max":725,"ha":802,"o":"m 725 373 q 641 81 725 177 q 398 -14 558 -14 q 264 9 323 -14 q 162 81 204 33 q 99 202 121 129 q 77 373 77 275 q 159 663 77 568 q 403 758 241 758 q 537 734 478 758 q 639 663 597 711 q 702 543 680 615 q 725 373 725 471 m 211 374 q 222 236 211 295 q 254 136 232 176 q 313 75 277 96 q 402 55 349 55 q 489 75 454 55 q 548 136 525 96 q 580 236 570 176 q 590 374 590 295 q 579 511 590 452 q 547 609 569 570 q 488 668 525 649 q 400 688 452 688 q 312 668 348 688 q 254 609 276 649 q 222 511 232 570 q 211 374 211 452 m 193 860 q 228 905 209 879 q 268 958 248 931 q 304 1013 287 986 q 332 1064 321 1040 l 463 1064 q 491 1013 474 1040 q 527 958 508 986 q 567 905 547 931 q 603 860 586 879 l 603 842 l 548 842 q 468 899 508 864 q 397 966 428 933 q 326 899 365 933 q 247 842 286 864 l 193 842 l 193 860 "},"¼":{"x_min":32.453125,"x_max":1133.921875,"ha":1167,"o":"m 40 399 l 40 454 l 105 454 q 127 456 117 454 q 145 463 137 457 q 157 478 153 468 q 162 505 162 488 l 162 890 l 32 890 l 32 946 l 102 946 q 135 948 117 946 q 169 956 153 950 q 198 972 185 962 q 217 999 211 982 l 286 999 l 286 498 q 291 470 286 481 q 304 454 296 460 q 322 447 311 449 q 345 445 332 445 l 408 445 l 408 399 l 40 399 m 384 0 l 292 0 l 788 992 l 879 992 l 384 0 m 1001 181 l 1001 107 q 1005 80 1001 90 q 1018 65 1010 70 q 1037 58 1026 59 q 1059 56 1047 56 l 1087 56 l 1087 1 l 780 1 l 780 56 l 819 56 q 840 58 830 56 q 858 65 851 59 q 871 80 866 70 q 876 107 876 90 l 876 181 l 630 181 l 630 218 l 889 601 l 1001 601 l 1001 237 l 1133 237 l 1133 181 l 1001 181 m 876 393 q 878 443 876 415 q 883 496 880 470 q 872 473 878 485 q 862 456 866 462 l 712 237 l 876 237 l 876 393 "},"#":{"x_min":56,"x_max":721,"ha":777,"o":"m 269 364 l 461 364 l 513 636 l 320 636 l 269 364 m 704 364 l 704 281 l 529 281 l 476 0 l 393 0 l 446 281 l 253 281 l 200 0 l 117 0 l 169 281 l 56 281 l 56 364 l 185 364 l 237 636 l 72 636 l 72 719 l 252 719 l 303 992 l 387 992 l 336 719 l 529 719 l 580 992 l 664 992 l 612 719 l 721 719 l 721 636 l 596 636 l 545 364 l 704 364 "},"Ê":{"x_min":52.421875,"x_max":807,"ha":865,"o":"m 324 69 l 592 69 q 649 78 626 69 q 688 103 673 87 q 713 139 704 118 q 725 183 722 160 l 735 243 l 807 243 l 797 0 l 52 0 l 52 58 l 70 58 q 113 61 93 58 q 150 73 134 64 q 174 102 165 83 q 184 151 184 120 l 184 833 q 175 886 184 866 q 150 916 166 905 q 114 930 135 926 q 70 933 93 933 l 52 933 l 52 992 l 753 992 l 760 749 l 688 749 l 681 808 q 670 852 678 831 q 648 888 662 873 q 611 913 633 904 q 558 922 589 922 l 324 922 l 324 553 l 660 553 l 660 483 l 324 483 l 324 69 m 237 1089 q 272 1134 253 1108 q 312 1187 292 1160 q 348 1242 331 1215 q 376 1293 365 1269 l 507 1293 q 535 1242 518 1269 q 571 1187 552 1215 q 611 1134 591 1160 q 647 1089 630 1108 l 647 1071 l 592 1071 q 512 1128 552 1093 q 441 1195 472 1162 q 370 1128 409 1162 q 291 1071 330 1093 l 237 1071 l 237 1089 "},")":{"x_min":45,"x_max":402,"ha":481,"o":"m 257 439 q 251 603 257 522 q 222 755 244 684 q 158 888 200 827 q 45 992 116 949 l 45 1055 q 208 963 140 1017 q 319 834 276 909 q 381 662 361 759 q 402 439 402 565 q 381 216 402 314 q 319 43 361 118 q 208 -85 276 -31 q 45 -178 140 -140 l 45 -114 q 158 -9 116 -70 q 222 123 200 51 q 251 276 244 195 q 257 439 257 357 "},"Å":{"x_min":0,"x_max":979,"ha":979,"o":"m 281 332 l 227 186 q 218 153 221 169 q 215 126 215 137 q 237 74 215 90 q 307 58 260 58 l 339 58 l 339 0 l 0 0 l 0 58 l 26 58 q 61 62 46 58 q 86 79 75 67 q 108 112 98 91 q 132 166 119 133 l 440 992 l 548 992 l 862 132 q 878 96 870 110 q 898 73 887 82 q 925 61 910 65 q 960 58 940 58 l 979 58 l 979 0 l 597 0 l 597 58 l 629 58 q 712 124 712 58 q 709 148 712 136 q 700 176 706 160 l 645 332 l 281 332 m 534 644 q 494 760 512 706 q 465 864 476 814 q 453 816 460 839 q 439 768 447 792 q 423 717 432 743 q 401 657 413 690 l 307 402 l 619 402 l 534 644 m 659 1075 q 646 1009 659 1037 q 610 962 633 981 q 557 933 587 943 q 492 924 526 924 q 426 933 457 924 q 373 962 396 943 q 337 1009 350 981 q 325 1075 325 1037 q 337 1140 325 1111 q 373 1187 350 1168 q 426 1216 396 1206 q 492 1226 457 1226 q 557 1216 526 1226 q 610 1187 587 1206 q 646 1140 633 1168 q 659 1075 659 1111 m 583 1075 q 576 1113 583 1097 q 556 1138 569 1129 q 527 1153 544 1148 q 492 1158 511 1158 q 456 1153 472 1158 q 427 1138 439 1148 q 407 1113 414 1129 q 400 1075 400 1097 q 407 1036 400 1052 q 427 1011 414 1020 q 456 996 439 1001 q 492 991 472 991 q 527 996 511 991 q 556 1011 544 1001 q 576 1036 569 1020 q 583 1075 583 1052 "},"ø":{"x_min":77,"x_max":725,"ha":802,"o":"m 630 671 q 700 550 676 625 q 725 373 725 476 q 641 81 725 177 q 398 -14 558 -14 q 308 -4 350 -14 q 232 24 266 5 l 182 -56 l 100 -56 l 175 66 q 102 190 127 114 q 77 373 77 266 q 159 663 77 568 q 403 758 241 758 q 496 747 453 758 q 575 715 539 736 l 628 800 l 708 800 l 630 671 m 211 374 q 218 258 211 309 q 239 167 225 206 l 526 638 q 400 688 480 688 q 312 668 348 688 q 254 609 276 649 q 222 511 232 570 q 211 374 211 452 m 590 374 q 565 569 590 495 l 280 100 q 332 66 301 78 q 402 55 362 55 q 489 75 454 55 q 548 136 525 96 q 580 236 570 176 q 590 374 590 295 "},"â":{"x_min":69,"x_max":722.203125,"ha":782,"o":"m 203 200 q 231 103 203 135 q 316 71 258 71 q 392 84 358 71 q 451 123 427 98 q 488 184 475 148 q 501 263 501 219 l 501 375 l 412 371 q 313 357 353 368 q 249 324 273 345 q 214 271 225 302 q 203 200 203 240 m 372 688 q 307 677 331 688 q 268 646 282 666 q 249 598 254 625 q 245 538 245 570 q 157 557 187 538 q 127 625 127 577 q 146 686 127 661 q 200 727 166 711 q 280 750 234 743 q 377 758 325 758 q 488 745 441 758 q 568 704 536 732 q 616 630 600 675 q 632 518 632 584 l 632 157 q 636 109 632 128 q 651 79 641 90 q 678 63 661 67 q 718 58 695 58 l 722 58 l 722 0 l 534 0 l 512 118 l 501 118 q 459 65 479 89 q 414 23 438 40 q 358 -4 389 5 q 284 -14 328 -14 q 198 0 238 -14 q 130 39 159 12 q 85 109 101 67 q 69 207 69 150 q 147 371 69 318 q 385 429 226 425 l 501 434 l 501 517 q 497 586 501 554 q 479 640 492 618 q 440 676 465 663 q 372 688 414 688 m 177 860 q 212 905 193 879 q 252 958 232 931 q 288 1013 271 986 q 316 1064 305 1040 l 447 1064 q 475 1013 458 1040 q 511 958 492 986 q 551 905 531 931 q 587 860 570 879 l 587 842 l 532 842 q 452 899 492 864 q 381 966 412 933 q 310 899 349 933 q 231 842 270 864 l 177 842 l 177 860 "},"}":{"x_min":69,"x_max":525,"ha":595,"o":"m 69 -119 l 110 -119 q 198 -81 172 -119 q 224 26 224 -44 l 224 267 q 261 381 224 336 q 378 439 298 425 l 378 440 q 263 498 301 453 q 224 612 224 544 l 224 849 q 198 959 224 922 q 110 996 172 996 l 69 996 l 69 1055 l 161 1055 q 310 1003 259 1055 q 361 856 361 951 l 361 614 q 373 544 361 572 q 408 500 386 517 q 460 477 430 483 q 525 469 490 470 l 525 410 q 460 401 490 408 q 408 377 430 394 q 373 333 386 361 q 361 263 361 305 l 361 21 q 348 -61 361 -24 q 310 -123 335 -98 q 247 -163 284 -149 q 161 -178 210 -178 l 69 -178 l 69 -119 "},"Ä":{"x_min":0,"x_max":979,"ha":979,"o":"m 281 332 l 227 186 q 218 153 221 169 q 215 126 215 137 q 237 74 215 90 q 307 58 260 58 l 339 58 l 339 0 l 0 0 l 0 58 l 26 58 q 61 62 46 58 q 86 79 75 67 q 108 112 98 91 q 132 166 119 133 l 440 992 l 548 992 l 862 132 q 878 96 870 110 q 898 73 887 82 q 925 61 910 65 q 960 58 940 58 l 979 58 l 979 0 l 597 0 l 597 58 l 629 58 q 712 124 712 58 q 709 148 712 136 q 700 176 706 160 l 645 332 l 281 332 m 534 644 q 494 760 512 706 q 465 864 476 814 q 453 816 460 839 q 439 768 447 792 q 423 717 432 743 q 401 657 413 690 l 307 402 l 619 402 l 534 644 m 288 1185 q 293 1221 288 1206 q 308 1245 298 1236 q 330 1258 317 1254 q 358 1263 343 1263 q 386 1258 373 1263 q 409 1245 399 1254 q 424 1221 418 1236 q 429 1185 429 1206 q 424 1149 429 1163 q 409 1124 418 1134 q 386 1111 399 1115 q 358 1107 373 1107 q 308 1124 328 1107 q 288 1185 288 1142 m 552 1185 q 557 1221 552 1206 q 572 1245 562 1236 q 594 1258 581 1254 q 622 1263 607 1263 q 650 1258 637 1263 q 673 1245 663 1254 q 688 1221 682 1236 q 693 1185 693 1206 q 688 1149 693 1163 q 673 1124 682 1134 q 650 1111 663 1115 q 622 1107 637 1107 q 572 1124 592 1107 q 552 1185 552 1142 "},"¸":{"x_min":83,"x_max":373,"ha":463,"o":"m 373 -175 q 325 -291 373 -249 q 190 -334 278 -334 q 165 -332 179 -334 q 137 -329 152 -331 q 109 -324 123 -327 q 83 -318 95 -321 l 83 -247 q 132 -256 107 -253 q 175 -258 157 -258 q 237 -237 215 -258 q 259 -180 259 -216 q 230 -119 259 -139 q 158 -95 201 -99 l 187 12 l 252 12 l 238 -47 q 339 -86 306 -53 q 373 -175 373 -120 "},"a":{"x_min":69,"x_max":722.203125,"ha":782,"o":"m 203 200 q 231 103 203 135 q 316 71 258 71 q 392 84 358 71 q 451 123 427 98 q 488 184 475 148 q 501 263 501 219 l 501 375 l 412 371 q 313 357 353 368 q 249 324 273 345 q 214 271 225 302 q 203 200 203 240 m 372 688 q 307 677 331 688 q 268 646 282 666 q 249 598 254 625 q 245 538 245 570 q 157 557 187 538 q 127 625 127 577 q 146 686 127 661 q 200 727 166 711 q 280 750 234 743 q 377 758 325 758 q 488 745 441 758 q 568 704 536 732 q 616 630 600 675 q 632 518 632 584 l 632 157 q 636 109 632 128 q 651 79 641 90 q 678 63 661 67 q 718 58 695 58 l 722 58 l 722 0 l 534 0 l 512 118 l 501 118 q 459 65 479 89 q 414 23 438 40 q 358 -4 389 5 q 284 -14 328 -14 q 198 0 238 -14 q 130 39 159 12 q 85 109 101 67 q 69 207 69 150 q 147 371 69 318 q 385 429 226 425 l 501 434 l 501 517 q 497 586 501 554 q 479 640 492 618 q 440 676 465 663 q 372 688 414 688 "},"=":{"x_min":90,"x_max":687,"ha":777,"o":"m 687 400 l 687 317 l 90 317 l 90 400 l 687 400 m 687 673 l 687 590 l 90 590 l 90 673 l 687 673 "},"N":{"x_min":52.421875,"x_max":1020.5625,"ha":1060,"o":"m 789 0 l 268 800 l 268 158 q 277 105 268 125 q 302 75 287 86 q 338 61 317 65 q 382 58 359 58 l 401 58 l 401 0 l 52 0 l 52 58 l 70 58 q 114 61 93 58 q 150 75 135 65 q 175 105 166 86 q 184 158 184 125 l 184 839 q 174 888 184 869 q 150 917 165 907 q 113 930 134 927 q 70 933 93 933 l 52 933 l 52 992 l 306 992 l 804 223 l 804 839 q 795 888 804 869 q 770 917 785 907 q 734 930 754 927 q 690 933 713 933 l 671 933 l 671 992 l 1020 992 l 1020 933 l 1002 933 q 958 930 979 933 q 922 916 937 926 q 897 886 906 905 q 889 833 889 866 l 889 0 l 789 0 "},"ú":{"x_min":31.984375,"x_max":850.015625,"ha":882,"o":"m 732 151 q 741 102 732 120 q 765 73 750 83 q 802 61 781 64 q 845 58 822 58 l 850 58 l 850 0 l 629 0 l 611 112 l 604 112 q 558 48 583 72 q 504 10 532 24 q 444 -8 475 -3 q 379 -14 413 -14 q 281 1 324 -14 q 209 50 238 17 q 165 135 180 83 q 150 258 150 186 l 150 591 q 140 640 150 622 q 116 669 131 659 q 79 683 100 679 q 36 686 59 686 l 31 686 l 31 745 l 280 745 l 280 264 q 288 184 280 219 q 311 124 295 148 q 356 87 328 99 q 426 74 384 74 q 505 91 472 74 q 559 136 538 107 q 590 207 580 166 q 601 299 601 249 l 601 586 q 591 638 601 618 q 567 669 582 658 q 531 683 552 679 q 487 686 510 686 l 483 686 l 483 745 l 732 745 l 732 151 m 367 860 q 399 905 382 879 q 431 958 415 931 q 462 1013 447 986 q 487 1064 476 1040 l 636 1064 l 636 1049 q 598 1004 623 1031 q 542 946 572 976 q 479 889 512 917 q 419 842 447 860 l 367 842 l 367 860 "},"2":{"x_min":71,"x_max":675,"ha":777,"o":"m 640 774 q 624 679 640 725 q 579 584 608 632 q 506 483 549 535 q 408 371 463 431 l 174 111 l 494 111 q 546 120 525 111 q 579 143 566 128 q 599 175 592 157 q 611 214 606 194 l 616 240 l 675 240 l 668 0 l 71 0 l 71 101 l 302 369 q 395 485 358 434 q 456 581 433 536 q 489 669 479 626 q 499 760 499 712 q 491 832 499 800 q 465 888 482 864 q 421 924 448 911 q 358 936 394 936 q 281 919 311 936 q 235 874 252 902 q 212 808 218 845 q 206 729 206 770 q 159 733 181 729 q 121 747 137 737 q 96 775 105 758 q 87 819 87 792 q 104 893 87 859 q 155 953 121 927 q 240 992 189 978 q 358 1006 291 1006 q 476 989 424 1006 q 564 942 528 972 q 620 869 601 912 q 640 774 640 826 "},"ü":{"x_min":31.984375,"x_max":850.015625,"ha":882,"o":"m 732 151 q 741 102 732 120 q 765 73 750 83 q 802 61 781 64 q 845 58 822 58 l 850 58 l 850 0 l 629 0 l 611 112 l 604 112 q 558 48 583 72 q 504 10 532 24 q 444 -8 475 -3 q 379 -14 413 -14 q 281 1 324 -14 q 209 50 238 17 q 165 135 180 83 q 150 258 150 186 l 150 591 q 140 640 150 622 q 116 669 131 659 q 79 683 100 679 q 36 686 59 686 l 31 686 l 31 745 l 280 745 l 280 264 q 288 184 280 219 q 311 124 295 148 q 356 87 328 99 q 426 74 384 74 q 505 91 472 74 q 559 136 538 107 q 590 207 580 166 q 601 299 601 249 l 601 586 q 591 638 601 618 q 567 669 582 658 q 531 683 552 679 q 487 686 510 686 l 483 686 l 483 745 l 732 745 l 732 151 m 236 956 q 241 992 236 977 q 256 1016 246 1007 q 278 1029 265 1025 q 306 1034 291 1034 q 334 1029 321 1034 q 357 1016 347 1025 q 372 992 366 1007 q 377 956 377 977 q 372 920 377 934 q 357 895 366 905 q 334 882 347 886 q 306 878 321 878 q 256 895 276 878 q 236 956 236 913 m 500 956 q 505 992 500 977 q 520 1016 510 1007 q 542 1029 529 1025 q 570 1034 555 1034 q 598 1029 585 1034 q 621 1016 611 1025 q 636 992 630 1007 q 641 956 641 977 q 636 920 641 934 q 621 895 630 905 q 598 882 611 886 q 570 878 585 878 q 520 895 540 878 q 500 956 500 913 "},"¯":{"x_min":-7,"x_max":645,"ha":638,"o":"m 645 1054 l -7 1054 l -7 1137 l 645 1137 l 645 1054 "},"Z":{"x_min":50,"x_max":764,"ha":822,"o":"m 742 935 l 219 69 l 569 69 q 622 78 601 69 q 656 103 643 87 q 675 139 669 118 q 685 183 682 160 l 692 243 l 764 243 l 757 0 l 50 0 l 50 55 l 571 922 l 268 922 q 217 913 238 922 q 183 888 196 904 q 164 852 170 873 q 154 808 157 831 l 147 749 l 76 749 l 82 992 l 742 992 l 742 935 "},"u":{"x_min":31.984375,"x_max":850.015625,"ha":882,"o":"m 732 151 q 741 102 732 120 q 765 73 750 83 q 802 61 781 64 q 845 58 822 58 l 850 58 l 850 0 l 629 0 l 611 112 l 604 112 q 558 48 583 72 q 504 10 532 24 q 444 -8 475 -3 q 379 -14 413 -14 q 281 1 324 -14 q 209 50 238 17 q 165 135 180 83 q 150 258 150 186 l 150 591 q 140 640 150 622 q 116 669 131 659 q 79 683 100 679 q 36 686 59 686 l 31 686 l 31 745 l 280 745 l 280 264 q 288 184 280 219 q 311 124 295 148 q 356 87 328 99 q 426 74 384 74 q 505 91 472 74 q 559 136 538 107 q 590 207 580 166 q 601 299 601 249 l 601 586 q 591 638 601 618 q 567 669 582 658 q 531 683 552 679 q 487 686 510 686 l 483 686 l 483 745 l 732 745 l 732 151 "},"Ó":{"x_min":78,"x_max":952,"ha":1031,"o":"m 952 496 q 923 287 952 382 q 839 126 895 193 q 702 22 783 59 q 515 -14 620 -14 q 322 22 405 -14 q 186 126 240 59 q 105 288 132 193 q 78 498 78 382 q 105 707 78 613 q 186 867 132 801 q 323 970 240 934 q 517 1007 406 1007 q 702 970 622 1007 q 839 867 783 934 q 923 706 895 800 q 952 496 952 612 m 231 497 q 247 312 231 393 q 296 175 262 231 q 384 90 330 119 q 515 60 438 60 q 647 90 593 60 q 734 175 700 119 q 783 312 768 231 q 798 497 798 393 q 783 681 798 600 q 734 818 768 762 q 647 903 700 874 q 517 932 594 932 q 385 903 439 932 q 296 818 331 874 q 247 681 262 762 q 231 497 231 600 m 440 1089 q 472 1134 455 1108 q 504 1187 488 1160 q 535 1242 520 1215 q 560 1293 549 1269 l 709 1293 l 709 1278 q 671 1233 696 1260 q 615 1175 645 1205 q 552 1118 585 1146 q 492 1071 520 1089 l 440 1071 l 440 1089 "},"k":{"x_min":25.203125,"x_max":814,"ha":813,"o":"m 470 447 l 656 172 q 727 87 691 116 q 809 58 763 58 l 814 58 l 814 0 l 794 0 q 694 3 733 0 q 627 21 655 7 q 575 62 599 35 q 522 135 551 88 l 383 352 l 280 276 l 280 151 q 290 102 280 120 q 314 73 299 83 q 351 61 330 64 q 394 58 371 58 l 398 58 l 398 0 l 25 0 l 25 58 l 36 58 q 80 61 59 58 q 116 75 101 65 q 140 105 131 86 q 150 158 150 125 l 150 902 q 140 951 150 932 q 116 980 131 970 q 79 993 100 990 q 36 996 59 996 l 25 996 l 25 1055 l 280 1055 l 280 519 q 280 471 280 500 q 278 413 279 441 q 275 344 276 380 l 449 534 q 486 578 471 559 q 509 612 500 597 q 521 637 518 626 q 525 658 525 648 q 508 681 525 676 q 457 686 491 686 l 457 745 l 764 745 l 764 686 q 669 652 715 686 q 568 557 622 618 l 470 447 "},"Ù":{"x_min":21.4375,"x_max":975.25,"ha":996,"o":"m 502 -14 q 355 3 420 -14 q 245 58 290 20 q 176 155 200 95 q 153 299 153 214 l 153 839 q 143 888 153 869 q 119 917 134 907 q 82 930 103 927 q 39 933 62 933 l 21 933 l 21 992 l 425 992 l 425 933 l 407 933 q 363 930 384 933 q 326 916 342 926 q 302 885 311 905 q 293 832 293 865 l 293 285 q 310 181 293 224 q 358 112 327 138 q 431 72 389 85 q 525 60 474 60 q 629 77 585 60 q 701 122 672 93 q 744 191 730 151 q 758 279 758 231 l 758 838 q 749 888 758 869 q 724 917 739 906 q 688 930 708 927 q 644 933 667 933 l 626 933 l 626 992 l 975 992 l 975 933 l 956 933 q 912 930 933 933 q 876 916 891 926 q 852 886 861 905 q 843 833 843 866 l 843 283 q 820 158 843 214 q 755 65 798 103 q 649 6 712 26 q 502 -14 585 -14 m 578 1071 l 525 1071 q 464 1118 497 1089 q 401 1175 432 1146 q 345 1233 371 1205 q 308 1278 320 1260 l 308 1293 l 456 1293 q 482 1242 467 1269 q 512 1187 496 1215 q 546 1134 529 1160 q 578 1089 563 1108 l 578 1071 "},"€":{"x_min":57.078125,"x_max":736,"ha":777,"o":"m 528 60 q 590 67 563 60 q 638 85 617 74 q 675 112 659 97 q 703 144 691 127 q 719 128 711 138 q 728 97 728 118 q 715 59 728 78 q 677 23 702 39 q 611 -3 651 7 q 518 -14 572 -14 q 393 6 453 -14 q 285 71 333 26 q 204 188 237 116 q 158 362 171 259 l 57 362 l 57 432 l 152 432 q 150 465 151 447 q 150 496 150 483 l 150 526 l 57 526 l 57 596 l 155 596 q 195 790 164 712 q 273 916 226 869 q 378 983 319 963 q 501 1003 436 1003 q 597 992 554 1003 q 671 962 640 981 q 719 918 702 944 q 736 861 736 892 q 705 794 736 813 q 615 774 674 774 q 608 836 615 807 q 587 887 601 865 q 548 921 572 908 q 490 933 524 933 q 422 918 455 933 q 363 863 389 902 q 318 759 336 824 q 293 596 299 694 l 581 596 l 581 526 l 290 526 l 290 494 q 290 462 290 480 q 291 432 290 444 l 526 432 l 526 362 l 297 362 q 325 232 305 289 q 375 138 345 176 q 443 80 404 99 q 528 60 481 60 "},"¢":{"x_min":110,"x_max":690,"ha":777,"o":"m 397 121 q 281 152 333 128 q 190 221 228 176 q 131 335 152 267 q 110 501 110 404 q 132 676 110 604 q 193 794 154 748 q 284 862 232 840 q 397 891 337 885 l 397 992 l 455 992 l 455 891 q 539 878 497 887 q 614 852 581 869 q 669 811 648 836 q 690 754 690 786 q 654 686 690 705 q 549 666 619 666 q 543 721 549 695 q 526 767 538 747 q 497 802 515 788 q 455 821 479 817 l 455 198 q 515 202 485 198 q 574 212 546 206 q 626 227 602 219 q 668 242 650 234 l 668 167 q 575 134 630 149 q 455 119 520 120 l 455 0 l 397 0 l 397 121 m 244 502 q 281 302 244 377 q 397 206 318 227 l 397 821 q 335 796 363 815 q 287 739 308 776 q 256 643 267 701 q 244 502 244 585 "},"ß":{"x_min":31.75,"x_max":838,"ha":899,"o":"m 601 52 q 685 83 652 52 q 718 178 718 114 q 713 221 718 201 q 693 259 708 241 q 652 296 678 277 q 583 334 625 314 q 506 377 540 356 q 451 424 473 398 q 418 482 429 450 q 407 559 407 515 q 420 636 407 601 q 462 695 434 671 q 534 734 491 720 q 636 747 577 747 q 626 862 636 814 q 596 941 617 910 q 542 987 575 972 q 462 1001 509 1001 q 389 988 420 1001 q 336 949 357 974 q 305 889 315 924 q 294 809 294 853 l 294 0 l 31 0 l 31 58 l 50 58 q 94 61 73 58 q 130 75 115 65 q 154 105 145 86 q 164 157 164 125 l 164 675 l 51 675 l 51 745 l 164 745 l 164 786 q 187 915 164 862 q 250 999 210 967 q 345 1045 290 1031 q 464 1060 400 1060 q 608 1035 551 1060 q 701 961 666 1010 q 751 842 736 913 q 767 679 766 771 l 665 679 q 556 651 591 679 q 522 567 522 623 q 529 528 522 546 q 552 495 535 511 q 597 464 569 479 q 666 428 625 448 q 752 378 719 404 q 804 322 785 351 q 830 263 823 293 q 838 201 838 232 q 821 108 838 148 q 775 40 805 67 q 701 0 745 13 q 603 -14 658 -14 q 514 -4 554 -14 q 445 22 474 4 q 401 69 417 41 q 386 133 386 96 q 394 179 386 161 q 414 209 402 198 q 440 224 426 220 q 465 229 454 229 q 472 160 465 192 q 495 104 479 128 q 537 66 511 80 q 601 52 563 52 "},"é":{"x_min":77,"x_max":673,"ha":743,"o":"m 384 678 q 264 617 306 678 q 214 438 222 556 l 538 438 q 529 536 538 491 q 503 612 521 580 q 456 661 485 644 q 384 678 427 678 m 398 -14 q 263 11 323 -14 q 162 85 203 36 q 98 205 120 134 q 77 366 77 276 q 156 659 77 561 q 384 758 236 758 q 505 736 451 758 q 595 673 558 715 q 653 568 633 631 q 673 423 673 505 l 673 358 l 211 358 q 227 230 213 284 q 266 142 241 176 q 330 91 292 107 q 417 74 368 74 q 484 82 453 74 q 540 104 515 90 q 584 134 565 117 q 615 170 603 151 q 633 153 625 165 q 642 122 642 140 q 627 77 642 101 q 581 33 612 53 q 505 0 551 13 q 398 -14 459 -14 m 321 860 q 353 905 336 879 q 385 958 369 931 q 416 1013 401 986 q 441 1064 430 1040 l 590 1064 l 590 1049 q 552 1004 577 1031 q 496 946 526 976 q 433 889 466 917 q 373 842 401 860 l 321 842 l 321 860 "},"s":{"x_min":62,"x_max":566,"ha":627,"o":"m 291 -14 q 196 -4 239 -14 q 124 22 154 4 q 78 69 94 41 q 62 133 62 96 q 71 179 62 161 q 93 209 80 198 q 122 224 106 220 q 149 229 137 229 q 156 160 149 192 q 180 104 163 128 q 223 66 196 80 q 290 52 251 52 q 352 61 325 52 q 397 87 379 70 q 425 127 415 104 q 435 178 435 150 q 427 223 435 204 q 401 258 420 241 q 351 291 383 274 q 272 330 320 308 q 183 375 221 353 q 121 423 145 397 q 84 482 96 449 q 72 560 72 515 q 90 645 72 608 q 143 706 109 681 q 226 744 178 731 q 334 757 274 757 q 421 746 383 757 q 485 719 459 736 q 524 678 511 702 q 537 629 537 655 q 510 568 537 591 q 436 546 484 546 q 409 658 436 618 q 325 698 383 698 q 269 690 292 698 q 231 665 246 681 q 209 628 216 650 q 202 581 202 607 q 211 536 202 555 q 240 500 220 516 q 291 468 260 484 q 367 434 323 453 q 456 389 419 411 q 518 340 494 366 q 554 280 542 313 q 566 203 566 247 q 546 108 566 149 q 490 40 526 68 q 404 0 454 13 q 291 -14 353 -14 "},"B":{"x_min":52.421875,"x_max":823,"ha":908,"o":"m 782 743 q 768 661 782 696 q 732 599 755 626 q 677 555 709 573 q 609 524 646 537 l 609 519 q 696 491 656 511 q 763 440 735 471 q 807 365 791 408 q 823 267 823 322 q 734 66 823 133 q 466 0 646 0 l 52 0 l 52 58 l 70 58 q 114 61 93 58 q 150 75 135 65 q 175 105 166 86 q 184 158 184 125 l 184 839 q 174 888 184 869 q 150 917 165 907 q 113 930 134 927 q 70 933 93 933 l 52 933 l 52 992 l 424 992 q 693 931 605 992 q 782 743 782 871 m 324 69 l 457 69 q 555 80 515 69 q 620 114 595 90 q 657 177 646 139 q 669 271 669 216 q 659 366 669 326 q 624 432 649 406 q 560 471 600 459 q 459 484 520 484 l 324 484 l 324 69 m 324 554 l 419 554 q 519 564 479 554 q 583 598 559 575 q 617 657 607 621 q 628 743 628 693 q 616 828 628 794 q 580 884 605 863 q 514 914 554 905 q 415 922 473 922 l 324 922 l 324 554 "},"?":{"x_min":60,"x_max":624,"ha":695,"o":"m 327 279 l 269 279 l 269 489 q 373 546 331 514 q 441 616 416 578 q 478 695 467 654 q 489 777 489 736 q 480 842 489 813 q 452 893 471 872 q 404 925 433 913 q 334 936 375 936 q 260 922 290 936 q 212 883 230 908 q 185 827 193 859 q 177 759 177 795 q 130 764 151 759 q 93 781 108 770 q 68 810 77 793 q 60 849 60 826 q 75 911 60 882 q 122 960 90 939 q 203 994 154 982 q 319 1006 252 1006 q 440 989 385 1006 q 537 939 496 972 q 600 860 577 907 q 624 754 624 813 q 604 650 624 697 q 546 564 584 603 q 453 494 508 526 q 327 435 398 462 l 327 279 m 223 84 q 229 129 223 111 q 248 158 236 147 q 276 174 260 169 q 310 179 292 179 q 344 174 328 179 q 371 158 360 169 q 390 129 383 147 q 398 84 398 111 q 390 39 398 57 q 371 10 383 21 q 344 -5 360 0 q 310 -10 328 -10 q 276 -5 292 -10 q 248 10 260 0 q 229 39 236 21 q 223 84 223 57 "},"H":{"x_min":52.421875,"x_max":1048.578125,"ha":1101,"o":"m 644 0 l 644 58 l 662 58 q 707 61 686 58 q 743 75 727 65 q 767 105 758 86 q 776 158 776 125 l 776 483 l 324 483 l 324 158 q 333 105 324 125 q 357 75 342 86 q 394 61 373 65 q 438 58 415 58 l 456 58 l 456 0 l 52 0 l 52 58 l 70 58 q 114 61 93 58 q 150 75 135 65 q 175 105 166 86 q 184 158 184 125 l 184 839 q 174 888 184 869 q 150 917 165 907 q 113 930 134 927 q 70 933 93 933 l 52 933 l 52 992 l 456 992 l 456 933 l 438 933 q 394 930 415 933 q 357 916 373 926 q 333 886 342 905 q 324 833 324 866 l 324 553 l 776 553 l 776 833 q 767 886 776 866 q 743 916 758 905 q 707 930 727 926 q 662 933 686 933 l 644 933 l 644 992 l 1048 992 l 1048 933 l 1030 933 q 986 930 1007 933 q 950 916 965 926 q 925 886 934 905 q 917 833 917 866 l 917 151 q 926 102 917 120 q 950 73 935 83 q 987 61 966 64 q 1030 58 1007 58 l 1048 58 l 1048 0 l 644 0 "},"î":{"x_min":16,"x_max":427.15625,"ha":444,"o":"m 50 58 q 93 61 73 58 q 130 73 114 64 q 154 102 145 83 q 164 151 164 120 l 164 591 q 154 640 164 622 q 130 669 145 659 q 93 683 114 679 q 50 686 73 686 l 46 686 l 46 745 l 294 745 l 294 158 q 304 105 294 125 q 328 75 313 86 q 364 61 343 65 q 408 58 385 58 l 427 58 l 427 0 l 31 0 l 31 58 l 50 58 m 16 860 q 51 905 32 879 q 91 958 71 931 q 127 1013 110 986 q 155 1064 144 1040 l 286 1064 q 314 1013 297 1040 q 350 958 331 986 q 390 905 370 931 q 426 860 409 879 l 426 842 l 371 842 q 291 899 331 864 q 220 966 251 933 q 149 899 188 933 q 70 842 109 864 l 16 842 l 16 860 "},"c":{"x_min":77,"x_max":629,"ha":684,"o":"m 393 -14 q 265 7 324 -14 q 165 74 207 28 q 100 193 123 121 q 77 367 77 265 q 100 554 77 479 q 165 674 123 629 q 263 739 207 720 q 386 758 320 758 q 472 749 429 758 q 550 723 515 741 q 606 679 584 705 q 628 616 628 652 q 596 548 628 568 q 503 529 565 529 q 498 590 503 561 q 479 641 493 619 q 444 676 466 663 q 386 688 421 688 q 314 673 346 688 q 259 622 282 658 q 224 523 236 585 q 211 368 211 461 q 260 147 211 220 q 421 74 309 74 q 533 102 485 74 q 605 173 581 129 q 622 151 615 164 q 629 118 629 137 q 614 71 629 95 q 569 28 599 47 q 496 -2 540 9 q 393 -14 452 -14 "},"¶":{"x_min":56,"x_max":800.25,"ha":857,"o":"m 583 985 l 451 985 l 451 -154 l 234 -154 l 234 -95 l 253 -95 q 297 -92 276 -95 q 333 -78 318 -88 q 357 -48 348 -67 q 367 3 367 -28 l 367 536 l 268 536 q 166 558 207 536 q 101 617 125 580 q 66 704 77 655 q 56 808 56 753 q 67 909 56 863 q 104 987 79 954 q 171 1037 130 1019 q 270 1055 211 1055 l 800 1055 l 800 996 l 781 996 q 737 993 758 996 q 701 979 716 989 q 677 949 686 968 q 668 897 668 929 l 668 4 q 677 -48 668 -28 q 701 -78 686 -67 q 737 -92 716 -88 q 781 -95 758 -95 l 800 -95 l 800 -154 l 583 -154 l 583 985 "},"¥":{"x_min":7,"x_max":770,"ha":777,"o":"m 179 0 l 179 58 l 211 58 q 254 61 234 58 q 290 73 274 64 q 314 101 305 82 q 325 149 323 119 l 325 241 l 131 241 l 131 311 l 325 311 l 325 404 l 131 404 l 131 474 l 298 474 l 110 860 q 91 894 99 880 q 71 917 82 908 q 45 929 59 926 q 11 933 31 933 l 7 933 l 7 992 l 347 992 l 347 933 l 337 933 q 276 920 295 933 q 257 879 257 907 q 263 842 257 863 q 280 798 268 821 l 347 650 q 367 603 357 628 q 385 554 376 578 q 400 508 393 529 q 411 474 407 487 q 420 496 414 481 q 434 527 426 510 q 450 563 441 545 q 465 595 458 581 l 544 764 q 568 831 560 800 q 577 878 577 862 q 557 920 577 906 q 492 933 538 933 l 488 933 l 488 992 l 770 992 l 770 933 l 757 933 q 727 928 740 933 q 703 911 714 924 q 681 878 692 899 q 654 825 669 857 l 487 474 l 660 474 l 660 404 l 465 404 l 465 311 l 660 311 l 660 241 l 465 241 l 465 156 q 474 104 465 124 q 498 75 483 85 q 534 61 514 64 q 579 58 555 58 l 611 58 l 611 0 l 179 0 "},"Ὅ":{"x_min":-275,"x_max":952,"ha":1031,"o":"m 952 496 q 923 287 952 382 q 839 126 895 193 q 702 22 783 59 q 515 -14 620 -14 q 322 22 405 -14 q 186 126 240 59 q 105 288 132 193 q 78 498 78 382 q 105 707 78 613 q 186 867 132 801 q 323 970 240 934 q 517 1007 406 1007 q 702 970 622 1007 q 839 867 783 934 q 923 706 895 800 q 952 496 952 612 m 231 497 q 247 312 231 393 q 296 175 262 231 q 384 90 330 119 q 515 60 438 60 q 647 90 593 60 q 734 175 700 119 q 783 312 768 231 q 798 497 798 393 q 783 681 798 600 q 734 818 768 762 q 647 903 700 874 q 517 932 594 932 q 385 903 439 932 q 296 818 331 874 q 247 681 262 762 q 231 497 231 600 m -275 851 q -234 942 -275 904 q -110 1003 -193 981 l -110 960 q -170 930 -151 946 q -190 889 -190 914 q -179 870 -190 876 q -156 858 -169 864 q -133 844 -144 853 q -123 816 -123 835 q -139 778 -123 791 q -188 765 -156 765 q -251 788 -228 765 q -275 851 -275 812 m -51 787 q -34 832 -42 806 q -17 885 -25 857 q -3 940 -9 913 q 6 991 2 968 l 131 991 l 131 977 q 111 933 126 960 q 77 876 97 906 q 35 817 56 846 q -4 770 13 789 l -51 770 l -51 787 "},"(":{"x_min":79,"x_max":436,"ha":481,"o":"m 223 439 q 229 276 223 357 q 258 123 236 195 q 322 -9 279 51 q 436 -114 364 -70 l 436 -178 q 272 -85 340 -140 q 161 43 204 -31 q 98 216 118 118 q 79 439 79 314 q 98 662 79 565 q 161 834 118 759 q 272 963 204 909 q 436 1055 340 1017 l 436 992 q 322 888 364 949 q 258 755 279 827 q 229 603 236 684 q 223 439 223 522 "},"U":{"x_min":21.4375,"x_max":975.25,"ha":996,"o":"m 502 -14 q 355 3 420 -14 q 245 58 290 20 q 176 155 200 95 q 153 299 153 214 l 153 839 q 143 888 153 869 q 119 917 134 907 q 82 930 103 927 q 39 933 62 933 l 21 933 l 21 992 l 425 992 l 425 933 l 407 933 q 363 930 384 933 q 326 916 342 926 q 302 885 311 905 q 293 832 293 865 l 293 285 q 310 181 293 224 q 358 112 327 138 q 431 72 389 85 q 525 60 474 60 q 629 77 585 60 q 701 122 672 93 q 744 191 730 151 q 758 279 758 231 l 758 838 q 749 888 758 869 q 724 917 739 906 q 688 930 708 927 q 644 933 667 933 l 626 933 l 626 992 l 975 992 l 975 933 l 956 933 q 912 930 933 933 q 876 916 891 926 q 852 886 861 905 q 843 833 843 866 l 843 283 q 820 158 843 214 q 755 65 798 103 q 649 6 712 26 q 502 -14 585 -14 "},"◊":{"x_min":41,"x_max":720,"ha":761,"o":"m 408 0 l 352 0 l 41 494 l 352 992 l 408 992 l 720 496 l 408 0 m 381 888 l 141 496 l 381 99 l 619 496 l 381 888 "},"Ñ":{"x_min":52.421875,"x_max":1020.5625,"ha":1060,"o":"m 789 0 l 268 800 l 268 158 q 277 105 268 125 q 302 75 287 86 q 338 61 317 65 q 382 58 359 58 l 401 58 l 401 0 l 52 0 l 52 58 l 70 58 q 114 61 93 58 q 150 75 135 65 q 175 105 166 86 q 184 158 184 125 l 184 839 q 174 888 184 869 q 150 917 165 907 q 113 930 134 927 q 70 933 93 933 l 52 933 l 52 992 l 306 992 l 804 223 l 804 839 q 795 888 804 869 q 770 917 785 907 q 734 930 754 927 q 690 933 713 933 l 671 933 l 671 992 l 1020 992 l 1020 933 l 1002 933 q 958 930 979 933 q 922 916 937 926 q 897 886 906 905 q 889 833 889 866 l 889 0 l 789 0 m 663 1161 q 696 1167 684 1161 q 716 1183 709 1173 q 726 1207 723 1194 q 731 1235 729 1220 l 794 1235 q 782 1173 791 1203 q 756 1121 773 1144 q 712 1084 738 1098 q 648 1071 685 1071 q 580 1084 611 1071 q 524 1114 550 1098 q 475 1145 498 1131 q 430 1158 453 1158 q 397 1152 409 1158 q 378 1136 385 1146 q 367 1112 371 1126 q 362 1085 364 1099 l 300 1085 q 311 1146 302 1116 q 338 1198 320 1175 q 383 1235 356 1221 q 447 1249 409 1249 q 514 1235 484 1249 q 570 1205 544 1221 q 619 1174 596 1188 q 663 1161 642 1161 "},"F":{"x_min":52.421875,"x_max":759,"ha":819,"o":"m 324 922 l 324 521 l 659 521 l 659 451 l 324 451 l 324 157 q 333 105 324 125 q 357 75 342 86 q 394 61 373 65 q 438 58 415 58 l 484 58 l 484 0 l 52 0 l 52 58 l 70 58 q 113 61 93 58 q 150 73 134 64 q 174 102 165 83 q 184 151 184 120 l 184 839 q 174 888 184 869 q 150 917 165 907 q 113 930 134 927 q 70 933 93 933 l 52 933 l 52 992 l 752 992 l 759 749 l 687 749 l 680 808 q 669 853 677 832 q 646 889 661 873 q 607 913 630 904 q 552 922 584 922 l 324 922 "},"­":{"x_min":35,"x_max":396,"ha":431,"o":"m 35 326 l 35 431 l 396 431 l 396 326 l 35 326 "},":":{"x_min":113,"x_max":288,"ha":399,"o":"m 113 84 q 119 129 113 111 q 138 158 126 147 q 166 174 150 169 q 200 179 182 179 q 234 174 218 179 q 261 158 250 169 q 280 129 273 147 q 288 84 288 111 q 280 39 288 57 q 261 10 273 21 q 234 -5 250 0 q 200 -10 218 -10 q 166 -5 182 -10 q 138 10 150 0 q 119 39 126 21 q 113 84 113 57 m 113 656 q 119 701 113 683 q 138 730 126 719 q 166 746 150 741 q 200 751 182 751 q 234 746 218 751 q 261 730 250 741 q 280 701 273 719 q 288 656 288 683 q 280 612 288 630 q 261 582 273 593 q 234 566 250 571 q 200 562 218 562 q 166 566 182 562 q 138 582 150 571 q 119 612 126 593 q 113 656 113 630 "},"Û":{"x_min":21.4375,"x_max":975.25,"ha":996,"o":"m 502 -14 q 355 3 420 -14 q 245 58 290 20 q 176 155 200 95 q 153 299 153 214 l 153 839 q 143 888 153 869 q 119 917 134 907 q 82 930 103 927 q 39 933 62 933 l 21 933 l 21 992 l 425 992 l 425 933 l 407 933 q 363 930 384 933 q 326 916 342 926 q 302 885 311 905 q 293 832 293 865 l 293 285 q 310 181 293 224 q 358 112 327 138 q 431 72 389 85 q 525 60 474 60 q 629 77 585 60 q 701 122 672 93 q 744 191 730 151 q 758 279 758 231 l 758 838 q 749 888 758 869 q 724 917 739 906 q 688 930 708 927 q 644 933 667 933 l 626 933 l 626 992 l 975 992 l 975 933 l 956 933 q 912 930 933 933 q 876 916 891 926 q 852 886 861 905 q 843 833 843 866 l 843 283 q 820 158 843 214 q 755 65 798 103 q 649 6 712 26 q 502 -14 585 -14 m 319 1089 q 354 1134 335 1108 q 394 1187 374 1160 q 430 1242 413 1215 q 458 1293 447 1269 l 589 1293 q 617 1242 600 1269 q 653 1187 634 1215 q 693 1134 673 1160 q 729 1089 712 1108 l 729 1071 l 674 1071 q 594 1128 634 1093 q 523 1195 554 1162 q 452 1128 491 1162 q 373 1071 412 1093 l 319 1071 l 319 1089 "},"*":{"x_min":57,"x_max":629,"ha":695,"o":"m 57 859 l 105 969 l 319 834 l 283 1055 l 404 1055 l 365 836 l 580 966 l 629 858 l 394 790 l 629 722 l 580 615 l 365 744 l 404 525 l 283 525 l 317 744 l 105 612 l 57 720 l 290 790 l 57 859 "},"°":{"x_min":66,"x_max":487,"ha":555,"o":"m 66 780 q 82 863 66 824 q 127 930 99 901 q 194 975 156 958 q 276 992 232 992 q 358 975 320 992 q 425 930 396 958 q 470 863 453 901 q 487 780 487 824 q 470 698 487 737 q 425 632 453 660 q 358 587 396 603 q 276 571 320 571 q 194 587 232 571 q 127 632 156 603 q 82 698 99 660 q 66 780 66 737 m 148 780 q 157 731 148 755 q 185 690 167 708 q 226 663 202 673 q 276 653 249 653 q 326 663 303 653 q 367 690 350 673 q 395 731 385 708 q 404 780 404 755 q 395 831 404 808 q 367 872 385 854 q 326 899 350 889 q 276 909 303 909 q 226 899 249 909 q 185 872 202 889 q 157 831 167 854 q 148 780 148 808 "},"V":{"x_min":0,"x_max":937,"ha":937,"o":"m 416 0 l 116 860 q 100 896 109 882 q 80 918 91 910 q 53 930 68 926 q 18 933 38 933 l 0 933 l 0 992 l 381 992 l 381 933 l 349 933 q 287 917 307 933 q 266 867 266 901 q 269 843 266 855 q 278 815 272 831 l 430 364 q 466 244 451 302 q 492 136 481 186 q 518 242 503 186 q 556 364 533 299 l 709 806 q 718 838 715 823 q 722 865 722 854 q 699 917 722 901 q 630 933 676 933 l 598 933 l 598 992 l 937 992 l 937 933 l 910 933 q 875 929 890 933 q 849 913 861 925 q 827 880 837 901 q 805 825 816 859 l 518 0 l 416 0 "},"å":{"x_min":69,"x_max":722.203125,"ha":782,"o":"m 203 200 q 231 103 203 135 q 316 71 258 71 q 392 84 358 71 q 451 123 427 98 q 488 184 475 148 q 501 263 501 219 l 501 375 l 412 371 q 313 357 353 368 q 249 324 273 345 q 214 271 225 302 q 203 200 203 240 m 372 688 q 307 677 331 688 q 268 646 282 666 q 249 598 254 625 q 245 538 245 570 q 157 557 187 538 q 127 625 127 577 q 146 686 127 661 q 200 727 166 711 q 280 750 234 743 q 377 758 325 758 q 488 745 441 758 q 568 704 536 732 q 616 630 600 675 q 632 518 632 584 l 632 157 q 636 109 632 128 q 651 79 641 90 q 678 63 661 67 q 718 58 695 58 l 722 58 l 722 0 l 534 0 l 512 118 l 501 118 q 459 65 479 89 q 414 23 438 40 q 358 -4 389 5 q 284 -14 328 -14 q 198 0 238 -14 q 130 39 159 12 q 85 109 101 67 q 69 207 69 150 q 147 371 69 318 q 385 429 226 425 l 501 434 l 501 517 q 497 586 501 554 q 479 640 492 618 q 440 676 465 663 q 372 688 414 688 m 556 979 q 543 913 556 941 q 507 866 530 885 q 454 837 484 847 q 389 828 423 828 q 323 837 354 828 q 270 866 293 847 q 234 913 247 885 q 222 979 222 941 q 234 1044 222 1015 q 270 1091 247 1072 q 323 1120 293 1110 q 389 1130 354 1130 q 454 1120 423 1130 q 507 1091 484 1110 q 543 1044 530 1072 q 556 979 556 1015 m 480 979 q 473 1017 480 1001 q 453 1042 466 1033 q 424 1057 441 1052 q 389 1062 408 1062 q 353 1057 369 1062 q 324 1042 336 1052 q 304 1017 311 1033 q 297 979 297 1001 q 304 940 297 956 q 324 915 311 924 q 353 900 336 905 q 389 895 369 895 q 424 900 408 895 q 453 915 441 905 q 473 940 466 924 q 480 979 480 956 "}," ":{"x_min":0,"x_max":0,"ha":361},"0":{"x_min":62,"x_max":715,"ha":777,"o":"m 715 497 q 694 288 715 382 q 634 126 674 193 q 532 22 593 59 q 388 -14 471 -14 q 241 22 303 -14 q 139 126 179 59 q 81 288 100 193 q 62 498 62 383 q 81 707 62 613 q 139 867 100 801 q 241 970 179 934 q 390 1006 303 1006 q 532 970 471 1006 q 634 867 593 934 q 694 707 674 801 q 715 497 715 613 m 206 497 q 215 313 206 394 q 246 177 225 233 q 303 92 268 121 q 388 62 338 62 q 474 92 439 62 q 530 177 509 121 q 561 313 552 233 q 570 497 570 394 q 561 680 570 600 q 530 816 552 761 q 474 900 509 871 q 390 929 440 929 q 304 900 339 929 q 247 816 269 871 q 215 680 225 761 q 206 497 206 600 "},"¾":{"x_min":56,"x_max":1133.921875,"ha":1167,"o":"m 241 389 q 103 416 150 389 q 56 495 56 444 q 73 544 56 525 q 119 563 90 563 q 126 520 119 542 q 148 482 134 499 q 185 455 163 465 q 238 444 207 444 q 329 473 296 444 q 362 568 362 502 q 326 647 362 618 q 214 677 291 677 l 168 677 l 168 733 l 213 733 q 262 741 240 733 q 302 766 285 750 q 328 804 319 781 q 338 854 338 826 q 319 925 338 901 q 258 950 301 950 q 214 940 232 950 q 186 914 196 930 q 171 875 175 897 q 167 829 167 853 q 124 832 143 829 q 91 841 104 834 q 71 859 78 847 q 64 889 64 871 q 76 935 64 914 q 113 972 89 957 q 174 997 138 988 q 258 1006 210 1006 q 341 996 304 1006 q 406 969 379 986 q 448 925 433 951 q 463 867 463 899 q 451 812 463 836 q 420 769 440 787 q 375 737 401 750 q 321 716 350 724 l 321 709 q 378 696 349 704 q 431 672 407 687 q 471 632 455 656 q 487 569 487 607 q 464 484 487 519 q 405 429 441 450 q 326 398 369 407 q 241 389 283 389 m 412 0 l 320 0 l 816 992 l 907 992 l 412 0 m 1001 181 l 1001 107 q 1005 80 1001 90 q 1018 65 1010 70 q 1037 58 1026 59 q 1059 56 1047 56 l 1087 56 l 1087 1 l 780 1 l 780 56 l 819 56 q 840 58 830 56 q 858 65 851 59 q 871 80 866 70 q 876 107 876 90 l 876 181 l 630 181 l 630 218 l 889 601 l 1001 601 l 1001 237 l 1133 237 l 1133 181 l 1001 181 m 876 393 q 878 443 876 415 q 883 496 880 470 q 872 473 878 485 q 862 456 866 462 l 712 237 l 876 237 l 876 393 "},"@":{"x_min":90,"x_max":1206,"ha":1279,"o":"m 1206 544 q 1181 363 1206 444 q 1117 225 1157 282 q 1029 137 1078 168 q 933 107 981 107 q 830 140 871 107 q 769 232 789 173 l 762 232 q 729 182 747 205 q 689 142 711 159 q 638 116 666 125 q 574 107 610 107 q 494 121 532 107 q 427 164 456 135 q 381 238 398 193 q 364 343 364 282 q 372 424 364 381 q 398 510 380 467 q 445 593 416 553 q 512 664 473 634 q 603 714 551 695 q 717 733 654 733 q 794 720 762 733 q 848 691 827 708 l 903 721 l 937 721 l 866 357 q 861 323 864 340 q 858 292 859 309 q 856 261 856 276 q 864 218 856 236 q 882 187 871 199 q 909 169 894 175 q 941 163 924 163 q 1004 188 972 163 q 1062 261 1036 213 q 1104 379 1087 309 q 1121 539 1121 449 q 1092 703 1121 632 q 1010 822 1062 774 q 886 894 959 870 q 727 919 814 919 q 594 900 659 919 q 470 844 528 881 q 362 754 412 807 q 276 633 312 701 q 220 482 240 565 q 199 305 199 400 q 233 108 199 189 q 322 -25 266 26 q 454 -100 379 -77 q 613 -124 529 -124 q 721 -114 670 -124 q 816 -88 772 -104 q 898 -51 861 -72 q 966 -9 936 -30 l 998 -59 q 921 -109 964 -85 q 828 -153 878 -134 q 721 -185 779 -173 q 600 -197 664 -197 q 394 -166 488 -197 q 233 -72 300 -135 q 127 83 165 -10 q 90 302 90 176 q 111 490 90 401 q 173 656 132 579 q 270 794 213 732 q 400 900 328 857 q 556 968 471 944 q 735 992 640 992 q 940 957 852 992 q 1087 862 1028 922 q 1176 720 1146 802 q 1206 544 1206 639 m 492 312 q 522 200 492 237 q 598 163 551 163 q 659 179 633 163 q 703 220 685 195 q 731 277 720 245 q 748 342 742 309 l 801 633 q 770 664 792 653 q 723 676 748 676 q 648 657 682 676 q 589 608 614 639 q 545 540 564 578 q 515 460 527 501 q 498 381 503 420 q 492 312 492 343 "},"ö":{"x_min":77,"x_max":725,"ha":802,"o":"m 725 373 q 641 81 725 177 q 398 -14 558 -14 q 264 9 323 -14 q 162 81 204 33 q 99 202 121 129 q 77 373 77 275 q 159 663 77 568 q 403 758 241 758 q 537 734 478 758 q 639 663 597 711 q 702 543 680 615 q 725 373 725 471 m 211 374 q 222 236 211 295 q 254 136 232 176 q 313 75 277 96 q 402 55 349 55 q 489 75 454 55 q 548 136 525 96 q 580 236 570 176 q 590 374 590 295 q 579 511 590 452 q 547 609 569 570 q 488 668 525 649 q 400 688 452 688 q 312 668 348 688 q 254 609 276 649 q 222 511 232 570 q 211 374 211 452 m 193 956 q 198 992 193 977 q 213 1016 203 1007 q 235 1029 222 1025 q 263 1034 248 1034 q 291 1029 278 1034 q 314 1016 304 1025 q 329 992 323 1007 q 334 956 334 977 q 329 920 334 934 q 314 895 323 905 q 291 882 304 886 q 263 878 278 878 q 213 895 233 878 q 193 956 193 913 m 457 956 q 462 992 457 977 q 477 1016 467 1007 q 499 1029 486 1025 q 527 1034 512 1034 q 555 1029 542 1034 q 578 1016 568 1025 q 593 992 587 1007 q 598 956 598 977 q 593 920 598 934 q 578 895 587 905 q 555 882 568 886 q 527 878 542 878 q 477 895 497 878 q 457 956 457 913 "},"i":{"x_min":31.75,"x_max":427.15625,"ha":444,"o":"m 50 58 q 93 61 73 58 q 130 73 114 64 q 154 102 145 83 q 164 151 164 120 l 164 591 q 154 640 164 622 q 130 669 145 659 q 93 683 114 679 q 50 686 73 686 l 46 686 l 46 745 l 294 745 l 294 158 q 304 105 294 125 q 328 75 313 86 q 364 61 343 65 q 408 58 385 58 l 427 58 l 427 0 l 31 0 l 31 58 l 50 58 m 144 969 q 150 1010 144 993 q 167 1036 156 1026 q 192 1050 177 1046 q 223 1055 206 1055 q 253 1050 239 1055 q 278 1036 268 1046 q 295 1010 289 1026 q 302 969 302 993 q 295 928 302 944 q 278 902 289 912 q 253 887 268 891 q 223 883 239 883 q 192 887 206 883 q 167 902 177 891 q 150 928 156 912 q 144 969 144 944 "},"Õ":{"x_min":78,"x_max":952,"ha":1031,"o":"m 952 496 q 923 287 952 382 q 839 126 895 193 q 702 22 783 59 q 515 -14 620 -14 q 322 22 405 -14 q 186 126 240 59 q 105 288 132 193 q 78 498 78 382 q 105 707 78 613 q 186 867 132 801 q 323 970 240 934 q 517 1007 406 1007 q 702 970 622 1007 q 839 867 783 934 q 923 706 895 800 q 952 496 952 612 m 231 497 q 247 312 231 393 q 296 175 262 231 q 384 90 330 119 q 515 60 438 60 q 647 90 593 60 q 734 175 700 119 q 783 312 768 231 q 798 497 798 393 q 783 681 798 600 q 734 818 768 762 q 647 903 700 874 q 517 932 594 932 q 385 903 439 932 q 296 818 331 874 q 247 681 262 762 q 231 497 231 600 m 622 1161 q 655 1167 643 1161 q 675 1183 668 1173 q 685 1207 682 1194 q 690 1235 688 1220 l 753 1235 q 741 1173 750 1203 q 715 1121 732 1144 q 671 1084 697 1098 q 607 1071 644 1071 q 539 1084 570 1071 q 483 1114 509 1098 q 434 1145 457 1131 q 389 1158 412 1158 q 356 1152 368 1158 q 337 1136 344 1146 q 326 1112 330 1126 q 321 1085 323 1099 l 259 1085 q 270 1146 261 1116 q 297 1198 279 1175 q 342 1235 315 1221 q 406 1249 368 1249 q 473 1235 443 1249 q 529 1205 503 1221 q 578 1174 555 1188 q 622 1161 601 1161 "},"þ":{"x_min":25.203125,"x_max":777,"ha":853,"o":"m 469 669 q 378 651 415 669 q 320 596 342 633 q 290 504 299 559 q 280 373 280 448 q 290 245 280 300 q 321 151 299 189 q 379 94 343 113 q 470 74 415 74 q 549 94 516 74 q 602 151 581 113 q 632 245 623 189 q 642 374 642 301 q 601 595 642 522 q 469 669 561 669 m 777 373 q 758 199 777 272 q 703 78 739 126 q 614 8 667 31 q 493 -14 561 -14 q 420 -5 453 -14 q 361 19 388 3 q 315 58 335 36 q 280 108 295 80 l 275 108 q 278 40 276 72 q 279 13 278 27 q 279 -11 279 0 q 280 -33 280 -24 q 280 -49 280 -43 l 280 -182 q 290 -231 280 -212 q 314 -259 299 -249 q 351 -272 330 -269 q 394 -275 371 -275 l 398 -275 l 398 -334 l 25 -334 l 25 -275 l 36 -275 q 80 -272 59 -275 q 116 -258 101 -268 q 140 -227 131 -247 q 150 -175 150 -207 l 150 902 q 140 951 150 932 q 116 980 131 970 q 79 993 100 990 q 36 996 59 996 l 25 996 l 25 1055 l 280 1055 l 280 800 q 280 745 280 776 q 278 686 279 714 q 275 618 276 653 l 280 618 q 316 676 296 650 q 361 720 335 702 q 420 748 387 738 q 493 758 452 758 q 614 735 561 758 q 703 665 667 712 q 758 545 739 618 q 777 373 777 473 "},"]":{"x_min":51,"x_max":361,"ha":500,"o":"m 51 -178 l 51 -119 l 110 -119 q 155 -115 134 -119 q 191 -101 175 -112 q 215 -71 206 -91 q 224 -19 224 -51 l 224 896 q 215 948 224 928 q 191 978 206 968 q 155 992 175 989 q 110 996 134 996 l 51 996 l 51 1055 l 361 1055 l 361 -178 l 51 -178 "},"m":{"x_min":38.53125,"x_max":1273.234375,"ha":1312,"o":"m 412 58 l 412 0 l 38 0 l 38 58 l 56 58 q 100 61 80 58 q 134 75 119 65 q 156 105 148 86 q 164 158 164 125 l 164 591 q 155 640 164 622 q 133 669 147 659 q 99 683 119 679 q 56 686 79 686 l 52 686 l 52 745 l 270 745 l 289 631 l 295 631 q 339 695 316 670 q 389 733 362 720 q 443 752 415 747 q 505 758 472 758 q 569 751 539 758 q 626 729 600 744 q 673 690 652 714 q 706 631 693 666 l 718 631 q 763 695 739 670 q 815 733 787 720 q 873 752 842 747 q 935 758 903 758 q 1030 742 988 758 q 1101 693 1072 726 q 1146 608 1130 660 q 1162 486 1162 557 l 1162 157 q 1170 105 1162 125 q 1192 75 1178 86 q 1226 61 1206 65 q 1269 58 1246 58 l 1273 58 l 1273 0 l 1031 0 l 1031 479 q 1023 560 1031 524 q 998 619 1015 595 q 953 656 981 644 q 885 669 925 669 q 813 652 842 669 q 765 607 783 635 q 739 541 747 578 q 731 462 731 504 l 731 157 q 740 105 731 125 q 762 75 748 86 q 796 61 776 65 q 839 58 816 58 l 843 58 l 843 0 l 601 0 l 601 479 q 593 560 601 524 q 568 619 585 595 q 523 656 551 644 q 455 669 495 669 q 379 650 410 669 q 330 601 348 632 q 303 529 311 570 q 294 444 294 488 l 294 151 q 304 102 294 120 q 328 73 313 83 q 365 61 344 64 q 408 58 385 58 l 412 58 "},"8":{"x_min":64,"x_max":713,"ha":777,"o":"m 64 250 q 79 338 64 300 q 124 406 95 376 q 191 459 152 435 q 275 505 230 483 q 203 553 236 527 q 146 610 169 579 q 109 678 122 641 q 96 758 96 715 q 112 850 96 806 q 165 929 129 895 q 259 985 201 964 q 396 1006 316 1006 q 512 988 461 1006 q 598 938 563 970 q 651 863 633 906 q 670 767 670 819 q 656 688 670 722 q 618 626 642 653 q 559 577 593 599 q 482 534 524 555 q 576 481 534 509 q 649 421 618 453 q 696 350 679 388 q 713 266 713 311 q 689 147 713 200 q 622 59 665 95 q 517 4 578 23 q 379 -14 455 -14 q 242 6 301 -14 q 143 62 183 26 q 84 146 104 98 q 64 250 64 194 m 386 55 q 468 69 431 55 q 531 107 505 82 q 571 165 557 131 q 586 238 586 198 q 573 303 586 273 q 531 361 560 333 q 455 416 502 389 q 342 472 409 443 q 237 381 276 437 q 198 246 198 325 q 210 168 198 203 q 246 108 222 133 q 304 69 269 82 q 386 55 340 55 m 546 769 q 538 830 546 800 q 510 884 529 860 q 462 922 492 908 q 387 936 431 936 q 318 924 349 936 q 268 890 288 912 q 237 838 247 868 q 226 773 226 808 q 238 706 226 736 q 274 653 250 677 q 332 608 297 629 q 414 566 367 587 q 478 605 453 585 q 519 650 504 626 q 540 703 534 674 q 546 769 546 733 "},"R":{"x_min":52.421875,"x_max":920,"ha":911,"o":"m 770 168 q 838 85 805 113 q 915 58 871 58 l 920 58 l 920 0 l 900 0 q 793 4 835 0 q 722 22 751 9 q 672 60 693 36 q 628 123 651 84 l 439 433 l 324 433 l 324 150 q 333 101 324 120 q 358 73 342 83 q 394 61 373 64 q 438 58 415 58 l 456 58 l 456 0 l 52 0 l 52 58 l 70 58 q 113 61 93 58 q 150 73 134 64 q 174 102 165 83 q 184 151 184 120 l 184 839 q 174 888 184 869 q 150 917 165 907 q 113 930 134 927 q 70 933 93 933 l 52 933 l 52 992 l 426 992 q 695 924 607 992 q 784 722 784 857 q 765 624 784 666 q 718 551 747 582 q 652 500 689 520 q 579 467 616 479 l 770 168 m 324 503 l 420 503 q 521 516 480 503 q 585 556 561 529 q 619 624 609 583 q 630 718 630 664 q 618 812 630 773 q 581 875 607 851 q 516 911 556 900 q 417 922 475 922 l 324 922 l 324 503 "},"á":{"x_min":69,"x_max":722.203125,"ha":782,"o":"m 203 200 q 231 103 203 135 q 316 71 258 71 q 392 84 358 71 q 451 123 427 98 q 488 184 475 148 q 501 263 501 219 l 501 375 l 412 371 q 313 357 353 368 q 249 324 273 345 q 214 271 225 302 q 203 200 203 240 m 372 688 q 307 677 331 688 q 268 646 282 666 q 249 598 254 625 q 245 538 245 570 q 157 557 187 538 q 127 625 127 577 q 146 686 127 661 q 200 727 166 711 q 280 750 234 743 q 377 758 325 758 q 488 745 441 758 q 568 704 536 732 q 616 630 600 675 q 632 518 632 584 l 632 157 q 636 109 632 128 q 651 79 641 90 q 678 63 661 67 q 718 58 695 58 l 722 58 l 722 0 l 534 0 l 512 118 l 501 118 q 459 65 479 89 q 414 23 438 40 q 358 -4 389 5 q 284 -14 328 -14 q 198 0 238 -14 q 130 39 159 12 q 85 109 101 67 q 69 207 69 150 q 147 371 69 318 q 385 429 226 425 l 501 434 l 501 517 q 497 586 501 554 q 479 640 492 618 q 440 676 465 663 q 372 688 414 688 m 320 860 q 352 905 335 879 q 384 958 368 931 q 415 1013 400 986 q 440 1064 429 1040 l 589 1064 l 589 1049 q 551 1004 576 1031 q 495 946 525 976 q 432 889 465 917 q 372 842 400 860 l 320 842 l 320 860 "},"×":{"x_min":98.578125,"x_max":676.421875,"ha":777,"o":"m 387 438 l 156 208 l 98 267 l 329 498 l 98 727 l 156 786 l 387 555 l 618 787 l 676 727 l 445 497 l 676 266 l 618 208 l 387 438 "},"o":{"x_min":77,"x_max":725,"ha":802,"o":"m 725 373 q 641 81 725 177 q 398 -14 558 -14 q 264 9 323 -14 q 162 81 204 33 q 99 202 121 129 q 77 373 77 275 q 159 663 77 568 q 403 758 241 758 q 537 734 478 758 q 639 663 597 711 q 702 543 680 615 q 725 373 725 471 m 211 374 q 222 236 211 295 q 254 136 232 176 q 313 75 277 96 q 402 55 349 55 q 489 75 454 55 q 548 136 525 96 q 580 236 570 176 q 590 374 590 295 q 579 511 590 452 q 547 609 569 570 q 488 668 525 649 q 400 688 452 688 q 312 668 348 688 q 254 609 276 649 q 222 511 232 570 q 211 374 211 452 "},"5":{"x_min":77,"x_max":675,"ha":777,"o":"m 331 62 q 410 74 374 62 q 473 114 447 86 q 515 187 500 141 q 530 298 530 232 q 515 395 530 354 q 472 463 500 436 q 406 504 445 490 q 319 517 367 517 q 257 514 283 517 q 211 507 231 511 q 176 497 191 503 q 149 486 162 492 l 116 496 l 160 990 l 624 990 l 631 780 l 572 780 l 567 821 q 561 847 565 836 q 549 864 557 857 q 527 875 541 871 q 492 878 513 878 l 223 878 l 196 571 q 257 586 217 579 q 358 594 296 594 q 483 575 425 594 q 584 520 541 557 q 650 429 626 484 q 675 301 675 374 q 652 172 675 230 q 586 72 629 114 q 481 8 543 31 q 339 -14 418 -14 q 211 -1 262 -14 q 131 32 161 12 q 89 76 101 52 q 77 123 77 100 q 98 182 77 161 q 164 204 119 204 q 174 148 164 173 q 206 103 185 122 q 258 73 226 84 q 331 62 289 62 "},"õ":{"x_min":77,"x_max":725,"ha":802,"o":"m 725 373 q 641 81 725 177 q 398 -14 558 -14 q 264 9 323 -14 q 162 81 204 33 q 99 202 121 129 q 77 373 77 275 q 159 663 77 568 q 403 758 241 758 q 537 734 478 758 q 639 663 597 711 q 702 543 680 615 q 725 373 725 471 m 211 374 q 222 236 211 295 q 254 136 232 176 q 313 75 277 96 q 402 55 349 55 q 489 75 454 55 q 548 136 525 96 q 580 236 570 176 q 590 374 590 295 q 579 511 590 452 q 547 609 569 570 q 488 668 525 649 q 400 688 452 688 q 312 668 348 688 q 254 609 276 649 q 222 511 232 570 q 211 374 211 452 m 513 932 q 546 938 534 932 q 566 954 559 944 q 576 978 573 965 q 581 1006 579 991 l 644 1006 q 632 944 641 974 q 606 892 623 915 q 562 855 588 869 q 498 842 535 842 q 430 855 461 842 q 374 885 400 869 q 325 916 348 902 q 280 929 303 929 q 247 923 259 929 q 228 907 235 917 q 217 883 221 897 q 212 856 214 870 l 150 856 q 161 917 152 887 q 188 969 170 946 q 233 1006 206 992 q 297 1020 259 1020 q 364 1006 334 1020 q 420 976 394 992 q 469 945 446 959 q 513 932 492 932 "},"7":{"x_min":82,"x_max":711,"ha":777,"o":"m 264 0 l 592 878 l 226 878 q 145 808 151 878 l 140 739 l 82 739 l 88 990 l 711 990 l 711 949 l 368 0 l 264 0 "},"K":{"x_min":52.421875,"x_max":989,"ha":973,"o":"m 612 771 q 649 817 634 797 q 673 853 664 837 q 685 882 681 869 q 689 904 689 894 q 672 928 689 922 q 620 935 655 935 l 620 992 l 928 992 l 928 935 q 882 925 904 935 q 838 900 860 916 q 792 859 815 883 q 741 804 769 835 l 540 578 l 833 169 q 910 86 873 114 q 986 58 947 58 l 989 58 l 989 0 l 974 0 q 859 5 904 0 q 783 25 814 10 q 730 63 753 39 q 682 124 707 87 l 442 468 l 324 372 l 324 158 q 333 105 324 125 q 357 75 342 86 q 394 61 373 65 q 438 58 415 58 l 456 58 l 456 0 l 52 0 l 52 58 l 70 58 q 113 61 93 58 q 150 73 134 64 q 174 102 165 83 q 184 151 184 120 l 184 839 q 174 888 184 869 q 150 917 165 907 q 113 930 134 927 q 70 933 93 933 l 52 933 l 52 992 l 456 992 l 456 933 l 438 933 q 394 930 415 933 q 357 916 373 926 q 333 886 342 905 q 324 833 324 866 l 324 441 l 612 771 "},",":{"x_min":41,"x_max":269,"ha":347,"o":"m 269 58 q 256 -27 269 14 q 217 -104 244 -68 q 146 -167 189 -139 q 41 -214 103 -195 l 41 -155 q 141 -102 109 -133 q 173 -30 173 -71 q 165 -7 173 -17 q 147 8 158 1 q 122 22 135 15 q 98 38 109 29 q 79 61 86 48 q 72 96 72 75 q 98 157 72 136 q 162 179 124 179 q 203 171 184 179 q 237 148 222 163 q 260 110 252 132 q 269 58 269 87 "},"d":{"x_min":77,"x_max":828.46875,"ha":853,"o":"m 703 152 q 712 103 703 122 q 736 74 721 84 q 773 61 752 64 q 816 58 793 58 l 828 58 l 828 0 l 592 0 l 577 124 l 572 124 q 536 67 556 92 q 490 23 516 41 q 432 -4 465 5 q 359 -14 400 -14 q 238 8 291 -14 q 149 78 185 31 q 95 198 113 125 q 77 370 77 270 q 95 544 77 471 q 149 665 113 617 q 238 735 185 712 q 359 758 291 758 q 431 749 399 758 q 490 724 464 740 q 536 685 516 707 q 572 635 557 663 l 580 635 q 576 699 578 669 q 573 750 574 725 q 572 788 572 776 l 572 902 q 562 951 572 932 q 538 980 553 970 q 501 993 522 990 q 458 996 481 996 l 446 996 l 446 1055 l 703 1055 l 703 152 m 383 74 q 473 92 437 74 q 531 147 509 110 q 562 239 553 184 q 572 370 572 295 q 562 498 572 443 q 531 592 553 554 q 473 649 509 629 q 382 669 436 669 q 304 649 336 669 q 251 591 272 629 q 221 497 230 553 q 211 369 211 441 q 251 148 211 221 q 383 74 291 74 "},"¨":{"x_min":197,"x_max":602.75,"ha":802,"o":"m 197 956 q 202 992 197 977 q 217 1016 207 1007 q 239 1029 226 1025 q 267 1034 252 1034 q 295 1029 282 1034 q 318 1016 308 1025 q 333 992 327 1007 q 338 956 338 977 q 333 920 338 934 q 318 895 327 905 q 295 882 308 886 q 267 878 282 878 q 217 895 237 878 q 197 956 197 913 m 461 956 q 466 992 461 977 q 481 1016 471 1007 q 503 1029 490 1025 q 531 1034 516 1034 q 559 1029 546 1034 q 582 1016 572 1025 q 597 992 591 1007 q 602 956 602 977 q 597 920 602 934 q 582 895 591 905 q 559 882 572 886 q 531 878 546 878 q 481 895 501 878 q 461 956 461 913 "},"Ô":{"x_min":78,"x_max":952,"ha":1031,"o":"m 952 496 q 923 287 952 382 q 839 126 895 193 q 702 22 783 59 q 515 -14 620 -14 q 322 22 405 -14 q 186 126 240 59 q 105 288 132 193 q 78 498 78 382 q 105 707 78 613 q 186 867 132 801 q 323 970 240 934 q 517 1007 406 1007 q 702 970 622 1007 q 839 867 783 934 q 923 706 895 800 q 952 496 952 612 m 231 497 q 247 312 231 393 q 296 175 262 231 q 384 90 330 119 q 515 60 438 60 q 647 90 593 60 q 734 175 700 119 q 783 312 768 231 q 798 497 798 393 q 783 681 798 600 q 734 818 768 762 q 647 903 700 874 q 517 932 594 932 q 385 903 439 932 q 296 818 331 874 q 247 681 262 762 q 231 497 231 600 m 312 1089 q 347 1134 328 1108 q 387 1187 367 1160 q 423 1242 406 1215 q 451 1293 440 1269 l 582 1293 q 610 1242 593 1269 q 646 1187 627 1215 q 686 1134 666 1160 q 722 1089 705 1108 l 722 1071 l 667 1071 q 587 1128 627 1093 q 516 1195 547 1162 q 445 1128 484 1162 q 366 1071 405 1093 l 312 1071 l 312 1089 "},"E":{"x_min":52.421875,"x_max":807,"ha":865,"o":"m 324 69 l 592 69 q 649 78 626 69 q 688 103 673 87 q 713 139 704 118 q 725 183 722 160 l 735 243 l 807 243 l 797 0 l 52 0 l 52 58 l 70 58 q 113 61 93 58 q 150 73 134 64 q 174 102 165 83 q 184 151 184 120 l 184 833 q 175 886 184 866 q 150 916 166 905 q 114 930 135 926 q 70 933 93 933 l 52 933 l 52 992 l 753 992 l 760 749 l 688 749 l 681 808 q 670 852 678 831 q 648 888 662 873 q 611 913 633 904 q 558 922 589 922 l 324 922 l 324 553 l 660 553 l 660 483 l 324 483 l 324 69 "},"Y":{"x_min":-7,"x_max":872,"ha":868,"o":"m 221 0 l 221 58 l 253 58 q 296 61 276 58 q 333 73 317 64 q 357 102 348 83 q 367 151 367 120 l 367 413 l 109 860 q 87 893 98 880 q 66 916 77 907 q 41 929 55 925 q 10 933 28 933 l -7 933 l -7 992 l 374 992 l 374 933 l 323 933 q 292 930 304 933 q 273 920 280 926 q 264 906 267 914 q 262 889 262 898 q 270 850 262 869 q 287 815 279 830 l 389 629 q 431 545 414 586 q 459 470 448 503 q 475 504 466 485 q 495 543 484 522 q 518 585 506 563 q 543 629 531 607 l 631 789 q 651 834 645 812 q 657 872 657 855 q 635 918 657 903 q 573 933 613 933 l 532 933 l 532 992 l 872 992 l 872 933 l 855 933 q 827 928 840 933 q 800 910 814 923 q 772 877 787 898 q 740 825 758 857 l 507 413 l 507 158 q 516 105 507 125 q 540 75 525 86 q 576 61 556 65 q 620 58 597 58 l 653 58 l 653 0 l 221 0 "},"\"":{"x_min":82.53125,"x_max":485.46875,"ha":567,"o":"m 341 992 l 485 992 l 444 666 l 381 666 l 341 992 m 82 992 l 227 992 l 185 666 l 123 666 l 82 992 "},"ê":{"x_min":77,"x_max":673,"ha":743,"o":"m 384 678 q 264 617 306 678 q 214 438 222 556 l 538 438 q 529 536 538 491 q 503 612 521 580 q 456 661 485 644 q 384 678 427 678 m 398 -14 q 263 11 323 -14 q 162 85 203 36 q 98 205 120 134 q 77 366 77 276 q 156 659 77 561 q 384 758 236 758 q 505 736 451 758 q 595 673 558 715 q 653 568 633 631 q 673 423 673 505 l 673 358 l 211 358 q 227 230 213 284 q 266 142 241 176 q 330 91 292 107 q 417 74 368 74 q 484 82 453 74 q 540 104 515 90 q 584 134 565 117 q 615 170 603 151 q 633 153 625 165 q 642 122 642 140 q 627 77 642 101 q 581 33 612 53 q 505 0 551 13 q 398 -14 459 -14 m 173 860 q 208 905 189 879 q 248 958 228 931 q 284 1013 267 986 q 312 1064 301 1040 l 443 1064 q 471 1013 454 1040 q 507 958 488 986 q 547 905 527 931 q 583 860 566 879 l 583 842 l 528 842 q 448 899 488 864 q 377 966 408 933 q 306 899 345 933 q 227 842 266 864 l 173 842 l 173 860 "},"Ï":{"x_min":49,"x_max":456.640625,"ha":510,"o":"m 52 0 l 52 58 l 70 58 q 114 61 93 58 q 150 75 135 65 q 175 105 166 86 q 184 158 184 125 l 184 833 q 175 886 184 866 q 150 916 166 905 q 114 930 135 926 q 70 933 93 933 l 52 933 l 52 992 l 456 992 l 456 933 l 438 933 q 394 930 415 933 q 357 916 373 926 q 333 886 342 905 q 324 833 324 866 l 324 158 q 333 105 324 125 q 357 75 342 86 q 394 61 373 65 q 438 58 415 58 l 456 58 l 456 0 l 52 0 m 49 1185 q 54 1221 49 1206 q 69 1245 59 1236 q 91 1258 78 1254 q 119 1263 104 1263 q 147 1258 134 1263 q 170 1245 160 1254 q 185 1221 179 1236 q 190 1185 190 1206 q 185 1149 190 1163 q 170 1124 179 1134 q 147 1111 160 1115 q 119 1107 134 1107 q 69 1124 89 1107 q 49 1185 49 1142 m 313 1185 q 318 1221 313 1206 q 333 1245 323 1236 q 355 1258 342 1254 q 383 1263 368 1263 q 411 1258 398 1263 q 434 1245 424 1254 q 449 1221 443 1236 q 454 1185 454 1206 q 449 1149 454 1163 q 434 1124 443 1134 q 411 1111 424 1115 q 383 1107 398 1107 q 333 1124 353 1107 q 313 1185 313 1142 "},"Â":{"x_min":0,"x_max":979,"ha":979,"o":"m 281 332 l 227 186 q 218 153 221 169 q 215 126 215 137 q 237 74 215 90 q 307 58 260 58 l 339 58 l 339 0 l 0 0 l 0 58 l 26 58 q 61 62 46 58 q 86 79 75 67 q 108 112 98 91 q 132 166 119 133 l 440 992 l 548 992 l 862 132 q 878 96 870 110 q 898 73 887 82 q 925 61 910 65 q 960 58 940 58 l 979 58 l 979 0 l 597 0 l 597 58 l 629 58 q 712 124 712 58 q 709 148 712 136 q 700 176 706 160 l 645 332 l 281 332 m 534 644 q 494 760 512 706 q 465 864 476 814 q 453 816 460 839 q 439 768 447 792 q 423 717 432 743 q 401 657 413 690 l 307 402 l 619 402 l 534 644 m 286 1089 q 321 1134 302 1108 q 361 1187 341 1160 q 397 1242 380 1215 q 425 1293 414 1269 l 556 1293 q 584 1242 567 1269 q 620 1187 601 1215 q 660 1134 640 1160 q 696 1089 679 1108 l 696 1071 l 641 1071 q 561 1128 601 1093 q 490 1195 521 1162 q 419 1128 458 1162 q 340 1071 379 1093 l 286 1071 l 286 1089 "},"Í":{"x_min":52.421875,"x_max":456.640625,"ha":510,"o":"m 52 0 l 52 58 l 70 58 q 114 61 93 58 q 150 75 135 65 q 175 105 166 86 q 184 158 184 125 l 184 833 q 175 886 184 866 q 150 916 166 905 q 114 930 135 926 q 70 933 93 933 l 52 933 l 52 992 l 456 992 l 456 933 l 438 933 q 394 930 415 933 q 357 916 373 926 q 333 886 342 905 q 324 833 324 866 l 324 158 q 333 105 324 125 q 357 75 342 86 q 394 61 373 65 q 438 58 415 58 l 456 58 l 456 0 l 52 0 m 183 1089 q 215 1134 198 1108 q 247 1187 231 1160 q 278 1242 263 1215 q 303 1293 292 1269 l 452 1293 l 452 1278 q 414 1233 439 1260 q 358 1175 388 1205 q 295 1118 328 1146 q 235 1071 263 1089 l 183 1071 l 183 1089 "},"´":{"x_min":265,"x_max":534,"ha":802,"o":"m 265 860 q 297 905 280 879 q 329 958 313 931 q 360 1013 345 986 q 385 1064 374 1040 l 534 1064 l 534 1049 q 496 1004 521 1031 q 440 946 470 976 q 377 889 410 917 q 317 842 345 860 l 265 842 l 265 860 "},"ì":{"x_min":26,"x_max":427.15625,"ha":444,"o":"m 50 58 q 93 61 73 58 q 130 73 114 64 q 154 102 145 83 q 164 151 164 120 l 164 591 q 154 640 164 622 q 130 669 145 659 q 93 683 114 679 q 50 686 73 686 l 46 686 l 46 745 l 294 745 l 294 158 q 304 105 294 125 q 328 75 313 86 q 364 61 343 65 q 408 58 385 58 l 427 58 l 427 0 l 31 0 l 31 58 l 50 58 m 296 842 l 243 842 q 182 889 215 860 q 119 946 150 917 q 63 1004 89 976 q 26 1049 38 1031 l 26 1064 l 174 1064 q 200 1013 185 1040 q 230 958 214 986 q 264 905 247 931 q 296 860 281 879 l 296 842 "},"±":{"x_min":90,"x_max":685,"ha":777,"o":"m 428 455 l 428 199 l 346 199 l 346 455 l 90 455 l 90 538 l 346 538 l 346 794 l 428 794 l 428 538 l 685 538 l 685 455 l 428 455 m 685 0 l 90 0 l 90 82 l 685 82 l 685 0 "},"Ú":{"x_min":21.4375,"x_max":975.25,"ha":996,"o":"m 502 -14 q 355 3 420 -14 q 245 58 290 20 q 176 155 200 95 q 153 299 153 214 l 153 839 q 143 888 153 869 q 119 917 134 907 q 82 930 103 927 q 39 933 62 933 l 21 933 l 21 992 l 425 992 l 425 933 l 407 933 q 363 930 384 933 q 326 916 342 926 q 302 885 311 905 q 293 832 293 865 l 293 285 q 310 181 293 224 q 358 112 327 138 q 431 72 389 85 q 525 60 474 60 q 629 77 585 60 q 701 122 672 93 q 744 191 730 151 q 758 279 758 231 l 758 838 q 749 888 758 869 q 724 917 739 906 q 688 930 708 927 q 644 933 667 933 l 626 933 l 626 992 l 975 992 l 975 933 l 956 933 q 912 930 933 933 q 876 916 891 926 q 852 886 861 905 q 843 833 843 866 l 843 283 q 820 158 843 214 q 755 65 798 103 q 649 6 712 26 q 502 -14 585 -14 m 441 1089 q 473 1134 456 1108 q 505 1187 489 1160 q 536 1242 521 1215 q 561 1293 550 1269 l 710 1293 l 710 1278 q 672 1233 697 1260 q 616 1175 646 1205 q 553 1118 586 1146 q 493 1071 521 1089 l 441 1071 l 441 1089 "},"|":{"x_min":346,"x_max":428.0625,"ha":777,"o":"m 428 -334 l 346 -334 l 346 1055 l 428 1055 l 428 -334 "},"§":{"x_min":109,"x_max":685,"ha":756,"o":"m 405 539 q 312 585 355 562 q 232 637 268 608 q 207 604 217 623 q 197 558 197 585 q 207 508 197 530 q 239 464 216 486 q 301 421 262 443 q 400 369 340 398 q 482 327 442 348 q 556 276 523 305 q 575 312 568 292 q 583 355 583 332 q 576 400 583 379 q 550 442 569 421 q 496 487 531 464 q 405 539 461 511 m 387 -88 q 514 -51 472 -88 q 556 48 556 -14 q 549 102 556 79 q 516 147 541 124 q 442 197 490 170 q 312 265 394 225 q 219 320 257 292 q 155 379 180 348 q 120 446 131 410 q 109 523 109 482 q 132 614 109 575 q 191 678 155 653 q 152 746 165 709 q 140 834 140 784 q 159 928 140 887 q 212 997 178 969 q 293 1040 246 1025 q 395 1055 340 1055 q 494 1043 452 1055 q 565 1010 537 1031 q 607 961 593 989 q 621 899 621 932 q 594 834 621 854 q 522 814 567 814 q 515 877 522 847 q 493 932 509 908 q 451 971 477 956 q 389 985 426 985 q 282 951 320 985 q 243 850 243 916 q 257 789 243 814 q 298 744 271 764 q 366 705 326 724 q 458 661 406 686 q 560 604 517 632 q 630 544 603 575 q 671 479 658 513 q 685 404 685 444 q 677 354 685 379 q 659 306 670 329 q 632 264 647 284 q 601 227 617 244 q 632 166 620 200 q 644 90 644 132 q 628 -10 644 35 q 581 -88 613 -55 q 498 -139 549 -121 q 377 -158 448 -158 q 280 -147 324 -158 q 205 -115 237 -136 q 157 -65 174 -95 q 141 4 141 -35 q 150 51 141 32 q 172 81 159 69 q 201 96 185 92 q 228 101 216 101 q 237 30 228 64 q 266 -30 246 -4 q 315 -72 285 -56 q 387 -88 345 -88 "},"Ý":{"x_min":-7,"x_max":872,"ha":868,"o":"m 221 0 l 221 58 l 253 58 q 296 61 276 58 q 333 73 317 64 q 357 102 348 83 q 367 151 367 120 l 367 413 l 109 860 q 87 893 98 880 q 66 916 77 907 q 41 929 55 925 q 10 933 28 933 l -7 933 l -7 992 l 374 992 l 374 933 l 323 933 q 292 930 304 933 q 273 920 280 926 q 264 906 267 914 q 262 889 262 898 q 270 850 262 869 q 287 815 279 830 l 389 629 q 431 545 414 586 q 459 470 448 503 q 475 504 466 485 q 495 543 484 522 q 518 585 506 563 q 543 629 531 607 l 631 789 q 651 834 645 812 q 657 872 657 855 q 635 918 657 903 q 573 933 613 933 l 532 933 l 532 992 l 872 992 l 872 933 l 855 933 q 827 928 840 933 q 800 910 814 923 q 772 877 787 898 q 740 825 758 857 l 507 413 l 507 158 q 516 105 507 125 q 540 75 525 86 q 576 61 556 65 q 620 58 597 58 l 653 58 l 653 0 l 221 0 m 384 1089 q 416 1134 399 1108 q 448 1187 432 1160 q 479 1242 464 1215 q 504 1293 493 1269 l 653 1293 l 653 1278 q 615 1233 640 1260 q 559 1175 589 1205 q 496 1118 529 1146 q 436 1071 464 1089 l 384 1071 l 384 1089 "},"b":{"x_min":25.203125,"x_max":777,"ha":853,"o":"m 777 373 q 758 199 777 272 q 703 78 739 126 q 614 8 667 31 q 493 -14 561 -14 q 420 -5 453 -14 q 362 19 388 3 q 315 58 335 36 q 280 108 295 80 l 272 108 l 247 0 l 25 0 l 25 58 l 36 58 q 80 61 59 58 q 116 75 101 65 q 140 105 131 86 q 150 158 150 125 l 150 902 q 140 951 150 932 q 116 980 131 970 q 79 993 100 990 q 36 996 59 996 l 25 996 l 25 1055 l 280 1055 l 280 800 q 280 745 280 776 q 278 686 279 714 q 275 618 276 653 l 280 618 q 316 676 296 650 q 361 720 335 702 q 420 748 387 738 q 493 758 452 758 q 614 735 561 758 q 703 665 667 712 q 758 545 739 618 q 777 373 777 473 m 469 669 q 378 651 415 669 q 320 596 342 633 q 290 504 299 559 q 280 373 280 448 q 290 245 280 300 q 321 151 299 189 q 379 94 343 113 q 470 74 415 74 q 549 94 517 74 q 602 151 581 113 q 632 245 623 189 q 642 374 642 301 q 632 503 642 448 q 602 595 623 559 q 548 650 581 632 q 469 669 515 669 "},"q":{"x_min":77,"x_max":828.46875,"ha":853,"o":"m 828 -334 l 412 -334 l 412 -275 l 458 -275 q 502 -272 481 -275 q 538 -258 523 -268 q 562 -227 553 -247 q 572 -175 572 -207 l 572 -55 q 572 -1 572 -32 q 574 57 573 29 q 577 124 576 90 l 572 124 q 536 67 556 92 q 490 23 516 41 q 432 -4 465 5 q 359 -14 400 -14 q 238 8 291 -14 q 149 78 185 31 q 95 198 113 125 q 77 370 77 270 q 95 544 77 471 q 149 665 113 617 q 238 735 185 712 q 359 758 291 758 q 431 749 399 758 q 490 724 464 740 q 536 685 516 707 q 572 635 557 663 l 580 635 l 605 745 l 828 745 l 828 686 l 816 686 q 772 683 793 686 q 736 669 751 679 q 712 638 721 658 q 703 586 703 618 l 703 -180 q 712 -229 703 -211 q 736 -258 721 -248 q 773 -272 752 -268 q 816 -275 793 -275 l 828 -275 l 828 -334 m 383 74 q 473 92 437 74 q 531 147 509 110 q 562 239 553 184 q 572 370 572 295 q 562 498 572 443 q 531 592 553 554 q 473 649 509 629 q 382 669 436 669 q 304 649 336 669 q 251 591 272 629 q 221 497 230 553 q 211 369 211 441 q 251 148 211 221 q 383 74 291 74 "},"Ö":{"x_min":78,"x_max":952,"ha":1031,"o":"m 952 496 q 923 287 952 382 q 839 126 895 193 q 702 22 783 59 q 515 -14 620 -14 q 322 22 405 -14 q 186 126 240 59 q 105 288 132 193 q 78 498 78 382 q 105 707 78 613 q 186 867 132 801 q 323 970 240 934 q 517 1007 406 1007 q 702 970 622 1007 q 839 867 783 934 q 923 706 895 800 q 952 496 952 612 m 231 497 q 247 312 231 393 q 296 175 262 231 q 384 90 330 119 q 515 60 438 60 q 647 90 593 60 q 734 175 700 119 q 783 312 768 231 q 798 497 798 393 q 783 681 798 600 q 734 818 768 762 q 647 903 700 874 q 517 932 594 932 q 385 903 439 932 q 296 818 331 874 q 247 681 262 762 q 231 497 231 600 m 309 1185 q 314 1221 309 1206 q 329 1245 319 1236 q 351 1258 338 1254 q 379 1263 364 1263 q 407 1258 394 1263 q 430 1245 420 1254 q 445 1221 439 1236 q 450 1185 450 1206 q 445 1149 450 1163 q 430 1124 439 1134 q 407 1111 420 1115 q 379 1107 394 1107 q 329 1124 349 1107 q 309 1185 309 1142 m 573 1185 q 578 1221 573 1206 q 593 1245 583 1236 q 615 1258 602 1254 q 643 1263 628 1263 q 671 1258 658 1263 q 694 1245 684 1254 q 709 1221 703 1236 q 714 1185 714 1206 q 709 1149 714 1163 q 694 1124 703 1134 q 671 1111 684 1115 q 643 1107 658 1107 q 593 1124 613 1107 q 573 1185 573 1142 "},"z":{"x_min":58,"x_max":632,"ha":710,"o":"m 471 79 q 512 88 496 79 q 538 113 528 98 q 555 150 549 129 q 566 193 562 170 l 573 225 l 632 225 l 625 0 l 58 0 l 58 55 l 461 665 l 243 665 q 198 658 216 665 q 169 637 180 651 q 150 602 158 623 q 136 553 143 581 l 135 548 l 78 548 l 91 745 l 624 745 l 624 688 l 219 79 l 471 79 "},"ã":{"x_min":69,"x_max":722.203125,"ha":782,"o":"m 203 200 q 231 103 203 135 q 316 71 258 71 q 392 84 358 71 q 451 123 427 98 q 488 184 475 148 q 501 263 501 219 l 501 375 l 412 371 q 313 357 353 368 q 249 324 273 345 q 214 271 225 302 q 203 200 203 240 m 372 688 q 307 677 331 688 q 268 646 282 666 q 249 598 254 625 q 245 538 245 570 q 157 557 187 538 q 127 625 127 577 q 146 686 127 661 q 200 727 166 711 q 280 750 234 743 q 377 758 325 758 q 488 745 441 758 q 568 704 536 732 q 616 630 600 675 q 632 518 632 584 l 632 157 q 636 109 632 128 q 651 79 641 90 q 678 63 661 67 q 718 58 695 58 l 722 58 l 722 0 l 534 0 l 512 118 l 501 118 q 459 65 479 89 q 414 23 438 40 q 358 -4 389 5 q 284 -14 328 -14 q 198 0 238 -14 q 130 39 159 12 q 85 109 101 67 q 69 207 69 150 q 147 371 69 318 q 385 429 226 425 l 501 434 l 501 517 q 497 586 501 554 q 479 640 492 618 q 440 676 465 663 q 372 688 414 688 m 503 932 q 536 938 524 932 q 556 954 549 944 q 566 978 563 965 q 571 1006 569 991 l 634 1006 q 622 944 631 974 q 596 892 613 915 q 552 855 578 869 q 488 842 525 842 q 420 855 451 842 q 364 885 390 869 q 315 916 338 902 q 270 929 293 929 q 237 923 249 929 q 218 907 225 917 q 207 883 211 897 q 202 856 204 870 l 140 856 q 151 917 142 887 q 178 969 160 946 q 223 1006 196 992 q 287 1020 249 1020 q 354 1006 324 1020 q 410 976 384 992 q 459 945 436 959 q 503 932 482 932 "},"æ":{"x_min":69,"x_max":1099,"ha":1168,"o":"m 203 202 q 231 106 203 138 q 317 74 259 74 q 394 88 360 74 q 453 126 429 101 q 490 186 477 151 q 504 265 504 222 l 504 348 l 504 366 l 504 377 l 414 373 q 314 358 354 370 q 249 325 274 346 q 214 273 225 304 q 203 202 203 243 m 811 683 q 690 621 732 683 q 641 439 649 558 l 964 439 q 955 538 964 493 q 929 616 947 583 q 882 665 912 648 q 811 683 853 683 m 829 -14 q 657 26 728 -14 q 548 147 587 67 q 512 86 535 115 q 456 34 489 57 q 380 0 423 12 q 286 -14 337 -14 q 199 0 239 -14 q 130 39 159 12 q 85 109 101 67 q 69 207 69 150 q 148 371 69 318 q 387 429 227 425 l 504 434 l 504 517 q 499 586 504 554 q 482 640 495 618 q 442 676 468 663 q 373 688 416 688 q 307 677 332 688 q 268 646 282 666 q 249 598 254 625 q 245 538 245 570 q 157 557 187 538 q 127 625 127 577 q 146 686 127 661 q 201 727 166 711 q 281 750 235 743 q 379 758 327 758 q 512 738 458 758 q 597 673 566 718 q 811 758 674 758 q 931 736 878 758 q 1022 673 984 715 q 1079 569 1059 631 q 1099 423 1099 506 l 1099 359 l 638 359 q 653 231 640 285 q 692 143 666 178 q 758 93 718 109 q 852 76 797 76 q 911 84 882 76 q 963 104 939 91 q 1008 134 988 117 q 1041 172 1028 152 q 1059 154 1051 167 q 1068 124 1068 141 q 1053 78 1068 102 q 1008 33 1038 54 q 934 0 978 13 q 829 -14 889 -14 "},"®":{"x_min":77,"x_max":1097,"ha":1174,"o":"m 323 255 l 342 255 q 367 256 355 255 q 389 263 380 258 q 403 277 398 267 q 410 301 409 286 l 410 690 q 403 715 409 705 q 389 729 398 724 q 367 735 380 734 q 342 737 355 737 l 323 737 l 323 796 l 573 796 q 812 627 812 796 q 801 568 812 593 q 772 523 790 542 q 732 492 755 505 q 686 472 709 479 l 809 288 q 822 271 816 278 q 837 261 828 265 q 858 256 846 257 q 887 255 870 255 l 887 196 l 740 196 l 587 448 l 514 448 l 514 299 q 521 276 515 284 q 535 262 526 267 q 556 256 544 258 q 582 255 568 255 l 601 255 l 601 196 l 323 196 l 323 255 m 514 507 l 571 507 q 632 514 607 507 q 670 535 656 521 q 691 571 685 549 q 698 623 698 593 q 690 673 698 653 q 668 707 683 694 q 627 725 652 719 q 567 731 602 731 l 514 731 l 514 507 m 77 495 q 95 631 77 566 q 146 753 113 696 q 225 857 179 810 q 328 937 272 903 q 450 988 385 970 q 585 1007 515 1007 q 721 988 656 1007 q 843 937 787 970 q 947 857 900 903 q 1027 753 993 810 q 1078 631 1060 696 q 1097 495 1097 566 q 1078 359 1097 424 q 1027 238 1060 294 q 947 134 993 181 q 843 55 900 88 q 721 3 787 21 q 585 -14 656 -14 q 450 3 515 -14 q 328 55 385 21 q 225 134 272 88 q 146 238 179 181 q 95 359 113 294 q 77 495 77 424 m 152 495 q 168 380 152 436 q 212 277 184 325 q 280 189 240 228 q 367 121 319 149 q 471 77 416 93 q 586 61 526 61 q 702 77 646 61 q 806 121 757 93 q 893 189 854 149 q 961 277 933 228 q 1005 380 989 325 q 1021 495 1021 436 q 1005 611 1021 555 q 961 715 989 666 q 893 803 933 764 q 806 871 854 843 q 702 915 757 899 q 586 931 646 931 q 471 915 526 931 q 367 871 416 899 q 280 803 319 843 q 212 715 240 764 q 168 611 184 666 q 152 495 152 556 "},"É":{"x_min":52.421875,"x_max":807,"ha":865,"o":"m 324 69 l 592 69 q 649 78 626 69 q 688 103 673 87 q 713 139 704 118 q 725 183 722 160 l 735 243 l 807 243 l 797 0 l 52 0 l 52 58 l 70 58 q 113 61 93 58 q 150 73 134 64 q 174 102 165 83 q 184 151 184 120 l 184 833 q 175 886 184 866 q 150 916 166 905 q 114 930 135 926 q 70 933 93 933 l 52 933 l 52 992 l 753 992 l 760 749 l 688 749 l 681 808 q 670 852 678 831 q 648 888 662 873 q 611 913 633 904 q 558 922 589 922 l 324 922 l 324 553 l 660 553 l 660 483 l 324 483 l 324 69 m 369 1089 q 401 1134 384 1108 q 433 1187 417 1160 q 464 1242 449 1215 q 489 1293 478 1269 l 638 1293 l 638 1278 q 600 1233 625 1260 q 544 1175 574 1205 q 481 1118 514 1146 q 421 1071 449 1089 l 369 1071 l 369 1089 "},"~":{"x_min":77,"x_max":701,"ha":779,"o":"m 526 374 q 484 382 505 374 q 441 403 462 390 q 400 432 419 416 q 365 461 381 447 q 335 489 350 475 q 305 512 320 502 q 276 528 291 522 q 245 534 261 534 q 185 495 205 534 q 158 374 165 456 l 77 374 q 89 460 81 417 q 116 538 98 504 q 168 595 135 573 q 251 617 200 617 q 297 608 274 617 q 342 585 320 599 q 383 555 364 572 q 419 525 402 539 q 448 499 434 511 q 476 477 462 486 q 504 461 490 467 q 532 456 518 456 q 589 497 571 456 q 617 617 608 539 l 701 617 q 686 530 696 573 q 657 452 677 486 q 607 395 638 417 q 526 374 575 374 "},"³":{"x_min":56,"x_max":487,"ha":555,"o":"m 241 389 q 103 416 150 389 q 56 495 56 444 q 73 544 56 525 q 119 563 90 563 q 126 520 119 542 q 148 482 134 499 q 185 455 163 465 q 238 444 207 444 q 329 473 296 444 q 362 568 362 502 q 326 647 362 618 q 214 677 291 677 l 168 677 l 168 733 l 213 733 q 262 741 240 733 q 302 766 285 750 q 328 804 319 781 q 338 854 338 826 q 319 925 338 901 q 258 950 301 950 q 214 940 232 950 q 186 914 196 930 q 171 875 175 897 q 167 829 167 853 q 124 832 143 829 q 91 841 104 834 q 71 859 78 847 q 64 889 64 871 q 76 935 64 914 q 113 972 89 957 q 174 997 138 988 q 258 1006 210 1006 q 341 996 304 1006 q 406 969 379 986 q 448 925 433 951 q 463 867 463 899 q 451 812 463 836 q 420 769 440 787 q 375 737 401 750 q 321 716 350 724 l 321 709 q 378 696 349 704 q 431 672 407 687 q 471 632 455 656 q 487 569 487 607 q 464 484 487 519 q 405 429 441 450 q 326 398 369 407 q 241 389 283 389 "},"₧":{"x_min":37,"x_max":1083,"ha":1137,"o":"m 37 0 l 37 58 l 55 58 q 100 61 79 58 q 136 75 120 65 q 160 105 151 86 q 170 158 170 125 l 170 839 q 160 888 170 869 q 135 917 151 907 q 99 930 120 927 q 55 933 78 933 l 37 933 l 37 992 l 385 992 q 537 971 473 992 q 644 913 602 951 q 707 822 686 876 q 728 700 728 768 q 708 580 728 637 q 645 479 689 523 q 530 409 601 435 q 355 382 458 382 l 310 382 l 310 150 q 319 101 310 120 q 344 73 328 83 q 380 61 359 64 q 424 58 401 58 l 469 58 l 469 0 l 37 0 m 310 452 l 341 452 q 447 465 403 452 q 519 507 491 478 q 561 583 548 537 q 574 696 574 630 q 562 797 574 754 q 525 869 551 840 q 460 911 500 897 q 362 925 420 925 l 310 925 l 310 452 m 1018 60 q 1054 63 1040 60 q 1083 70 1067 66 l 1083 8 q 1038 -7 1065 -1 q 971 -14 1011 -14 q 891 -2 924 -14 q 838 33 859 8 q 809 99 818 58 q 800 200 800 140 l 800 438 l 694 438 l 694 487 q 749 497 719 487 q 803 532 779 508 q 849 594 831 558 q 879 684 866 629 l 940 684 l 940 513 l 1070 513 l 1070 438 l 940 438 l 940 197 q 959 93 940 126 q 1018 60 977 60 "},"¡":{"x_min":143,"x_max":318,"ha":463,"o":"m 311 -249 l 149 -249 l 198 464 l 262 464 l 311 -249 m 318 658 q 311 613 318 631 q 292 584 304 595 q 264 568 280 573 q 230 564 248 564 q 196 568 212 564 q 169 584 180 573 q 150 613 157 595 q 143 658 143 631 q 150 703 143 685 q 169 732 157 721 q 196 748 180 743 q 230 753 212 753 q 264 748 248 753 q 292 732 280 743 q 311 703 304 721 q 318 658 318 685 "},"[":{"x_min":139,"x_max":449,"ha":499,"o":"m 139 -178 l 139 1055 l 449 1055 l 449 996 l 388 996 q 344 992 365 996 q 308 978 324 989 q 284 948 292 968 q 275 896 275 928 l 275 -19 q 284 -71 275 -51 q 308 -101 292 -91 q 344 -115 324 -112 q 388 -119 365 -119 l 449 -119 l 449 -178 l 139 -178 "},"L":{"x_min":52.421875,"x_max":807,"ha":865,"o":"m 52 0 l 52 58 l 70 58 q 114 61 93 58 q 150 75 135 65 q 175 105 166 86 q 184 158 184 125 l 184 833 q 175 886 184 866 q 150 916 166 905 q 114 930 135 926 q 70 933 93 933 l 52 933 l 52 992 l 456 992 l 456 933 l 438 933 q 394 930 415 933 q 358 917 373 927 q 333 888 342 907 q 324 839 324 869 l 324 69 l 599 69 q 652 80 630 69 q 688 109 674 91 q 710 150 703 127 q 721 194 718 172 l 735 299 l 807 299 l 797 0 l 52 0 "}," ":{"x_min":0,"x_max":0,"ha":361},"%":{"x_min":62,"x_max":1183,"ha":1245,"o":"m 518 698 q 503 572 518 629 q 461 474 489 515 q 389 411 432 433 q 290 389 347 389 q 187 411 230 389 q 116 474 144 433 q 75 572 88 515 q 62 698 62 629 q 75 825 62 768 q 116 922 88 881 q 187 984 144 962 q 291 1006 230 1006 q 390 984 348 1006 q 461 922 433 962 q 503 825 489 881 q 518 698 518 768 m 188 699 q 193 605 188 646 q 211 535 198 564 q 242 492 223 506 q 290 477 262 477 q 338 492 319 477 q 369 535 358 506 q 386 605 381 564 q 391 699 391 646 q 386 791 391 751 q 369 860 381 832 q 339 903 358 888 q 292 917 320 917 q 243 903 263 917 q 211 860 223 888 q 193 791 198 832 q 188 699 188 751 m 1183 295 q 1168 168 1183 225 q 1126 70 1154 111 q 1054 8 1097 30 q 955 -14 1012 -14 q 851 8 895 -14 q 780 70 808 30 q 740 168 753 111 q 727 295 727 225 q 740 422 727 365 q 781 519 753 478 q 852 581 809 559 q 956 603 895 603 q 1055 581 1013 603 q 1126 519 1098 559 q 1168 422 1154 478 q 1183 295 1183 365 m 853 296 q 858 202 853 243 q 876 132 863 161 q 907 89 888 103 q 956 74 927 74 q 1004 89 984 74 q 1035 132 1023 103 q 1051 202 1046 161 q 1056 296 1056 243 q 1051 388 1056 348 q 1035 457 1046 429 q 1004 500 1023 485 q 957 514 985 514 q 908 500 928 514 q 876 457 889 485 q 858 388 863 429 q 853 296 853 348 m 417 0 l 326 0 l 822 992 l 913 992 l 417 0 "},"P":{"x_min":52.421875,"x_max":785,"ha":839,"o":"m 52 0 l 52 58 l 70 58 q 114 61 93 58 q 150 75 135 65 q 175 105 166 86 q 184 158 184 125 l 184 839 q 174 888 184 869 q 150 917 165 907 q 113 930 134 927 q 70 933 93 933 l 52 933 l 52 992 l 442 992 q 594 971 530 992 q 701 913 659 951 q 764 822 743 876 q 785 700 785 768 q 765 580 785 637 q 702 479 746 523 q 586 409 657 435 q 412 382 515 382 l 324 382 l 324 150 q 333 101 324 120 q 358 73 342 83 q 394 61 373 64 q 438 58 415 58 l 484 58 l 484 0 l 52 0 m 324 452 l 397 452 q 504 465 459 452 q 576 507 548 478 q 617 583 604 536 q 631 694 631 629 q 619 795 631 752 q 582 866 608 838 q 516 909 557 895 q 417 922 476 922 l 324 922 l 324 452 "},"À":{"x_min":0,"x_max":979,"ha":979,"o":"m 281 332 l 227 186 q 218 153 221 169 q 215 126 215 137 q 237 74 215 90 q 307 58 260 58 l 339 58 l 339 0 l 0 0 l 0 58 l 26 58 q 61 62 46 58 q 86 79 75 67 q 108 112 98 91 q 132 166 119 133 l 440 992 l 548 992 l 862 132 q 878 96 870 110 q 898 73 887 82 q 925 61 910 65 q 960 58 940 58 l 979 58 l 979 0 l 597 0 l 597 58 l 629 58 q 712 124 712 58 q 709 148 712 136 q 700 176 706 160 l 645 332 l 281 332 m 534 644 q 494 760 512 706 q 465 864 476 814 q 453 816 460 839 q 439 768 447 792 q 423 717 432 743 q 401 657 413 690 l 307 402 l 619 402 l 534 644 m 546 1071 l 493 1071 q 432 1118 465 1089 q 369 1175 400 1146 q 313 1233 339 1205 q 276 1278 288 1260 l 276 1293 l 424 1293 q 450 1242 435 1269 q 480 1187 464 1215 q 514 1134 497 1160 q 546 1089 531 1108 l 546 1071 "},"_":{"x_min":-7,"x_max":645,"ha":638,"o":"m 645 -197 l -7 -197 l -7 -115 l 645 -115 l 645 -197 "},"ñ":{"x_min":38.53125,"x_max":857.234375,"ha":896,"o":"m 412 58 l 412 0 l 38 0 l 38 58 l 50 58 q 94 61 73 58 q 130 75 115 65 q 154 105 145 86 q 164 158 164 125 l 164 591 q 154 640 164 622 q 130 669 145 659 q 93 683 114 679 q 50 686 73 686 l 46 686 l 46 745 l 271 745 l 289 631 l 296 631 q 341 695 317 670 q 392 733 366 720 q 449 752 419 747 q 513 758 479 758 q 610 742 567 758 q 684 693 653 726 q 730 608 714 660 q 746 486 746 557 l 746 157 q 753 105 746 125 q 775 75 761 86 q 809 61 790 65 q 852 58 829 58 l 857 58 l 857 0 l 615 0 l 615 479 q 606 560 615 524 q 580 619 598 595 q 533 656 562 644 q 462 669 504 669 q 383 650 415 669 q 331 601 351 632 q 303 529 311 570 q 294 444 294 488 l 294 151 q 304 102 294 120 q 328 73 313 83 q 365 61 344 64 q 408 58 385 58 l 412 58 m 570 932 q 603 938 591 932 q 623 954 616 944 q 633 978 630 965 q 638 1006 636 991 l 701 1006 q 689 944 698 974 q 663 892 680 915 q 619 855 645 869 q 555 842 592 842 q 487 855 518 842 q 431 885 457 869 q 382 916 405 902 q 337 929 360 929 q 304 923 316 929 q 285 907 292 917 q 274 883 278 897 q 269 856 271 870 l 207 856 q 218 917 209 887 q 245 969 227 946 q 290 1006 263 992 q 354 1020 316 1020 q 421 1006 391 1020 q 477 976 451 992 q 526 945 503 959 q 570 932 549 932 "},"+":{"x_min":90,"x_max":685,"ha":777,"o":"m 428 455 l 428 199 l 346 199 l 346 455 l 90 455 l 90 538 l 346 538 l 346 794 l 428 794 l 428 538 l 685 538 l 685 455 l 428 455 "},"½":{"x_min":32.453125,"x_max":1115,"ha":1167,"o":"m 40 399 l 40 454 l 105 454 q 127 456 117 454 q 145 463 137 457 q 157 478 153 468 q 162 505 162 488 l 162 890 l 32 890 l 32 946 l 102 946 q 135 948 117 946 q 169 956 153 950 q 198 972 185 962 q 217 999 211 982 l 286 999 l 286 498 q 291 470 286 481 q 304 454 296 460 q 322 447 311 449 q 345 445 332 445 l 408 445 l 408 399 l 40 399 m 356 0 l 264 0 l 760 992 l 851 992 l 356 0 m 1098 458 q 1090 397 1098 426 q 1065 340 1083 369 q 1019 281 1047 312 q 947 213 990 251 l 800 87 l 1001 87 q 1045 104 1033 87 q 1062 144 1058 121 l 1067 173 l 1115 173 l 1110 0 l 689 0 l 689 62 l 864 220 q 916 277 895 248 q 949 334 937 305 q 967 391 962 363 q 973 447 973 420 q 968 489 973 470 q 954 523 964 509 q 929 545 944 537 q 891 553 913 553 q 848 543 866 553 q 820 517 831 533 q 805 478 809 500 q 800 432 800 456 q 726 444 753 432 q 700 492 700 455 q 712 538 700 517 q 748 575 724 560 q 808 600 772 591 q 891 609 844 609 q 1043 570 988 609 q 1098 458 1098 532 "},"Æ":{"x_min":0,"x_max":1263,"ha":1321,"o":"m 780 69 l 1048 69 q 1105 78 1081 69 q 1144 103 1128 87 q 1168 139 1159 118 q 1181 183 1177 160 l 1191 243 l 1263 243 l 1252 0 l 508 0 l 508 58 l 526 58 q 569 61 549 58 q 605 73 589 64 q 629 102 620 83 q 640 151 639 121 l 640 332 l 321 332 l 244 186 q 227 144 232 164 q 222 112 222 125 q 244 71 222 84 q 306 58 265 58 l 337 58 l 337 0 l 0 0 l 0 58 l 22 58 q 87 84 59 58 q 146 166 116 109 l 547 926 l 438 933 l 438 992 l 1209 992 l 1216 749 l 1144 749 l 1136 808 q 1126 852 1133 831 q 1104 887 1118 872 q 1067 912 1089 903 q 1014 922 1045 922 l 780 922 l 780 553 l 1116 553 l 1116 483 l 780 483 l 780 69 m 620 922 q 575 828 603 884 q 512 703 547 771 q 437 558 478 635 q 356 402 397 481 l 640 402 l 640 922 l 620 922 "},"₣":{"x_min":60.75,"x_max":727,"ha":777,"o":"m 60 0 l 60 58 l 79 58 q 122 61 102 58 q 159 73 143 64 q 183 101 174 82 q 193 149 193 119 l 193 248 l 64 248 l 64 318 l 193 318 l 193 839 q 183 888 193 869 q 159 917 174 907 q 122 930 143 927 q 79 933 102 933 l 60 933 l 60 992 l 720 992 l 727 749 l 655 749 l 647 808 q 637 853 645 832 q 615 889 630 873 q 578 913 601 904 q 525 922 556 922 l 333 922 l 333 521 l 644 521 l 644 451 l 333 451 l 333 318 l 527 318 l 527 248 l 333 248 l 333 155 q 342 104 333 124 q 366 75 351 85 q 403 61 382 64 q 447 58 424 58 l 493 58 l 493 0 l 60 0 "},"Ë":{"x_min":52.421875,"x_max":807,"ha":865,"o":"m 324 69 l 592 69 q 649 78 626 69 q 688 103 673 87 q 713 139 704 118 q 725 183 722 160 l 735 243 l 807 243 l 797 0 l 52 0 l 52 58 l 70 58 q 113 61 93 58 q 150 73 134 64 q 174 102 165 83 q 184 151 184 120 l 184 833 q 175 886 184 866 q 150 916 166 905 q 114 930 135 926 q 70 933 93 933 l 52 933 l 52 992 l 753 992 l 760 749 l 688 749 l 681 808 q 670 852 678 831 q 648 888 662 873 q 611 913 633 904 q 558 922 589 922 l 324 922 l 324 553 l 660 553 l 660 483 l 324 483 l 324 69 m 232 1185 q 237 1221 232 1206 q 252 1245 242 1236 q 274 1258 261 1254 q 302 1263 287 1263 q 330 1258 317 1263 q 353 1245 343 1254 q 368 1221 362 1236 q 373 1185 373 1206 q 368 1149 373 1163 q 353 1124 362 1134 q 330 1111 343 1115 q 302 1107 317 1107 q 252 1124 272 1107 q 232 1185 232 1142 m 496 1185 q 501 1221 496 1206 q 516 1245 506 1236 q 538 1258 525 1254 q 566 1263 551 1263 q 594 1258 581 1263 q 617 1245 607 1254 q 632 1221 626 1236 q 637 1185 637 1206 q 632 1149 637 1163 q 617 1124 626 1134 q 594 1111 607 1115 q 566 1107 581 1107 q 516 1124 536 1107 q 496 1185 496 1142 "},"'":{"x_min":79,"x_max":223.46875,"ha":306,"o":"m 79 992 l 223 992 l 182 666 l 119 666 l 79 992 "},"ª":{"x_min":49,"x_max":507.359375,"ha":530,"o":"m 169 663 q 188 600 169 618 q 233 583 206 583 q 274 592 256 583 q 305 616 293 600 q 324 653 318 631 q 331 699 331 674 l 331 768 l 289 766 q 232 758 255 765 q 195 737 209 750 q 175 706 181 724 q 169 663 169 687 m 262 943 q 228 936 241 943 q 208 916 215 929 q 198 887 201 904 q 195 852 195 871 q 114 866 142 852 q 86 912 86 880 q 100 952 86 936 q 138 979 114 969 q 195 994 163 989 q 265 999 228 999 q 345 991 311 999 q 401 965 379 983 q 435 920 424 947 q 447 851 447 892 l 447 645 q 460 603 447 615 q 507 592 473 592 l 507 537 l 372 537 l 347 600 l 340 600 q 313 573 328 586 q 281 550 299 560 q 241 534 263 540 q 193 528 219 528 q 87 563 126 528 q 49 669 49 599 q 103 771 49 738 q 272 809 158 804 l 331 812 l 331 851 q 329 888 331 871 q 319 917 326 905 q 299 936 312 929 q 262 943 285 943 "},"ð":{"x_min":77,"x_max":725,"ha":802,"o":"m 209 1057 q 333 1016 272 1041 q 449 954 394 991 l 628 1059 l 628 979 l 505 909 q 594 816 554 869 q 664 700 635 764 q 709 562 693 636 q 725 404 725 487 q 641 89 725 192 q 398 -14 558 -14 q 264 8 323 -14 q 162 74 204 30 q 99 187 121 119 q 77 345 77 254 q 159 614 77 526 q 403 703 241 703 q 488 693 449 703 q 562 667 527 683 q 511 764 548 713 q 422 861 475 815 l 249 763 l 249 840 l 365 907 q 292 946 331 928 q 209 977 252 964 l 209 1057 m 211 346 q 222 220 211 274 q 254 129 232 165 q 313 73 277 92 q 402 55 349 55 q 489 73 454 55 q 548 129 525 92 q 580 220 570 165 q 590 346 590 274 q 579 471 590 418 q 547 562 569 525 q 488 615 525 598 q 400 633 452 633 q 312 615 348 633 q 254 562 276 598 q 222 471 232 525 q 211 346 211 418 "},"T":{"x_min":28,"x_max":823,"ha":851,"o":"m 494 158 q 503 105 494 125 q 527 75 512 86 q 564 61 543 65 q 608 58 585 58 l 640 58 l 640 0 l 208 0 l 208 58 l 240 58 q 283 61 263 58 q 320 73 304 64 q 344 102 335 83 q 354 151 354 120 l 354 922 l 221 922 q 170 913 190 922 q 136 888 149 904 q 116 852 122 873 q 107 808 110 831 l 99 749 l 28 749 l 34 992 l 816 992 l 823 749 l 751 749 l 744 808 q 734 852 741 831 q 715 888 728 873 q 681 913 702 904 q 629 922 660 922 l 494 922 l 494 158 "},"Þ":{"x_min":52.421875,"x_max":785,"ha":839,"o":"m 52 0 l 52 58 l 70 58 q 114 61 93 58 q 150 75 135 65 q 175 105 166 86 q 184 158 184 125 l 184 833 q 175 886 184 866 q 150 916 166 905 q 114 930 135 926 q 70 933 93 933 l 52 933 l 52 992 l 470 992 l 470 933 l 438 933 q 394 930 415 933 q 357 916 373 926 q 333 886 342 905 q 324 834 324 866 l 324 792 l 442 792 q 701 721 617 792 q 785 514 785 650 q 765 397 785 452 q 702 300 746 341 q 586 234 657 258 q 412 210 515 210 l 324 210 l 324 156 q 333 104 324 124 q 357 75 342 85 q 394 61 373 64 q 438 58 415 58 l 470 58 l 470 0 l 52 0 m 324 280 l 397 280 q 504 291 459 280 q 576 328 548 302 q 617 399 604 355 q 631 509 631 443 q 619 607 631 567 q 582 673 608 648 q 516 711 557 699 q 417 722 476 722 l 324 722 l 324 280 "},"j":{"x_min":-16.84375,"x_max":289,"ha":416,"o":"m 280 745 l 280 -10 q 260 -166 280 -104 q 203 -265 240 -228 q 116 -318 166 -302 q 5 -334 65 -334 l -16 -334 l -16 -264 l -6 -264 q 59 -252 30 -264 q 108 -210 88 -239 q 139 -131 128 -180 q 150 -9 150 -82 l 150 592 q 140 641 150 622 q 116 669 131 659 q 79 683 100 679 q 36 686 59 686 l 31 686 l 31 745 l 280 745 m 131 969 q 137 1010 131 993 q 153 1036 143 1026 q 178 1050 164 1046 q 209 1055 193 1055 q 240 1050 225 1055 q 265 1036 255 1046 q 282 1010 276 1026 q 289 969 289 993 q 282 928 289 944 q 265 902 276 912 q 240 887 255 891 q 209 883 225 883 q 178 887 193 883 q 153 902 164 891 q 137 928 143 912 q 131 969 131 944 "},"1":{"x_min":91.09375,"x_max":662.15625,"ha":777,"o":"m 133 0 l 133 58 l 226 58 q 270 61 249 58 q 306 75 291 65 q 330 105 321 86 q 340 158 340 125 l 340 887 q 289 828 313 855 q 244 783 266 802 q 201 753 222 764 q 160 743 181 743 q 110 763 130 743 q 91 817 91 784 q 133 830 112 823 q 178 851 154 838 q 231 881 203 863 q 293 925 259 899 l 391 997 l 480 997 l 480 158 q 489 105 480 125 q 513 75 498 86 q 549 61 529 65 q 594 58 570 58 l 662 58 l 662 0 l 133 0 "},"ä":{"x_min":69,"x_max":722.203125,"ha":782,"o":"m 203 200 q 231 103 203 135 q 316 71 258 71 q 392 84 358 71 q 451 123 427 98 q 488 184 475 148 q 501 263 501 219 l 501 375 l 412 371 q 313 357 353 368 q 249 324 273 345 q 214 271 225 302 q 203 200 203 240 m 372 688 q 307 677 331 688 q 268 646 282 666 q 249 598 254 625 q 245 538 245 570 q 157 557 187 538 q 127 625 127 577 q 146 686 127 661 q 200 727 166 711 q 280 750 234 743 q 377 758 325 758 q 488 745 441 758 q 568 704 536 732 q 616 630 600 675 q 632 518 632 584 l 632 157 q 636 109 632 128 q 651 79 641 90 q 678 63 661 67 q 718 58 695 58 l 722 58 l 722 0 l 534 0 l 512 118 l 501 118 q 459 65 479 89 q 414 23 438 40 q 358 -4 389 5 q 284 -14 328 -14 q 198 0 238 -14 q 130 39 159 12 q 85 109 101 67 q 69 207 69 150 q 147 371 69 318 q 385 429 226 425 l 501 434 l 501 517 q 497 586 501 554 q 479 640 492 618 q 440 676 465 663 q 372 688 414 688 m 175 956 q 180 992 175 977 q 195 1016 185 1007 q 217 1029 204 1025 q 245 1034 230 1034 q 273 1029 260 1034 q 296 1016 286 1025 q 311 992 305 1007 q 316 956 316 977 q 311 920 316 934 q 296 895 305 905 q 273 882 286 886 q 245 878 260 878 q 195 895 215 878 q 175 956 175 913 m 439 956 q 444 992 439 977 q 459 1016 449 1007 q 481 1029 468 1025 q 509 1034 494 1034 q 537 1029 524 1034 q 560 1016 550 1025 q 575 992 569 1007 q 580 956 580 977 q 575 920 580 934 q 560 895 569 905 q 537 882 550 886 q 509 878 524 878 q 459 895 479 878 q 439 956 439 913 "},"<":{"x_min":90,"x_max":687,"ha":777,"o":"m 90 471 l 90 520 l 687 841 l 687 748 l 219 495 l 687 244 l 687 152 l 90 471 "},"£":{"x_min":67.75,"x_max":736,"ha":777,"o":"m 339 463 q 358 394 349 429 q 366 317 366 358 q 333 213 366 258 q 244 131 299 168 l 247 124 q 300 144 276 138 q 348 150 325 150 q 409 141 376 150 q 475 123 442 133 q 538 105 508 113 q 590 97 569 97 q 635 104 614 97 q 674 123 655 111 q 707 149 692 134 q 736 179 723 163 l 736 89 q 706 53 723 71 q 667 20 689 35 q 616 -4 645 5 q 554 -14 588 -14 q 486 -4 519 -14 q 419 17 453 5 q 350 39 385 29 q 278 49 315 49 q 192 35 232 49 q 107 1 152 22 l 89 -7 l 89 65 l 114 81 q 165 118 139 96 q 210 168 190 140 q 244 232 231 197 q 257 308 257 267 q 246 387 257 348 q 222 463 236 426 l 67 463 l 67 533 l 195 533 q 176 581 186 554 q 159 636 167 607 q 147 695 152 665 q 143 754 143 725 q 162 860 143 813 q 218 939 182 907 q 308 989 255 972 q 426 1006 360 1006 q 540 994 493 1006 q 616 961 587 982 q 658 912 645 940 q 672 850 672 883 q 642 783 672 805 q 562 760 613 760 q 556 824 562 793 q 535 880 550 856 q 492 921 520 905 q 421 936 465 936 q 302 890 340 936 q 265 757 265 844 q 270 693 265 724 q 284 633 275 662 q 301 578 292 604 q 319 533 311 553 l 555 533 l 555 463 l 339 463 "},"¹":{"x_min":90.453125,"x_max":466.890625,"ha":555,"o":"m 98 399 l 98 454 l 163 454 q 185 456 175 454 q 203 463 195 457 q 215 478 211 468 q 220 505 220 488 l 220 890 l 90 890 l 90 946 l 160 946 q 193 948 175 946 q 227 956 211 950 q 256 972 243 962 q 275 999 269 982 l 344 999 l 344 498 q 349 470 344 481 q 362 454 354 460 q 380 447 369 449 q 403 445 390 445 l 466 445 l 466 399 l 98 399 "},"t":{"x_min":26.203125,"x_max":457.546875,"ha":489,"o":"m 368 55 q 414 57 393 55 q 457 64 435 60 l 457 6 q 434 -1 448 2 q 403 -7 420 -5 q 368 -12 387 -10 q 334 -14 350 -14 q 243 -2 281 -14 q 180 33 204 8 q 143 100 155 58 q 132 201 132 141 l 132 665 l 26 665 l 26 721 q 81 731 51 721 q 134 765 111 741 q 173 826 158 791 q 198 916 187 862 l 262 916 l 262 745 l 444 745 l 444 665 l 262 665 l 262 193 q 291 88 262 122 q 368 55 320 55 "},"¬":{"x_min":90,"x_max":687,"ha":777,"o":"m 687 538 l 687 171 l 604 171 l 604 455 l 90 455 l 90 538 l 687 538 "},"ù":{"x_min":31.984375,"x_max":850.015625,"ha":882,"o":"m 732 151 q 741 102 732 120 q 765 73 750 83 q 802 61 781 64 q 845 58 822 58 l 850 58 l 850 0 l 629 0 l 611 112 l 604 112 q 558 48 583 72 q 504 10 532 24 q 444 -8 475 -3 q 379 -14 413 -14 q 281 1 324 -14 q 209 50 238 17 q 165 135 180 83 q 150 258 150 186 l 150 591 q 140 640 150 622 q 116 669 131 659 q 79 683 100 679 q 36 686 59 686 l 31 686 l 31 745 l 280 745 l 280 264 q 288 184 280 219 q 311 124 295 148 q 356 87 328 99 q 426 74 384 74 q 505 91 472 74 q 559 136 538 107 q 590 207 580 166 q 601 299 601 249 l 601 586 q 591 638 601 618 q 567 669 582 658 q 531 683 552 679 q 487 686 510 686 l 483 686 l 483 745 l 732 745 l 732 151 m 483 842 l 430 842 q 369 889 402 860 q 306 946 337 917 q 250 1004 276 976 q 213 1049 225 1031 l 213 1064 l 361 1064 q 387 1013 372 1040 q 417 958 401 986 q 451 905 434 931 q 483 860 468 879 l 483 842 "},"W":{"x_min":12,"x_max":1442,"ha":1454,"o":"m 800 983 l 973 380 q 1008 248 993 311 q 1033 136 1024 184 q 1057 241 1043 186 q 1089 364 1070 297 l 1211 793 q 1216 811 1213 801 q 1220 831 1218 821 q 1224 850 1222 842 q 1226 865 1226 859 q 1203 917 1226 901 q 1134 933 1180 933 l 1102 933 l 1102 992 l 1442 992 l 1442 933 l 1415 933 q 1379 929 1395 933 q 1352 913 1364 925 q 1330 881 1340 902 q 1309 825 1319 860 l 1075 0 l 950 0 l 723 778 l 511 0 l 383 0 l 128 860 q 113 896 121 882 q 93 918 104 910 q 66 930 81 926 q 30 933 50 933 l 12 933 l 12 992 l 394 992 l 394 933 l 362 933 q 299 917 320 933 q 279 867 279 901 q 282 843 279 855 q 290 815 286 831 l 417 371 q 450 247 435 308 q 478 136 466 186 q 502 254 488 190 q 534 386 516 319 l 699 983 l 800 983 "},"ï":{"x_min":13,"x_max":427.15625,"ha":444,"o":"m 50 58 q 93 61 73 58 q 130 73 114 64 q 154 102 145 83 q 164 151 164 120 l 164 591 q 154 640 164 622 q 130 669 145 659 q 93 683 114 679 q 50 686 73 686 l 46 686 l 46 745 l 294 745 l 294 158 q 304 105 294 125 q 328 75 313 86 q 364 61 343 65 q 408 58 385 58 l 427 58 l 427 0 l 31 0 l 31 58 l 50 58 m 13 956 q 18 992 13 977 q 33 1016 23 1007 q 55 1029 42 1025 q 83 1034 68 1034 q 111 1029 98 1034 q 134 1016 124 1025 q 149 992 143 1007 q 154 956 154 977 q 149 920 154 934 q 134 895 143 905 q 111 882 124 886 q 83 878 98 878 q 33 895 53 878 q 13 956 13 913 m 277 956 q 282 992 277 977 q 297 1016 287 1007 q 319 1029 306 1025 q 347 1034 332 1034 q 375 1029 362 1034 q 398 1016 388 1025 q 413 992 407 1007 q 418 956 418 977 q 413 920 418 934 q 398 895 407 905 q 375 882 388 886 q 347 878 362 878 q 297 895 317 878 q 277 956 277 913 "},">":{"x_min":90,"x_max":687,"ha":777,"o":"m 90 152 l 90 244 l 557 495 l 90 748 l 90 841 l 687 520 l 687 471 l 90 152 "},"v":{"x_min":5,"x_max":800,"ha":804,"o":"m 5 686 l 5 745 l 352 745 l 352 686 l 334 686 q 271 670 292 686 q 251 619 251 654 q 253 596 251 607 q 262 568 256 584 l 356 306 q 374 252 365 281 q 392 194 384 222 q 407 140 401 165 q 417 97 414 114 l 422 97 q 433 134 425 111 q 451 182 441 156 q 471 235 460 208 q 491 287 481 262 l 591 558 q 600 590 597 575 q 604 618 604 606 q 581 670 604 654 q 512 686 558 686 l 502 686 l 502 745 l 800 745 l 800 686 l 783 686 q 748 682 762 686 q 722 665 734 677 q 700 632 711 653 q 677 578 690 611 l 458 0 l 331 0 l 108 612 q 91 648 99 634 q 70 671 82 662 q 44 683 59 679 q 9 686 29 686 l 5 686 "},"û":{"x_min":31.984375,"x_max":850.015625,"ha":882,"o":"m 732 151 q 741 102 732 120 q 765 73 750 83 q 802 61 781 64 q 845 58 822 58 l 850 58 l 850 0 l 629 0 l 611 112 l 604 112 q 558 48 583 72 q 504 10 532 24 q 444 -8 475 -3 q 379 -14 413 -14 q 281 1 324 -14 q 209 50 238 17 q 165 135 180 83 q 150 258 150 186 l 150 591 q 140 640 150 622 q 116 669 131 659 q 79 683 100 679 q 36 686 59 686 l 31 686 l 31 745 l 280 745 l 280 264 q 288 184 280 219 q 311 124 295 148 q 356 87 328 99 q 426 74 384 74 q 505 91 472 74 q 559 136 538 107 q 590 207 580 166 q 601 299 601 249 l 601 586 q 591 638 601 618 q 567 669 582 658 q 531 683 552 679 q 487 686 510 686 l 483 686 l 483 745 l 732 745 l 732 151 m 232 860 q 267 905 248 879 q 307 958 287 931 q 343 1013 326 986 q 371 1064 360 1040 l 502 1064 q 530 1013 513 1040 q 566 958 547 986 q 606 905 586 931 q 642 860 625 879 l 642 842 l 587 842 q 507 899 547 864 q 436 966 467 933 q 365 899 404 933 q 286 842 325 864 l 232 842 l 232 860 "},"Ò":{"x_min":78,"x_max":952,"ha":1031,"o":"m 952 496 q 923 287 952 382 q 839 126 895 193 q 702 22 783 59 q 515 -14 620 -14 q 322 22 405 -14 q 186 126 240 59 q 105 288 132 193 q 78 498 78 382 q 105 707 78 613 q 186 867 132 801 q 323 970 240 934 q 517 1007 406 1007 q 702 970 622 1007 q 839 867 783 934 q 923 706 895 800 q 952 496 952 612 m 231 497 q 247 312 231 393 q 296 175 262 231 q 384 90 330 119 q 515 60 438 60 q 647 90 593 60 q 734 175 700 119 q 783 312 768 231 q 798 497 798 393 q 783 681 798 600 q 734 818 768 762 q 647 903 700 874 q 517 932 594 932 q 385 903 439 932 q 296 818 331 874 q 247 681 262 762 q 231 497 231 600 m 584 1071 l 531 1071 q 470 1118 503 1089 q 407 1175 438 1146 q 351 1233 377 1205 q 314 1278 326 1260 l 314 1293 l 462 1293 q 488 1242 473 1269 q 518 1187 502 1215 q 552 1134 535 1160 q 584 1089 569 1108 l 584 1071 "},"&":{"x_min":50,"x_max":1018,"ha":1031,"o":"m 796 0 l 681 122 q 626 68 656 93 q 559 25 595 43 q 478 -3 522 7 q 380 -14 433 -14 q 235 7 297 -14 q 131 66 172 28 q 70 158 90 104 q 50 277 50 211 q 66 380 50 336 q 110 457 82 424 q 181 515 139 490 q 272 561 222 540 q 225 622 245 593 q 192 679 205 650 q 171 737 178 707 q 165 801 165 767 q 179 885 165 847 q 226 949 194 922 q 308 991 258 976 q 427 1006 358 1006 q 540 990 493 1006 q 617 947 587 974 q 659 884 646 920 q 673 808 673 848 q 660 729 673 763 q 619 665 647 694 q 547 610 591 636 q 439 556 503 584 l 692 288 q 707 352 701 320 q 717 415 713 384 q 722 476 721 446 q 724 530 724 505 l 724 585 l 974 585 l 974 526 l 961 526 q 915 523 938 526 q 874 511 893 521 q 839 482 854 501 q 815 432 824 464 q 787 335 803 387 q 747 230 771 282 l 876 92 q 897 75 886 82 q 922 65 908 69 q 957 59 937 61 q 1005 58 977 58 l 1018 58 l 1018 0 l 796 0 m 393 65 q 468 73 433 65 q 533 96 503 82 q 586 131 562 111 q 631 176 611 152 l 324 505 q 266 466 292 487 q 222 416 240 444 q 194 353 204 388 q 184 274 184 318 q 199 184 184 223 q 242 119 214 145 q 308 78 270 92 q 393 65 346 65 m 550 806 q 544 858 550 834 q 522 899 537 882 q 482 926 507 916 q 423 936 458 936 q 328 900 361 936 q 295 805 295 865 q 301 756 295 779 q 318 710 306 733 q 348 663 330 687 q 392 609 366 638 q 463 647 433 627 q 512 690 493 666 q 541 741 532 713 q 550 806 550 770 "},"Ð":{"x_min":52.421875,"x_max":931,"ha":1010,"o":"m 52 553 l 184 553 l 184 839 q 174 888 184 869 q 150 917 165 907 q 113 930 134 927 q 70 933 93 933 l 52 933 l 52 992 l 478 992 q 669 959 585 992 q 811 863 753 926 q 900 707 869 799 q 931 497 931 615 q 902 291 931 383 q 817 134 873 199 q 676 34 761 69 q 478 0 590 0 l 52 0 l 52 58 l 70 58 q 114 61 93 58 q 150 75 135 65 q 175 105 166 86 q 184 157 184 125 l 184 483 l 52 483 l 52 553 m 445 69 q 590 97 528 69 q 694 179 652 125 q 756 313 735 234 q 777 496 777 393 q 756 679 777 599 q 694 813 735 759 q 591 894 653 867 q 446 922 528 922 l 324 922 l 324 553 l 561 553 l 561 483 l 324 483 l 324 69 l 445 69 "},"I":{"x_min":52.421875,"x_max":456.640625,"ha":510,"o":"m 52 0 l 52 58 l 70 58 q 114 61 93 58 q 150 75 135 65 q 175 105 166 86 q 184 158 184 125 l 184 833 q 175 886 184 866 q 150 916 166 905 q 114 930 135 926 q 70 933 93 933 l 52 933 l 52 992 l 456 992 l 456 933 l 438 933 q 394 930 415 933 q 357 916 373 926 q 333 886 342 905 q 324 833 324 866 l 324 158 q 333 105 324 125 q 357 75 342 86 q 394 61 373 65 q 438 58 415 58 l 456 58 l 456 0 l 52 0 "},"G":{"x_min":79,"x_max":965.046875,"ha":992,"o":"m 556 -14 q 345 22 435 -14 q 196 126 256 59 q 108 288 137 193 q 79 497 79 382 q 109 703 79 609 q 202 864 140 796 q 354 968 263 931 q 565 1006 445 1006 q 700 994 642 1006 q 795 961 757 982 q 853 911 834 940 q 872 850 872 883 q 861 809 872 827 q 834 779 851 791 q 793 759 817 766 q 743 753 770 753 q 733 817 743 785 q 702 874 724 848 q 645 915 680 899 q 559 931 610 931 q 409 902 471 931 q 307 817 346 873 q 250 680 268 762 q 232 494 232 599 q 251 309 232 390 q 310 173 269 228 q 418 89 352 117 q 579 60 484 60 q 656 64 619 60 q 723 77 694 68 l 723 302 q 714 352 723 333 q 689 380 705 371 q 653 394 674 390 q 609 397 632 397 l 604 397 l 604 456 l 965 456 l 965 397 l 959 397 q 922 394 939 397 q 891 380 904 390 q 871 350 878 370 q 864 297 864 330 l 864 49 q 720 1 794 17 q 556 -14 646 -14 "},"`":{"x_min":266,"x_max":536,"ha":802,"o":"m 536 842 l 483 842 q 422 889 455 860 q 359 946 390 917 q 303 1004 329 976 q 266 1049 278 1031 l 266 1064 l 414 1064 q 440 1013 425 1040 q 470 958 454 986 q 504 905 487 931 q 536 860 521 879 l 536 842 "},"·":{"x_min":113,"x_max":288,"ha":397,"o":"m 113 494 q 119 540 113 521 q 138 569 126 558 q 166 584 150 580 q 200 589 182 589 q 234 584 218 589 q 261 569 250 580 q 280 540 273 558 q 288 494 288 521 q 280 449 288 467 q 261 420 273 431 q 234 404 250 409 q 200 400 218 400 q 166 404 182 400 q 138 420 150 409 q 119 449 126 431 q 113 494 113 467 "},"r":{"x_min":46,"x_max":633,"ha":654,"o":"m 447 0 l 46 0 l 46 58 l 50 58 q 94 61 73 58 q 130 75 115 65 q 154 105 145 86 q 164 158 164 125 l 164 591 q 154 640 164 622 q 130 669 145 659 q 93 683 114 679 q 50 686 73 686 l 46 686 l 46 745 l 260 745 l 286 606 l 293 606 q 321 665 307 638 q 356 713 335 692 q 407 746 376 734 q 483 758 437 758 q 596 731 559 758 q 633 656 633 705 q 625 616 633 635 q 603 585 618 598 q 563 565 587 572 q 503 558 539 558 q 487 643 503 617 q 430 669 471 669 q 384 654 405 669 q 349 615 364 639 q 323 560 334 591 q 306 495 313 528 q 297 430 300 462 q 294 370 294 397 l 294 151 q 304 102 294 120 q 328 73 313 83 q 365 61 344 64 q 408 58 385 58 l 447 58 l 447 0 "},"₤":{"x_min":67.71875,"x_max":736,"ha":777,"o":"m 379 483 q 394 439 387 463 q 407 390 402 415 l 555 390 l 555 320 l 415 320 l 415 315 q 381 218 415 260 q 292 140 348 176 l 296 134 q 349 153 324 147 q 397 159 374 159 q 452 149 423 159 q 509 128 481 140 q 564 106 538 116 q 609 97 590 97 q 648 104 630 97 q 682 123 666 111 q 711 149 698 134 q 736 179 724 163 l 736 89 q 706 53 723 71 q 667 20 689 35 q 616 -4 645 5 q 554 -14 588 -14 q 486 -4 519 -14 q 419 17 453 5 q 350 38 385 28 q 278 48 315 48 q 192 34 232 48 q 107 1 152 21 l 89 -7 l 89 65 l 116 80 q 173 118 144 96 q 224 168 201 139 q 260 231 246 196 q 275 307 275 265 l 275 320 l 67 320 l 67 390 l 265 390 q 252 439 260 415 q 234 483 244 463 l 67 483 l 67 553 l 204 553 q 182 598 193 574 q 162 646 171 621 q 148 698 154 671 q 143 754 143 725 q 162 860 143 814 q 218 939 182 907 q 308 989 255 972 q 426 1006 360 1006 q 540 994 493 1006 q 616 961 587 982 q 658 912 645 940 q 672 850 672 883 q 642 783 672 805 q 562 760 613 760 q 556 824 562 793 q 536 880 551 856 q 496 921 522 905 q 429 936 470 936 q 318 890 354 936 q 283 757 283 844 q 290 696 283 724 q 308 642 297 667 q 330 595 318 617 q 353 553 343 572 l 555 553 l 555 483 l 379 483 "},"¿":{"x_min":71,"x_max":635,"ha":695,"o":"m 367 462 l 426 462 l 426 251 q 321 194 363 227 q 253 125 278 162 q 216 47 227 87 q 205 -35 205 6 q 214 -100 205 -71 q 242 -150 223 -129 q 290 -183 261 -171 q 360 -194 319 -194 q 434 -180 404 -194 q 482 -141 464 -166 q 509 -85 501 -117 q 517 -17 517 -53 q 564 -22 543 -17 q 601 -39 586 -28 q 626 -68 617 -51 q 635 -107 635 -84 q 619 -169 635 -140 q 572 -218 604 -197 q 491 -251 540 -239 q 375 -264 442 -264 q 254 -247 309 -264 q 157 -197 198 -230 q 94 -118 117 -165 q 71 -12 71 -72 q 90 91 71 44 q 148 177 110 138 q 241 247 186 215 q 367 305 296 278 l 367 462 m 472 656 q 465 611 472 629 q 446 582 458 593 q 418 566 434 571 q 384 562 402 562 q 350 566 366 562 q 323 582 334 571 q 304 611 311 593 q 297 656 297 629 q 304 701 297 683 q 323 730 311 719 q 350 746 334 741 q 384 751 366 751 q 418 746 402 751 q 446 730 434 741 q 465 701 458 719 q 472 656 472 683 "},"ý":{"x_min":5,"x_max":785,"ha":785,"o":"m 785 745 l 785 686 l 780 686 q 746 682 760 686 q 719 665 731 677 q 697 632 707 653 q 675 578 687 611 l 463 -5 q 417 -123 439 -72 q 372 -210 396 -174 q 320 -270 348 -247 q 256 -308 292 -294 q 173 -328 220 -323 q 65 -334 126 -334 l 52 -334 l 52 -264 q 174 -244 123 -264 q 262 -187 225 -223 q 323 -101 299 -150 q 365 5 348 -52 l 108 612 q 89 648 98 634 q 69 671 80 662 q 44 683 58 679 q 9 686 29 686 l 5 686 l 5 745 l 338 745 l 338 686 l 334 686 q 271 670 292 686 q 251 619 251 654 q 253 596 251 607 q 262 568 255 584 l 364 320 q 384 269 373 297 q 403 213 394 240 q 420 161 412 185 q 430 119 427 137 l 434 119 q 455 193 442 149 q 486 287 468 237 l 579 558 q 588 590 585 575 q 591 618 591 606 q 568 670 591 654 q 500 686 546 686 l 496 686 l 496 745 l 785 745 m 342 860 q 374 905 357 879 q 406 958 390 931 q 437 1013 422 986 q 462 1064 451 1040 l 611 1064 l 611 1049 q 573 1004 598 1031 q 517 946 547 976 q 454 889 487 917 q 394 842 422 860 l 342 842 l 342 860 "},"x":{"x_min":7,"x_max":796,"ha":803,"o":"m 532 645 q 511 678 532 671 q 458 686 490 686 l 454 686 l 454 745 l 758 745 l 758 686 l 745 686 q 708 683 725 686 q 676 670 692 679 q 643 643 660 660 q 605 597 626 625 l 462 407 l 666 132 q 724 74 696 91 q 777 58 751 58 l 796 58 l 796 0 l 437 0 l 437 58 l 444 58 q 527 104 527 58 q 525 119 527 111 q 517 138 523 127 q 500 163 511 148 q 474 200 490 178 l 382 325 l 285 189 q 272 170 278 181 q 259 147 265 159 q 251 124 254 136 q 247 101 247 112 q 267 68 247 78 q 333 58 287 58 l 337 58 l 337 0 l 7 0 l 7 58 l 19 58 q 63 62 44 58 q 99 76 82 66 q 133 104 116 86 q 171 147 150 121 l 346 373 l 170 612 q 111 667 140 648 q 51 686 82 686 l 33 686 l 33 745 l 385 745 l 385 686 l 381 686 q 342 683 357 686 q 317 674 326 680 q 305 661 309 669 q 302 645 302 654 q 310 617 302 631 q 334 582 319 603 l 426 457 l 498 561 q 523 605 513 584 q 532 645 532 626 "},"è":{"x_min":77,"x_max":673,"ha":743,"o":"m 384 678 q 264 617 306 678 q 214 438 222 556 l 538 438 q 529 536 538 491 q 503 612 521 580 q 456 661 485 644 q 384 678 427 678 m 398 -14 q 263 11 323 -14 q 162 85 203 36 q 98 205 120 134 q 77 366 77 276 q 156 659 77 561 q 384 758 236 758 q 505 736 451 758 q 595 673 558 715 q 653 568 633 631 q 673 423 673 505 l 673 358 l 211 358 q 227 230 213 284 q 266 142 241 176 q 330 91 292 107 q 417 74 368 74 q 484 82 453 74 q 540 104 515 90 q 584 134 565 117 q 615 170 603 151 q 633 153 625 165 q 642 122 642 140 q 627 77 642 101 q 581 33 612 53 q 505 0 551 13 q 398 -14 459 -14 m 463 842 l 410 842 q 349 889 382 860 q 286 946 317 917 q 230 1004 256 976 q 193 1049 205 1031 l 193 1064 l 341 1064 q 367 1013 352 1040 q 397 958 381 986 q 431 905 414 931 q 463 860 448 879 l 463 842 "},"º":{"x_min":49,"x_max":502,"ha":551,"o":"m 169 765 q 193 629 169 674 q 275 583 216 583 q 357 629 333 583 q 381 765 381 674 q 356 899 381 855 q 274 943 332 943 q 193 899 216 943 q 169 765 169 855 m 502 763 q 444 586 502 644 q 275 528 386 528 q 108 586 168 528 q 49 763 49 645 q 106 941 49 883 q 277 999 164 999 q 371 984 330 999 q 441 940 412 969 q 486 867 470 911 q 502 763 502 823 "},"Ø":{"x_min":78,"x_max":952,"ha":1031,"o":"m 789 918 q 910 745 869 852 q 952 496 952 637 q 923 287 952 382 q 839 126 895 193 q 702 22 783 59 q 515 -14 620 -14 q 398 -2 452 -14 q 299 32 344 9 l 251 -56 l 169 -56 l 240 71 q 118 246 158 137 q 78 498 78 355 q 105 707 78 613 q 186 867 132 801 q 323 970 240 934 q 517 1007 406 1007 q 631 993 578 1007 q 729 956 684 980 l 781 1048 l 861 1048 l 789 918 m 231 497 q 247 311 231 391 q 297 174 262 231 l 685 876 q 517 932 621 932 q 385 903 439 932 q 296 818 331 874 q 247 681 262 762 q 231 497 231 600 m 798 497 q 782 681 798 601 q 733 818 767 761 l 345 114 q 515 60 410 60 q 647 90 593 60 q 734 175 700 119 q 783 312 768 231 q 798 497 798 393 "},"÷":{"x_min":90,"x_max":687,"ha":777,"o":"m 687 455 l 90 455 l 90 538 l 687 538 l 687 455 m 318 759 q 323 795 318 780 q 338 819 328 810 q 360 832 347 828 q 388 836 373 836 q 416 832 403 836 q 439 819 429 828 q 454 795 449 810 q 460 759 460 780 q 454 723 460 738 q 439 699 449 708 q 416 686 429 690 q 388 683 403 683 q 360 686 373 683 q 338 699 347 690 q 323 723 328 708 q 318 759 318 738 m 318 233 q 323 270 318 255 q 338 293 328 284 q 360 306 347 302 q 388 310 373 310 q 416 306 403 310 q 439 293 429 302 q 454 270 449 284 q 460 233 460 255 q 454 197 460 212 q 439 173 449 182 q 416 161 429 165 q 388 157 403 157 q 338 173 358 157 q 318 233 318 190 "},"h":{"x_min":25.203125,"x_max":843.234375,"ha":882,"o":"m 398 58 l 398 0 l 25 0 l 25 58 l 36 58 q 80 61 59 58 q 116 75 101 65 q 140 105 131 86 q 150 158 150 125 l 150 902 q 140 951 150 932 q 116 980 131 970 q 79 993 100 990 q 36 996 59 996 l 25 996 l 25 1055 l 280 1055 l 280 749 q 280 710 280 730 q 278 671 279 689 q 275 631 276 651 l 282 631 q 486 758 344 758 q 591 742 545 758 q 668 693 637 726 q 715 608 699 660 q 732 486 732 557 l 732 157 q 740 105 732 125 q 762 75 748 86 q 796 61 776 65 q 839 58 816 58 l 843 58 l 843 0 l 601 0 l 601 479 q 592 560 601 524 q 566 619 584 595 q 519 656 548 644 q 448 669 490 669 q 373 653 405 669 q 321 607 342 637 q 291 536 301 578 q 280 444 280 494 l 280 151 q 290 102 280 120 q 314 73 299 83 q 351 61 330 64 q 394 58 371 58 l 398 58 "},".":{"x_min":111,"x_max":286,"ha":397,"o":"m 111 84 q 117 129 111 111 q 136 158 124 147 q 164 174 148 169 q 198 179 180 179 q 232 174 216 179 q 259 158 248 169 q 278 129 271 147 q 286 84 286 111 q 278 39 286 57 q 259 10 271 21 q 232 -5 248 0 q 198 -10 216 -10 q 164 -5 180 -10 q 136 10 148 0 q 117 39 124 21 q 111 84 111 57 "},";":{"x_min":41,"x_max":269,"ha":347,"o":"m 269 58 q 256 -27 269 14 q 217 -104 244 -68 q 146 -167 189 -139 q 41 -214 103 -195 l 41 -155 q 141 -102 109 -133 q 173 -30 173 -71 q 165 -7 173 -17 q 147 8 158 1 q 122 22 135 15 q 98 38 109 29 q 79 61 86 48 q 72 96 72 75 q 98 157 72 136 q 162 179 124 179 q 203 171 184 179 q 237 148 222 163 q 260 110 252 132 q 269 58 269 87 m 88 656 q 94 701 88 683 q 113 730 101 719 q 141 746 125 741 q 175 751 157 751 q 209 746 193 751 q 236 730 225 741 q 255 701 248 719 q 263 656 263 683 q 255 612 263 630 q 236 582 248 593 q 209 566 225 571 q 175 562 193 562 q 141 566 157 562 q 113 582 125 571 q 94 612 101 593 q 88 656 88 630 "},"f":{"x_min":37.734375,"x_max":610,"ha":513,"o":"m 467 58 l 467 0 l 37 0 l 37 58 l 56 58 q 100 61 79 58 q 136 75 121 65 q 160 105 151 86 q 170 157 170 125 l 170 675 l 43 675 l 43 745 l 170 745 l 170 814 q 186 924 170 876 q 235 1004 203 971 q 313 1053 267 1036 q 415 1070 358 1070 q 506 1063 469 1070 q 566 1045 544 1056 q 599 1016 589 1033 q 610 978 610 1000 q 601 944 610 959 q 577 920 593 930 q 541 905 562 910 q 496 900 521 900 q 491 941 496 921 q 476 977 487 961 q 448 1002 466 992 q 404 1011 431 1011 q 355 999 375 1011 q 323 964 335 988 q 305 907 311 941 q 300 828 300 873 l 300 745 l 496 745 l 496 675 l 300 675 l 300 157 q 310 105 300 125 q 334 75 319 86 q 370 61 349 65 q 414 58 391 58 l 467 58 "},"A":{"x_min":0,"x_max":979,"ha":979,"o":"m 281 332 l 227 186 q 218 153 221 169 q 215 126 215 137 q 237 74 215 90 q 307 58 260 58 l 339 58 l 339 0 l 0 0 l 0 58 l 26 58 q 61 62 46 58 q 86 79 75 67 q 108 112 98 91 q 132 166 119 133 l 440 992 l 548 992 l 862 132 q 878 96 870 110 q 898 73 887 82 q 925 61 910 65 q 960 58 940 58 l 979 58 l 979 0 l 597 0 l 597 58 l 629 58 q 712 124 712 58 q 709 148 712 136 q 700 176 706 160 l 645 332 l 281 332 m 534 644 q 494 760 512 706 q 465 864 476 814 q 453 816 460 839 q 439 768 447 792 q 423 717 432 743 q 401 657 413 690 l 307 402 l 619 402 l 534 644 "},"6":{"x_min":85,"x_max":706,"ha":777,"o":"m 447 936 q 288 834 342 936 q 226 530 234 732 q 264 557 243 544 q 309 580 285 571 q 363 596 334 590 q 426 603 392 603 q 541 583 490 603 q 630 526 593 563 q 686 437 666 490 q 706 317 706 384 q 685 183 706 244 q 627 78 665 122 q 533 10 589 34 q 407 -14 478 -14 q 279 14 338 -14 q 176 105 220 43 q 109 265 133 167 q 85 499 85 362 q 94 628 85 565 q 124 748 104 691 q 173 851 144 804 q 244 933 203 899 q 335 987 284 968 q 447 1006 386 1006 q 549 993 505 1006 q 620 961 592 981 q 663 914 649 940 q 677 860 677 888 q 649 798 677 820 q 570 777 622 777 q 564 839 570 810 q 542 890 557 868 q 504 924 527 912 q 447 936 481 936 m 399 533 q 346 526 371 533 q 298 508 321 519 q 258 482 276 497 q 225 453 239 467 q 240 274 226 348 q 277 153 253 200 q 335 84 301 106 q 411 62 369 62 q 526 120 486 62 q 565 305 565 179 q 522 479 565 424 q 399 533 480 533 "},"O":{"x_min":78,"x_max":952,"ha":1031,"o":"m 952 496 q 923 287 952 382 q 839 126 895 193 q 702 22 783 59 q 515 -14 620 -14 q 322 22 405 -14 q 186 126 240 59 q 105 288 132 193 q 78 498 78 382 q 105 707 78 613 q 186 867 132 801 q 323 970 240 934 q 517 1007 406 1007 q 702 970 622 1007 q 839 867 783 934 q 923 706 895 800 q 952 496 952 612 m 231 497 q 247 312 231 393 q 296 175 262 231 q 384 90 330 119 q 515 60 438 60 q 647 90 593 60 q 734 175 700 119 q 783 312 768 231 q 798 497 798 393 q 783 681 798 600 q 734 818 768 762 q 647 903 700 874 q 517 932 594 932 q 385 903 439 932 q 296 818 331 874 q 247 681 262 762 q 231 497 231 600 "},"n":{"x_min":38.53125,"x_max":857.234375,"ha":896,"o":"m 412 58 l 412 0 l 38 0 l 38 58 l 50 58 q 94 61 73 58 q 130 75 115 65 q 154 105 145 86 q 164 158 164 125 l 164 591 q 154 640 164 622 q 130 669 145 659 q 93 683 114 679 q 50 686 73 686 l 46 686 l 46 745 l 271 745 l 289 631 l 296 631 q 341 695 317 670 q 392 733 366 720 q 449 752 419 747 q 513 758 479 758 q 610 742 567 758 q 684 693 653 726 q 730 608 714 660 q 746 486 746 557 l 746 157 q 753 105 746 125 q 775 75 761 86 q 809 61 790 65 q 852 58 829 58 l 857 58 l 857 0 l 615 0 l 615 479 q 606 560 615 524 q 580 619 598 595 q 533 656 562 644 q 462 669 504 669 q 383 650 415 669 q 331 601 351 632 q 303 529 311 570 q 294 444 294 488 l 294 151 q 304 102 294 120 q 328 73 313 83 q 365 61 344 64 q 408 58 385 58 l 412 58 "},"﻿":{"x_min":0,"x_max":0,"ha":0},"3":{"x_min":81,"x_max":696,"ha":777,"o":"m 344 62 q 423 74 386 62 q 489 112 460 85 q 534 181 517 138 q 551 287 551 224 q 534 366 551 331 q 484 427 516 402 q 405 466 451 452 q 300 480 358 480 l 256 480 l 256 550 l 299 550 q 384 565 345 550 q 453 608 424 580 q 499 675 482 636 q 516 764 516 715 q 508 837 516 805 q 482 891 500 869 q 436 925 464 913 q 368 936 408 936 q 291 919 321 936 q 245 874 262 902 q 222 808 228 845 q 216 730 216 771 q 169 734 191 730 q 131 748 147 738 q 106 776 115 759 q 97 819 97 793 q 114 894 97 859 q 166 953 131 928 q 251 992 200 978 q 369 1006 302 1006 q 488 991 435 1006 q 580 948 542 976 q 639 879 618 920 q 661 785 661 838 q 644 697 661 738 q 598 623 627 656 q 527 565 568 589 q 439 530 487 542 q 493 521 464 528 q 551 502 523 515 q 606 472 580 490 q 652 427 632 453 q 684 365 672 400 q 696 284 696 330 q 681 184 696 228 q 640 106 666 139 q 579 50 613 73 q 505 13 544 27 q 424 -7 466 -1 q 343 -14 383 -14 q 225 -1 274 -14 q 143 32 175 11 q 96 81 111 53 q 81 140 81 110 q 104 206 81 182 q 168 230 128 230 q 180 162 168 193 q 214 109 192 132 q 269 75 236 87 q 344 62 302 62 "},"9":{"x_min":71,"x_max":692,"ha":777,"o":"m 316 60 q 486 163 431 60 q 547 476 540 267 q 512 441 532 457 q 467 410 492 424 q 411 389 442 397 q 344 382 380 382 q 233 399 283 382 q 147 452 183 417 q 90 540 110 487 q 71 664 71 593 q 91 802 71 739 q 149 910 111 864 q 243 980 188 955 q 368 1006 298 1006 q 498 978 439 1006 q 600 894 557 951 q 667 749 643 837 q 692 539 692 661 q 682 396 692 466 q 654 265 673 327 q 604 152 635 203 q 532 63 574 100 q 436 4 491 25 q 315 -16 382 -16 q 217 -5 256 -16 q 155 22 178 5 q 123 60 133 39 q 114 104 114 82 q 126 147 114 130 q 155 171 139 165 q 178 129 164 149 q 212 93 192 109 q 258 69 232 78 q 316 60 283 60 m 375 464 q 436 473 409 464 q 486 498 464 483 q 523 533 507 513 q 548 576 539 554 l 548 579 q 534 737 547 670 q 497 845 520 803 q 440 909 473 888 q 368 929 408 929 q 255 864 295 929 q 215 677 215 800 q 225 580 215 620 q 255 513 235 539 q 305 475 275 487 q 375 464 335 464 "},"l":{"x_min":18.421875,"x_max":412.46875,"ha":431,"o":"m 36 58 q 80 61 59 58 q 116 75 101 65 q 140 105 131 86 q 150 158 150 125 l 150 902 q 140 951 150 932 q 116 980 131 970 q 79 993 100 990 q 36 996 59 996 l 18 996 l 18 1055 l 280 1055 l 280 158 q 289 105 280 125 q 314 75 298 86 q 350 61 329 65 q 394 58 371 58 l 412 58 l 412 0 l 18 0 l 18 58 l 36 58 "},"¤":{"x_min":89.234375,"x_max":686.40625,"ha":777,"o":"m 134 497 q 145 577 134 539 q 180 645 157 614 l 89 737 l 147 796 l 237 704 q 307 740 269 727 q 387 753 344 753 q 465 740 428 753 q 534 704 503 727 l 628 797 l 686 737 l 594 645 q 630 577 617 614 q 643 497 643 539 q 630 417 643 455 q 594 348 617 380 l 686 257 l 629 198 l 536 290 q 467 255 504 268 q 387 243 429 243 q 308 255 345 243 q 239 290 270 267 l 147 198 l 89 257 l 179 348 q 145 417 157 380 q 134 497 134 455 m 211 497 q 225 428 211 460 q 263 372 239 396 q 319 333 287 348 q 387 319 350 319 q 457 333 425 319 q 514 372 490 348 q 551 428 537 396 q 565 497 565 460 q 551 567 565 535 q 514 624 537 600 q 457 662 490 648 q 387 676 425 676 q 319 662 350 676 q 263 624 287 648 q 225 567 239 600 q 211 497 211 535 "},"4":{"x_min":24,"x_max":757.265625,"ha":777,"o":"m 585 273 l 585 158 q 594 106 585 125 q 618 75 603 86 q 654 61 633 65 q 698 58 675 58 l 717 58 l 717 0 l 298 0 l 298 58 l 338 58 q 382 61 361 58 q 418 75 403 65 q 442 106 433 86 q 452 158 452 125 l 452 273 l 24 273 l 24 330 l 453 992 l 585 992 l 585 350 l 757 350 l 757 273 l 585 273 m 452 607 q 452 674 452 637 q 454 749 453 711 q 457 824 455 787 q 461 895 458 862 q 447 869 456 885 q 427 833 439 853 q 404 792 416 814 q 379 750 391 770 q 355 711 366 729 q 336 681 344 693 l 123 350 l 452 350 l 452 607 "},"p":{"x_min":18.421875,"x_max":777,"ha":853,"o":"m 469 669 q 378 651 415 669 q 320 596 342 633 q 290 504 299 559 q 280 373 280 448 q 290 245 280 300 q 321 151 299 189 q 379 94 343 113 q 470 74 415 74 q 549 94 517 74 q 602 151 581 113 q 632 245 623 189 q 642 374 642 301 q 632 503 642 448 q 602 595 623 559 q 548 650 581 632 q 469 669 515 669 m 777 373 q 758 199 777 272 q 703 78 739 126 q 614 8 667 31 q 493 -14 561 -14 q 420 -5 453 -14 q 361 19 388 3 q 315 58 335 36 q 280 108 295 80 l 275 108 q 278 40 276 72 q 279 14 278 28 q 279 -11 279 0 q 280 -33 280 -24 q 280 -49 280 -43 l 280 -182 q 290 -231 280 -212 q 314 -259 299 -249 q 351 -272 330 -269 q 394 -275 371 -275 l 398 -275 l 398 -334 l 25 -334 l 25 -275 l 36 -275 q 80 -272 59 -275 q 116 -258 101 -268 q 140 -227 131 -247 q 150 -175 150 -207 l 150 591 q 140 640 150 622 q 116 669 131 659 q 79 683 100 679 q 36 686 59 686 l 18 686 l 18 745 l 261 745 l 275 618 l 280 618 q 316 676 296 650 q 361 720 335 702 q 420 748 387 738 q 493 758 452 758 q 614 735 561 758 q 703 665 667 712 q 758 545 739 618 q 777 373 777 473 "},"à":{"x_min":69,"x_max":722.203125,"ha":782,"o":"m 203 200 q 231 103 203 135 q 316 71 258 71 q 392 84 358 71 q 451 123 427 98 q 488 184 475 148 q 501 263 501 219 l 501 375 l 412 371 q 313 357 353 368 q 249 324 273 345 q 214 271 225 302 q 203 200 203 240 m 372 688 q 307 677 331 688 q 268 646 282 666 q 249 598 254 625 q 245 538 245 570 q 157 557 187 538 q 127 625 127 577 q 146 686 127 661 q 200 727 166 711 q 280 750 234 743 q 377 758 325 758 q 488 745 441 758 q 568 704 536 732 q 616 630 600 675 q 632 518 632 584 l 632 157 q 636 109 632 128 q 651 79 641 90 q 678 63 661 67 q 718 58 695 58 l 722 58 l 722 0 l 534 0 l 512 118 l 501 118 q 459 65 479 89 q 414 23 438 40 q 358 -4 389 5 q 284 -14 328 -14 q 198 0 238 -14 q 130 39 159 12 q 85 109 101 67 q 69 207 69 150 q 147 371 69 318 q 385 429 226 425 l 501 434 l 501 517 q 497 586 501 554 q 479 640 492 618 q 440 676 465 663 q 372 688 414 688 m 453 842 l 400 842 q 339 889 372 860 q 276 946 307 917 q 220 1004 246 976 q 183 1049 195 1031 l 183 1064 l 331 1064 q 357 1013 342 1040 q 387 958 371 986 q 421 905 404 931 q 453 860 438 879 l 453 842 "},"Ü":{"x_min":21.4375,"x_max":975.25,"ha":996,"o":"m 502 -14 q 355 3 420 -14 q 245 58 290 20 q 176 155 200 95 q 153 299 153 214 l 153 839 q 143 888 153 869 q 119 917 134 907 q 82 930 103 927 q 39 933 62 933 l 21 933 l 21 992 l 425 992 l 425 933 l 407 933 q 363 930 384 933 q 326 916 342 926 q 302 885 311 905 q 293 832 293 865 l 293 285 q 310 181 293 224 q 358 112 327 138 q 431 72 389 85 q 525 60 474 60 q 629 77 585 60 q 701 122 672 93 q 744 191 730 151 q 758 279 758 231 l 758 838 q 749 888 758 869 q 724 917 739 906 q 688 930 708 927 q 644 933 667 933 l 626 933 l 626 992 l 975 992 l 975 933 l 956 933 q 912 930 933 933 q 876 916 891 926 q 852 886 861 905 q 843 833 843 866 l 843 283 q 820 158 843 214 q 755 65 798 103 q 649 6 712 26 q 502 -14 585 -14 m 324 1185 q 329 1221 324 1206 q 344 1245 334 1236 q 366 1258 353 1254 q 394 1263 379 1263 q 422 1258 409 1263 q 445 1245 435 1254 q 460 1221 454 1236 q 465 1185 465 1206 q 460 1149 465 1163 q 445 1124 454 1134 q 422 1111 435 1115 q 394 1107 409 1107 q 344 1124 364 1107 q 324 1185 324 1142 m 588 1185 q 593 1221 588 1206 q 608 1245 598 1236 q 630 1258 617 1254 q 658 1263 643 1263 q 686 1258 673 1263 q 709 1245 699 1254 q 724 1221 718 1236 q 729 1185 729 1206 q 724 1149 729 1163 q 709 1124 718 1134 q 686 1111 699 1115 q 658 1107 673 1107 q 608 1124 628 1107 q 588 1185 588 1142 "},"ó":{"x_min":77,"x_max":725,"ha":802,"o":"m 725 373 q 641 81 725 177 q 398 -14 558 -14 q 264 9 323 -14 q 162 81 204 33 q 99 202 121 129 q 77 373 77 275 q 159 663 77 568 q 403 758 241 758 q 537 734 478 758 q 639 663 597 711 q 702 543 680 615 q 725 373 725 471 m 211 374 q 222 236 211 295 q 254 136 232 176 q 313 75 277 96 q 402 55 349 55 q 489 75 454 55 q 548 136 525 96 q 580 236 570 176 q 590 374 590 295 q 579 511 590 452 q 547 609 569 570 q 488 668 525 649 q 400 688 452 688 q 312 668 348 688 q 254 609 276 649 q 222 511 232 570 q 211 374 211 452 m 347 860 q 379 905 362 879 q 411 958 395 931 q 442 1013 427 986 q 467 1064 456 1040 l 616 1064 l 616 1049 q 578 1004 603 1031 q 522 946 552 976 q 459 889 492 917 q 399 842 427 860 l 347 842 l 347 860 "}}}
